<svg width="25" height="22" viewBox="0 0 25 22" fill="none" xmlns="http://www.w3.org/2000/svg">
<path d="M22.1761 0.632324H7.86398C6.9451 0.632324 6.2002 1.37723 6.2002 2.29611V16.0608C6.2002 16.9797 6.9451 17.7246 7.86398 17.7246H22.1761C23.095 17.7246 23.8399 16.9797 23.8399 16.0608V2.29611C23.8399 1.37723 23.095 0.632324 22.1761 0.632324Z" fill="white" stroke="#457EFF" stroke-width="0.831893"/>
<path d="M20.5158 7.73242H9.52365C8.60477 7.73242 7.85986 8.47732 7.85986 9.39621V13.1146C7.85986 14.0335 8.60477 14.7784 9.52365 14.7784H20.5158C21.4346 14.7784 22.1795 14.0335 22.1795 13.1146V9.39621C22.1795 8.47732 21.4346 7.73242 20.5158 7.73242Z" fill="#EAF5FE" stroke="#457EFF" stroke-width="0.831893"/>
<path d="M2.60352 13.3993V9.0752" stroke="#457EFF" stroke-width="0.831893" stroke-linecap="round" stroke-linejoin="round"/>
<path d="M0.968262 10.3366L2.60355 8.75586L4.23883 10.3366" stroke="#457EFF" stroke-width="0.831893" stroke-linecap="round" stroke-linejoin="round"/>
<path d="M11.0171 13.4104C10.8036 13.4104 10.6025 13.4571 10.4259 13.5396C10.1983 13.2387 9.81026 13.0403 9.37054 13.0403C9.14345 13.0403 8.93013 13.0932 8.74554 13.1859C8.5145 12.909 8.14265 12.7291 7.72401 12.7291C7.59222 12.7291 7.46507 12.7469 7.34544 12.78C7.34544 12.5561 7.34544 12.3202 7.34544 12.0724C7.34544 11.7008 7.54924 10.1201 5.96571 10.1201C4.74002 10.1201 4.80964 11.1144 4.80964 12.217C4.80964 12.9521 4.80964 13.8337 4.80964 14.8617C4.74085 14.8009 4.66361 14.7466 4.57884 14.7001C4.30565 14.5504 3.98533 14.4983 3.67127 14.5516C3.33346 14.5636 3.0304 14.6937 2.83353 14.9127C2.6267 15.1428 2.5549 15.4512 2.63631 15.759L3.22078 17.9661C3.55407 19.8076 5.18184 21.1853 5.25121 21.2433C5.33378 21.3122 5.44321 21.3507 5.55694 21.3507H10.5586C10.7083 21.3507 10.8479 21.2841 10.9302 21.1738C11.816 19.9846 12.2844 18.6039 12.2846 17.181L12.285 14.5294C12.285 13.9123 11.7162 13.4104 11.0171 13.4104ZM5.74373 20.5658C5.38531 20.2294 4.32916 19.143 4.09674 17.8302C4.095 17.8205 4.09292 17.8109 4.09037 17.8015L3.50231 15.5805C3.48274 15.5063 3.49258 15.4423 3.53022 15.4005C3.56774 15.3587 3.63212 15.3368 3.71805 15.3296C3.76125 15.326 3.7792 15.3215 3.81927 15.3193C3.92013 15.3139 4.02355 15.3198 4.10948 15.3669C4.1954 15.414 4.25528 15.4878 4.27832 15.5746L4.78555 17.4904C4.82794 17.6503 4.97872 17.7701 5.16331 17.7906L5.19898 17.7944C5.32556 17.8084 5.45283 17.7738 5.54848 17.6993C5.64414 17.6248 5.69891 17.5176 5.69891 17.4051V11.1681C5.69891 10.9839 5.86868 10.834 6.07748 10.834C6.28617 10.834 6.45605 10.9839 6.45605 11.1681V14.8481C6.45605 15.0648 6.65512 15.2406 6.90075 15.2406C7.14637 15.2406 7.34544 15.0648 7.34544 14.8481V13.848C7.34544 13.6638 7.51521 13.5139 7.72401 13.5139C7.93269 13.5139 8.10258 13.6638 8.10258 13.848V14.8928C8.10258 15.1095 8.30165 15.2852 8.54728 15.2852C8.7929 15.2852 8.99197 15.1095 8.99197 14.8928V14.1592C8.99197 13.9751 9.16186 13.8251 9.37054 13.8251C9.57934 13.8251 9.74911 13.9751 9.74911 14.1592V15.1669C9.74911 15.3835 9.94818 15.5593 10.1938 15.5593C10.4394 15.5593 10.6385 15.3835 10.6385 15.1669V14.5294C10.6385 14.3451 10.8084 14.1952 11.0171 14.1952C11.2259 14.1952 11.3956 14.3451 11.3956 14.5293L11.3952 17.1809C11.3951 18.3803 11.0219 19.5461 10.3141 20.5658H5.74373Z" fill="#457EFF" stroke="#457EFF" stroke-width="0.124784"/>
<path d="M5.74344 20.5657C5.38502 20.2293 4.32887 19.143 4.09645 17.8301C4.09471 17.8204 4.09262 17.8108 4.09008 17.8014L3.50201 15.5804C3.48244 15.5062 3.49229 15.4422 3.52992 15.4004C3.56744 15.3586 3.63183 15.3368 3.71776 15.3295C3.76096 15.3259 3.77891 15.3214 3.81898 15.3193C3.91984 15.3139 4.02326 15.3197 4.10918 15.3668C4.19511 15.4139 4.25498 15.4877 4.27803 15.5746L4.78526 17.4903C4.82764 17.6503 4.97842 17.7701 5.16302 17.7905L5.19869 17.7944C5.32526 17.8084 5.45253 17.7737 5.54819 17.6992C5.64384 17.6247 5.69862 17.5175 5.69862 17.405V11.1681C5.69862 10.9838 5.86839 10.834 6.07719 10.834C6.28587 10.834 6.45576 10.9838 6.45576 11.1681V14.8481C6.45576 15.0647 6.65483 15.2405 6.90045 15.2405C7.14608 15.2405 7.34515 15.0647 7.34515 14.8481V13.848C7.34515 13.6637 7.51492 13.5139 7.72372 13.5139C7.9324 13.5139 8.10229 13.6637 8.10229 13.848V14.8927C8.10229 15.1095 8.30136 15.2851 8.54698 15.2851C8.79261 15.2851 8.99168 15.1095 8.99168 14.8927V14.1591C8.99168 13.975 9.16157 13.8251 9.37025 13.8251C9.57905 13.8251 9.74882 13.975 9.74882 14.1591V15.1668C9.74882 15.3835 9.94789 15.5592 10.1935 15.5592C10.4391 15.5592 10.6382 15.3835 10.6382 15.1668V14.5293C10.6382 14.345 10.8081 14.1951 11.0168 14.1951C11.2256 14.1951 11.3953 14.345 11.3953 14.5292L11.3949 17.1808C11.3948 18.3803 11.0216 19.546 10.3138 20.5657H5.74344Z" fill="white" stroke="#457EFF" stroke-width="0.124784"/>
<path d="M9.86133 10.2783H19.5631" stroke="#457EFF" stroke-width="0.831893" stroke-linecap="round"/>
<path d="M9.86133 12.3818H19.5631" stroke="#457EFF" stroke-width="0.831893" stroke-linecap="round"/>
</svg>
