<svg width="23" height="19" viewBox="0 0 23 19" fill="none" xmlns="http://www.w3.org/2000/svg">
<path d="M17.1341 0.796875H2.82199C1.90311 0.796875 1.1582 1.54178 1.1582 2.46066V16.2254C1.1582 17.1443 1.90311 17.8892 2.82199 17.8892H17.1341C18.053 17.8892 18.7979 17.1443 18.7979 16.2254V2.46066C18.7979 1.54178 18.053 0.796875 17.1341 0.796875Z" fill="white" stroke="#457EFF" stroke-width="0.831893"/>
<path fill-rule="evenodd" clip-rule="evenodd" d="M18.7979 5.82605V16.6415C18.7979 16.9861 18.6582 17.298 18.4324 17.5239C18.2066 17.7497 17.8946 17.8893 17.55 17.8893H2.40604C2.06146 17.8893 1.7495 17.7497 1.52369 17.5239C1.29787 17.298 1.1582 16.9861 1.1582 16.6415V5.82605H18.7979Z" fill="#EAF5FE" stroke="#457EFF" stroke-width="0.831893"/>
<path d="M21.2114 7.96022C20.998 7.96022 20.7968 8.00693 20.6202 8.0894C20.3927 7.78853 20.0046 7.59007 19.5649 7.59007C19.3378 7.59007 19.1245 7.64301 18.9399 7.7357C18.7088 7.45885 18.337 7.27888 17.9183 7.27888C17.7866 7.27888 17.6594 7.29666 17.5398 7.32977C17.5398 7.10588 17.5398 6.87003 17.5398 6.62224C17.5398 6.25056 17.7436 4.66992 16.16 4.66992C14.9344 4.66992 15.004 5.66417 15.004 6.7668C15.004 7.50189 15.004 8.38346 15.004 9.41151C14.9352 9.35071 14.8579 9.29644 14.7732 9.24994C14.5 9.10022 14.1797 9.0481 13.8656 9.10145C13.5278 9.11341 13.2247 9.2435 13.0279 9.46251C12.821 9.69255 12.7492 10.001 12.8306 10.3088L13.4151 12.5159C13.7484 14.3574 15.3762 15.7351 15.4455 15.7931C15.5281 15.8621 15.6375 15.9005 15.7513 15.9005H20.7529C20.9027 15.9005 21.0422 15.8339 21.1246 15.7236C22.0104 14.5344 22.4788 13.1537 22.4789 11.7308L22.4794 9.07917C22.4794 8.46211 21.9105 7.96022 21.2114 7.96022ZM15.9381 15.1156C15.5796 14.7792 14.5235 13.6928 14.2911 12.38C14.2893 12.3703 14.2873 12.3607 14.2847 12.3513L13.6966 10.1303C13.6771 10.0561 13.6869 9.99209 13.7246 9.95029C13.7621 9.9085 13.8265 9.88663 13.9124 9.87937C13.9556 9.87579 13.9735 9.8713 14.0136 9.86915C14.1145 9.86373 14.2179 9.86956 14.3038 9.91667C14.3897 9.96378 14.4496 10.0376 14.4727 10.1244L14.9799 12.0402C15.0223 12.2001 15.1731 12.3199 15.3576 12.3404L15.3933 12.3442C15.5199 12.3582 15.6472 12.3236 15.7428 12.2491C15.8385 12.1746 15.8932 12.0674 15.8932 11.9549V5.71793C15.8932 5.53367 16.063 5.38385 16.2718 5.38385C16.4805 5.38385 16.6504 5.53367 16.6504 5.71793V9.39792C16.6504 9.61458 16.8495 9.79036 17.0951 9.79036C17.3407 9.79036 17.5398 9.61458 17.5398 9.39792V8.39783C17.5398 8.21357 17.7095 8.06375 17.9183 8.06375C18.127 8.06375 18.2969 8.21357 18.2969 8.39783V9.44258C18.2969 9.65934 18.496 9.83502 18.7416 9.83502C18.9872 9.83502 19.1863 9.65934 19.1863 9.44258V8.70902C19.1863 8.52486 19.3562 8.37494 19.5649 8.37494C19.7737 8.37494 19.9434 8.52486 19.9434 8.70902V9.71667C19.9434 9.93333 20.1425 10.1091 20.3881 10.1091C20.6338 10.1091 20.8328 9.93333 20.8328 9.71667V9.07917C20.8328 8.89491 21.0027 8.74499 21.2114 8.74499C21.4202 8.74499 21.59 8.89491 21.59 9.07907L21.5895 11.7307C21.5894 12.9301 21.2163 14.0959 20.5085 15.1156H15.9381Z" fill="#457EFF" stroke="#457EFF" stroke-width="0.124784"/>
<path d="M15.9378 15.1155C15.5794 14.7791 14.5232 13.6928 14.2908 12.38C14.289 12.3702 14.287 12.3606 14.2844 12.3512L13.6964 10.1302C13.6768 10.056 13.6866 9.99203 13.7243 9.95023C13.7618 9.90843 13.8262 9.88656 13.9121 9.87931C13.9553 9.87573 13.9732 9.87123 14.0133 9.86909C14.1142 9.86367 14.2176 9.8695 14.3035 9.91661C14.3894 9.96372 14.4493 10.0375 14.4724 10.1244L14.9796 12.0401C15.022 12.2001 15.1728 12.3199 15.3574 12.3403L15.393 12.3442C15.5196 12.3582 15.6469 12.3235 15.7425 12.249C15.8382 12.1745 15.893 12.0673 15.893 11.9548V5.71787C15.893 5.53361 16.0627 5.38379 16.2715 5.38379C16.4802 5.38379 16.6501 5.53361 16.6501 5.71787V9.39786C16.6501 9.61452 16.8492 9.79029 17.0948 9.79029C17.3404 9.79029 17.5395 9.61452 17.5395 9.39786V8.39777C17.5395 8.21351 17.7093 8.06369 17.9181 8.06369C18.1267 8.06369 18.2966 8.21351 18.2966 8.39777V9.44252C18.2966 9.65928 18.4957 9.83495 18.7413 9.83495C18.9869 9.83495 19.186 9.65928 19.186 9.44252V8.70895C19.186 8.5248 19.3559 8.37487 19.5646 8.37487C19.7734 8.37487 19.9432 8.5248 19.9432 8.70895V9.71661C19.9432 9.93327 20.1422 10.109 20.3878 10.109C20.6335 10.109 20.8325 9.93327 20.8325 9.71661V9.07911C20.8325 8.89485 21.0024 8.74493 21.2111 8.74493C21.4199 8.74493 21.5897 8.89485 21.5897 9.07901L21.5892 11.7306C21.5891 12.9301 21.216 14.0958 20.5082 15.1155H15.9378Z" fill="white" stroke="#457EFF" stroke-width="0.124784"/>
<path fill-rule="evenodd" clip-rule="evenodd" d="M15.416 3.92872L16.8682 2.5249L15.416 3.92872Z" stroke="#457EFF" stroke-width="0.831893" stroke-linecap="round" stroke-linejoin="round"/>
<path fill-rule="evenodd" clip-rule="evenodd" d="M15.4159 2.5249L16.8682 3.92872L15.4159 2.5249Z" stroke="#457EFF" stroke-width="0.831893" stroke-linecap="round" stroke-linejoin="round"/>
</svg>
