<svg width="23" height="24" viewBox="0 0 23 24" fill="none" xmlns="http://www.w3.org/2000/svg">
<path d="M16.4313 16.0192C19.3235 13.127 19.3235 8.43773 16.4313 5.5455C13.539 2.65326 8.84979 2.65326 5.95756 5.5455C3.06532 8.43773 3.06532 13.127 5.95755 16.0192C8.84979 18.9114 13.539 18.9114 16.4313 16.0192Z" fill="#EAF5FE"/>
<path d="M7.57032 9.54838C8.8378 8.32315 10.889 8.31188 12.245 9.47828L12.3983 9.61809C12.6035 9.81644 12.6035 10.1329 12.4016 10.328C12.2221 10.5015 11.9435 10.5208 11.742 10.3859L11.6704 10.328C10.7584 9.44644 9.34388 9.383 8.4287 10.1412L8.30146 10.2552L4.37954 14.0463C3.47298 14.9227 3.49951 16.3794 4.45165 17.2998C5.36051 18.1784 6.77492 18.2417 7.69009 17.4834L7.81732 17.3695L11.2247 14.0758C11.4266 13.8806 11.7539 13.8806 11.9558 14.0758C12.1353 14.2493 12.1552 14.5186 12.0156 14.7133L11.9558 14.7826L8.54847 18.0763C7.23224 19.3487 5.0708 19.3119 3.72051 18.0066C2.42023 16.7497 2.33679 14.7656 3.50772 13.4842L3.6484 13.3396L7.57032 9.54838Z" fill="#457EFF" stroke="#457EFF" stroke-width="0.0831893"/>
<path d="M13.8405 3.48735C15.1567 2.215 17.3182 2.25177 18.6685 3.55705C19.9687 4.81399 20.0522 6.79803 18.8812 8.07943L18.7406 8.22408L14.8186 12.0153C13.5512 13.2405 11.4999 13.2518 10.144 12.0854L9.99069 11.9456L9.90777 11.8654C9.70587 11.6702 9.70587 11.3538 9.90777 11.1586C10.0872 10.9852 10.3658 10.9659 10.5673 11.1008L10.6389 11.1586L10.7218 11.2388C11.6307 12.1174 13.0451 12.1807 13.9603 11.4224L14.0875 11.3085L18.0094 7.51731C18.916 6.64097 18.8895 5.18423 17.9373 4.26383C17.0285 3.38526 15.6141 3.32196 14.6989 4.08021L14.5716 4.19412L11.1696 7.48277C10.9677 7.67794 10.6403 7.67794 10.4384 7.48277C10.259 7.30929 10.239 7.03999 10.3786 6.84521L10.4384 6.776L13.8405 3.48735Z" fill="#457EFF" stroke="#457EFF" stroke-width="0.0831893"/>
<path d="M21.4834 15.1384C21.2699 15.1384 21.0688 15.1851 20.8922 15.2676C20.6646 14.9668 20.2766 14.7683 19.8368 14.7683C19.6098 14.7683 19.3964 14.8212 19.2118 14.9139C18.9808 14.6371 18.609 14.4571 18.1903 14.4571C18.0585 14.4571 17.9314 14.4749 17.8118 14.508C17.8118 14.2841 17.8118 14.0483 17.8118 13.8005C17.8118 13.4288 18.0155 11.8481 16.432 11.8481C15.2063 11.8481 15.2759 12.8424 15.2759 13.945C15.2759 14.6801 15.2759 15.5617 15.2759 16.5897C15.2072 16.5289 15.1299 16.4747 15.0451 16.4282C14.772 16.2784 14.4516 16.2263 14.1376 16.2797C13.7998 16.2916 13.4967 16.4217 13.2998 16.6407C13.093 16.8708 13.0212 17.1792 13.1026 17.487L13.6871 19.6942C14.0204 21.5356 15.6481 22.9133 15.7175 22.9713C15.8001 23.0403 15.9095 23.0787 16.0232 23.0787H21.0249C21.1746 23.0787 21.3142 23.0122 21.3965 22.9018C22.2823 21.7126 22.7508 20.332 22.7509 18.909L22.7513 16.2574C22.7513 15.6403 22.1825 15.1384 21.4834 15.1384ZM16.21 22.2938C15.8516 21.9574 14.7955 20.8711 14.563 19.5582C14.5613 19.5485 14.5592 19.5389 14.5567 19.5295L13.9686 17.3085C13.949 17.2343 13.9589 17.1703 13.9965 17.1285C14.034 17.0867 14.0984 17.0648 14.1844 17.0576C14.2276 17.054 14.2455 17.0495 14.2856 17.0474C14.3864 17.042 14.4899 17.0478 14.5758 17.0949C14.6617 17.142 14.7216 17.2158 14.7446 17.3027L15.2519 19.2184C15.2942 19.3784 15.445 19.4981 15.6296 19.5186L15.6653 19.5225C15.7919 19.5365 15.9191 19.5018 16.0148 19.4273C16.1104 19.3528 16.1652 19.2456 16.1652 19.1331V12.8962C16.1652 12.7119 16.335 12.5621 16.5438 12.5621C16.7525 12.5621 16.9224 12.7119 16.9224 12.8962V16.5761C16.9224 16.7928 17.1214 16.9686 17.3671 16.9686C17.6127 16.9686 17.8118 16.7928 17.8118 16.5761V15.5761C17.8118 15.3918 17.9815 15.242 18.1903 15.242C18.399 15.242 18.5689 15.3918 18.5689 15.5761V16.6208C18.5689 16.8376 18.768 17.0132 19.0136 17.0132C19.2592 17.0132 19.4583 16.8376 19.4583 16.6208V15.8872C19.4583 15.7031 19.6282 15.5532 19.8368 15.5532C20.0456 15.5532 20.2154 15.7031 20.2154 15.8872V16.8949C20.2154 17.1116 20.4145 17.2873 20.6601 17.2873C20.9057 17.2873 21.1048 17.1116 21.1048 16.8949V16.2574C21.1048 16.0731 21.2747 15.9232 21.4834 15.9232C21.6922 15.9232 21.8619 16.0731 21.8619 16.2573L21.8615 18.9089C21.8614 20.1084 21.4882 21.2741 20.7804 22.2938H16.21Z" fill="#457EFF" stroke="#457EFF" stroke-width="0.124784"/>
<path d="M16.2102 22.2938C15.8518 21.9573 14.7957 20.871 14.5632 19.5582C14.5615 19.5485 14.5594 19.5389 14.5569 19.5295L13.9688 17.3084C13.9492 17.2342 13.9591 17.1703 13.9967 17.1285C14.0342 17.0867 14.0986 17.0648 14.1846 17.0575C14.2278 17.054 14.2457 17.0495 14.2858 17.0473C14.3866 17.0419 14.4901 17.0477 14.576 17.0948C14.6619 17.1419 14.7218 17.2157 14.7448 17.3026L15.2521 19.2184C15.2944 19.3783 15.4452 19.4981 15.6298 19.5185L15.6655 19.5224C15.7921 19.5364 15.9193 19.5018 16.015 19.4273C16.1106 19.3528 16.1654 19.2456 16.1654 19.133V12.8961C16.1654 12.7118 16.3352 12.562 16.544 12.562C16.7527 12.562 16.9226 12.7118 16.9226 12.8961V16.5761C16.9226 16.7927 17.1216 16.9685 17.3673 16.9685C17.6129 16.9685 17.8119 16.7927 17.8119 16.5761V15.576C17.8119 15.3917 17.9817 15.2419 18.1905 15.2419C18.3992 15.2419 18.5691 15.3917 18.5691 15.576V16.6207C18.5691 16.8375 18.7682 17.0132 19.0138 17.0132C19.2594 17.0132 19.4585 16.8375 19.4585 16.6207V15.8872C19.4585 15.703 19.6284 15.5531 19.837 15.5531C20.0458 15.5531 20.2156 15.703 20.2156 15.8872V16.8948C20.2156 17.1115 20.4147 17.2873 20.6603 17.2873C20.9059 17.2873 21.105 17.1115 21.105 16.8948V16.2573C21.105 16.0731 21.2749 15.9231 21.4836 15.9231C21.6924 15.9231 21.8621 16.0731 21.8621 16.2572L21.8617 18.9088C21.8616 20.1083 21.4884 21.2741 20.7806 22.2938H16.2102Z" fill="white" stroke="#457EFF" stroke-width="0.124784"/>
</svg>
