<svg width="23" height="23" viewBox="0 0 23 23" fill="none" xmlns="http://www.w3.org/2000/svg">
<path fill-rule="evenodd" clip-rule="evenodd" d="M5.62863 0.85498H20.7726C21.6915 0.85498 22.4364 1.59988 22.4364 2.51877V17.1154C22.4364 18.0343 21.6915 18.7792 20.7726 18.7792H9.99607H5.62863C4.70975 18.7792 3.96484 18.0343 3.96484 17.1154V11.0837V2.51877C3.96484 1.59988 4.70975 0.85498 5.62863 0.85498Z" fill="#EAF5FE"/>
<path fill-rule="evenodd" clip-rule="evenodd" d="M5.62863 0.85498H20.7726C21.6915 0.85498 22.4364 1.59988 22.4364 2.51877V4.19412C22.4364 5.113 21.6915 5.85791 20.7726 5.85791H9.99607H5.62863C4.70975 5.85791 3.96484 5.113 3.96484 4.19412V3.70998V2.51877C3.96484 1.59988 4.70975 0.85498 5.62863 0.85498Z" fill="white"/>
<path fill-rule="evenodd" clip-rule="evenodd" d="M18.8794 4.08302L20.3316 2.6792L18.8794 4.08302Z" stroke="#457EFF" stroke-width="0.831893" stroke-linecap="round" stroke-linejoin="round"/>
<path fill-rule="evenodd" clip-rule="evenodd" d="M18.8793 2.6792L20.3315 4.08302L18.8793 2.6792Z" stroke="#457EFF" stroke-width="0.831893" stroke-linecap="round" stroke-linejoin="round"/>
<path d="M3.96484 12.5415V8.05607V2.51877C3.96484 1.59988 4.70975 0.85498 5.62863 0.85498H20.7726C21.6915 0.85498 22.4364 1.59988 22.4364 2.51877V17.1154C22.4364 18.0343 21.6915 18.7792 20.7726 18.7792H9.99607" stroke="#457EFF" stroke-width="0.831893" stroke-linecap="round"/>
<path d="M3.96484 12.5415V8.05607V2.51877C3.96484 1.59988 4.70975 0.85498 5.62863 0.85498H20.7726C21.6915 0.85498 22.4364 1.59988 22.4364 2.51877V17.1154C22.4364 18.0343 21.6915 18.7792 20.7726 18.7792H9.99607" stroke="#457EFF" stroke-width="0.831893" stroke-linecap="round"/>
<path d="M4.64111 5.8584H21.8716" stroke="#457EFF" stroke-width="0.831893" stroke-linecap="round"/>
<path d="M2.56825 20.2325L8.81543 13.9854" stroke="#457EFF" stroke-width="0.831893" stroke-linecap="round" stroke-linejoin="round"/>
<path d="M5.27702 13.4554L9.27711 13.5232L9.34491 17.5233" stroke="#457EFF" stroke-width="0.831893" stroke-linecap="round" stroke-linejoin="round"/>
</svg>
