<svg width="22" height="22" viewBox="0 0 22 22" fill="none" xmlns="http://www.w3.org/2000/svg">
<path fill-rule="evenodd" clip-rule="evenodd" d="M16.2647 0.881836C16.8607 0.881836 17.428 1.13748 17.8227 1.58391L20.5315 4.64723C20.8677 5.02742 21.0532 5.5174 21.0532 6.02489V13.7705C21.0532 14.1151 20.9136 14.4271 20.6877 14.6529C20.4619 14.8787 20.15 15.0184 19.8054 15.0184H9.19608C8.8515 15.0184 8.53954 14.8787 8.31373 14.6529C8.08791 14.4271 7.94824 14.1151 7.94824 13.7705V2.12968C7.94824 1.78509 8.08791 1.47313 8.31373 1.24732C8.53954 1.02151 8.8515 0.881836 9.19608 0.881836H16.2647Z" fill="#EAF5FE" stroke="#457EFF" stroke-width="0.831893"/>
<path d="M17.1353 1.12793V4.33262C17.1353 4.79206 17.5077 5.16451 17.9671 5.16451H21.004" stroke="#457EFF" stroke-width="0.831893"/>
<path fill-rule="evenodd" clip-rule="evenodd" d="M9.90985 6.44043C10.5058 6.44043 11.0731 6.69607 11.4678 7.1425L14.3367 10.3869C14.6729 10.7671 14.8584 11.257 14.8584 11.7645V19.9165C14.8584 20.2611 14.7188 20.5731 14.493 20.7989C14.2671 21.0247 13.9552 21.1644 13.6106 21.1644H2.45438C2.1098 21.1644 1.79784 21.0247 1.57203 20.7989C1.34621 20.5731 1.20654 20.2611 1.20654 19.9165V7.68827C1.20654 7.34369 1.34621 7.03173 1.57203 6.80591C1.79784 6.5801 2.1098 6.44043 2.45438 6.44043H9.90985Z" fill="white" stroke="#457EFF" stroke-width="0.831893"/>
<path d="M3.64795 15.4707H11.8137" stroke="#457EFF" stroke-width="0.831893" stroke-linecap="round"/>
<path d="M3.64795 17.9775H9.02876" stroke="#457EFF" stroke-width="0.831893" stroke-linecap="round"/>
<path d="M3.64795 12.9644H11.8137" stroke="#457EFF" stroke-width="0.831893" stroke-linecap="round"/>
<path d="M10.771 6.7124V10.0755C10.771 10.5349 11.1434 10.9074 11.6029 10.9074H14.7916" stroke="#457EFF" stroke-width="0.831893"/>
<path d="M15.0536 20.0951C16.7508 20.0951 18.1266 18.7192 18.1266 17.022L18.1266 16.5926" stroke="#457EFF" stroke-width="0.831893" stroke-linecap="round" stroke-linejoin="round"/>
<path d="M16.7588 17.604L18.1261 16.2823L19.4934 17.604" stroke="#457EFF" stroke-width="0.831893" stroke-linecap="round" stroke-linejoin="round"/>
<path d="M7.81606 1.47146C6.11886 1.47146 4.743 2.84732 4.743 4.54452L4.743 4.97392" stroke="#457EFF" stroke-width="0.831893" stroke-linecap="round" stroke-linejoin="round"/>
<path d="M6.11035 3.9624L4.74304 5.28414L3.37572 3.9624" stroke="#457EFF" stroke-width="0.831893" stroke-linecap="round" stroke-linejoin="round"/>
</svg>
