<svg width="101" height="81" viewBox="0 0 101 81" fill="none" xmlns="http://www.w3.org/2000/svg">
<g clip-path="url(#clip0_1003_3355)">
<path d="M53.4017 3.92773L96.5612 16.0117L53.4017 28.1853L11.561 16.0556L53.4017 3.92773Z" stroke="#457EFF" stroke-width="7" stroke-linecap="round" stroke-linejoin="round"/>
<path d="M11.6277 16.083C9.87727 16.4532 8.29889 17.3827 7.13647 18.7279C5.97399 20.0732 5.29213 21.7592 5.19628 23.5257C5.10038 25.2922 5.5958 27.0407 6.60594 28.5011C7.61608 29.9615 9.0848 31.0526 10.7851 31.6056L53.4036 43.8909L96.5612 31.7173" stroke="#457EFF" stroke-width="7" stroke-linecap="round" stroke-linejoin="round"/>
<path d="M11.6277 31.917C9.87807 32.2878 8.30055 33.2174 7.13879 34.5625C5.97698 35.9075 5.29559 37.593 5.19969 39.3589C5.10384 41.1248 5.59888 42.8727 6.60836 44.3329C7.61783 45.793 9.08564 46.8841 10.7852 47.4376L53.4036 59.7247L96.5613 47.551" stroke="#457EFF" stroke-width="7" stroke-linecap="round" stroke-linejoin="round"/>
<path d="M11.6277 47.9229C9.87807 48.2932 8.30055 49.2231 7.13879 50.568C5.97698 51.913 5.29559 53.5986 5.19969 55.3647C5.10384 57.1304 5.59888 58.8781 6.60836 60.3384C7.61783 61.7986 9.08564 62.8899 10.7852 63.4433L53.4036 75.7285L96.5613 63.5567" stroke="#457EFF" stroke-width="7" stroke-linecap="round" stroke-linejoin="round"/>
</g>
<defs>
<clipPath id="clip0_1003_3355">
<rect width="100" height="80" fill="white" transform="translate(0.422852 0.0332031)"/>
</clipPath>
</defs>
</svg>
