<svg width="44" height="10" viewBox="0 0 44 10" fill="none" xmlns="http://www.w3.org/2000/svg">
<g clip-path="url(#clip0_1065_797)">
<path d="M32.6297 2.82011C32.9716 2.82011 33.282 2.86359 33.5609 2.95057C33.8398 3.03754 34.0753 3.15001 34.2672 3.28797C34.3872 3.37194 34.4817 3.46492 34.5506 3.56689C34.6196 3.66886 34.6541 3.80082 34.6541 3.96277V7.11184L34.6526 7.19746C34.6427 7.47928 34.5832 7.72516 34.4742 7.9351C34.3542 8.16603 34.1907 8.35797 33.9838 8.51093C33.7769 8.66388 33.5339 8.77635 33.255 8.84833C32.9761 8.9203 32.6777 8.95629 32.3598 8.95629C31.8139 8.95629 31.3851 8.88282 31.0732 8.73586C30.7613 8.5889 30.6053 8.35047 30.6053 8.02057C30.6053 7.88261 30.6338 7.76115 30.6908 7.65618C30.7478 7.55121 30.8122 7.47173 30.8842 7.41775C31.0582 7.51372 31.2546 7.5947 31.4735 7.66068C31.6925 7.72666 31.9189 7.75965 32.1528 7.75965C32.4767 7.75965 32.7347 7.70566 32.9266 7.5977C33.1186 7.48973 33.2145 7.31578 33.2145 7.07585V6.93189L33.1461 6.96C32.9136 7.04923 32.6365 7.09384 32.3148 7.09384C32.0449 7.09384 31.7885 7.05336 31.5455 6.97238C31.3026 6.8914 31.0897 6.76544 30.9067 6.59449C30.7238 6.42354 30.5768 6.20311 30.4658 5.93319C30.3549 5.66327 30.2994 5.34236 30.2994 4.97047C30.2994 4.60458 30.3579 4.28667 30.4748 4.01675C30.5918 3.74683 30.7538 3.5234 30.9607 3.34645C31.1676 3.1695 31.4136 3.03754 31.6985 2.95057C31.9834 2.86359 32.2938 2.82011 32.6297 2.82011ZM8.41138 2.95978C8.94629 2.95978 9.384 3.07981 9.72452 3.31987C10.065 3.55992 10.2666 3.98394 10.3292 4.59191H9.18635L9.1754 4.52465C9.14952 4.39206 9.09968 4.27096 9.02587 4.16137C8.90063 3.98916 8.70623 3.90305 8.44269 3.90305C8.06695 3.90305 7.80993 4.08962 7.67164 4.46275C7.59858 4.66106 7.56205 4.9246 7.56205 5.25337C7.56205 5.56649 7.59858 5.81829 7.67164 6.00877C7.80471 6.36363 8.05521 6.54107 8.42312 6.54107C8.68405 6.54107 8.86931 6.47061 8.9789 6.32971C9.0885 6.18881 9.15503 6.00616 9.17852 5.78176H10.3175L10.3097 5.85971C10.272 6.17024 10.1519 6.4652 9.94957 6.74459C9.59992 7.23253 9.08197 7.47651 8.39572 7.47651C7.70947 7.47651 7.20457 7.27298 6.88102 6.86593C6.55746 6.45887 6.39568 5.93049 6.39568 5.28077C6.39568 4.54755 6.57442 3.97741 6.9319 3.57036C7.28937 3.16331 7.78253 2.95978 8.41138 2.95978ZM18.7774 2.94804C19.1322 2.94804 19.4519 3.01458 19.7363 3.14765C20.0207 3.28073 20.2555 3.49078 20.4408 3.7778C20.6078 4.03091 20.7161 4.32445 20.7657 4.65845C20.7944 4.85414 20.8061 5.13595 20.8009 5.50386H17.8811L17.8851 5.57805C17.9129 5.96665 18.046 6.24199 18.2842 6.40408C18.4382 6.51106 18.6234 6.56455 18.84 6.56455C19.0696 6.56455 19.2562 6.49932 19.3997 6.36885C19.478 6.2984 19.5471 6.20055 19.6071 6.0753H20.7461L20.7376 6.13378C20.6965 6.36797 20.5676 6.6055 20.3508 6.84636C19.9855 7.26124 19.4741 7.46868 18.8165 7.46868C18.2738 7.46868 17.795 7.29385 17.3801 6.94421C16.9652 6.59456 16.7578 6.02573 16.7578 5.23771C16.7578 4.49928 16.945 3.93306 17.3194 3.53905C17.6938 3.14504 18.1798 2.94804 18.7774 2.94804ZM26.6097 1.38053C26.7416 1.38053 26.8601 1.38953 26.9651 1.40752C27.07 1.42552 27.1585 1.46151 27.2305 1.51549C27.3025 1.56948 27.3579 1.64295 27.3969 1.73593C27.4359 1.8289 27.4554 1.95036 27.4554 2.10032V7.31878L27.4252 7.32419C27.3609 7.33558 27.2735 7.35027 27.163 7.36826C27.034 7.38926 26.9036 7.39975 26.7716 7.39975C26.6397 7.39975 26.5212 7.39076 26.4162 7.37276C26.3113 7.35477 26.2228 7.31878 26.1508 7.26479C26.0788 7.21081 26.0233 7.13733 25.9843 7.04436C25.9454 6.95139 25.9259 6.82992 25.9259 6.67997V1.46151L25.9561 1.45609C26.0203 1.44471 26.1077 1.43002 26.2183 1.41202C26.3472 1.39103 26.4777 1.38053 26.6097 1.38053ZM28.9089 2.93707C29.0409 2.93707 29.1593 2.94607 29.2643 2.96406C29.3693 2.98206 29.4577 3.01805 29.5297 3.07203C29.6017 3.12602 29.6572 3.19949 29.6962 3.29247C29.7351 3.38544 29.7546 3.5069 29.7546 3.65686V7.31878L29.7244 7.32419C29.6602 7.33558 29.5728 7.35027 29.4622 7.36826C29.3333 7.38926 29.2028 7.39975 29.0708 7.39975C28.9389 7.39975 28.8204 7.39076 28.7154 7.37276C28.6105 7.35477 28.522 7.31878 28.45 7.26479C28.378 7.21081 28.3226 7.13733 28.2836 7.04436C28.2446 6.95139 28.2251 6.82992 28.2251 6.67997V3.01805L28.2553 3.01263C28.3196 3.00125 28.407 2.98656 28.5175 2.96856C28.6465 2.94757 28.7769 2.93707 28.9089 2.93707ZM36.0716 1.38053C36.2036 1.38053 36.322 1.38953 36.427 1.40752C36.532 1.42552 36.6204 1.46151 36.6924 1.51549C36.7644 1.56948 36.8199 1.64295 36.8589 1.73593C36.8979 1.8289 36.9173 1.95036 36.9173 2.10032V2.98206L36.9485 2.9706C37.0256 2.94337 37.1337 2.9127 37.2727 2.87859C37.4317 2.8396 37.6071 2.82011 37.7991 2.82011C38.3929 2.82011 38.8563 2.96856 39.1892 3.26547C39.5221 3.56239 39.6885 4.00476 39.6885 4.59258V7.31878L39.6607 7.32649C39.6008 7.34191 39.5157 7.35734 39.4051 7.37276C39.2761 7.39076 39.1427 7.39975 39.0047 7.39975C38.8728 7.39975 38.7543 7.39076 38.6493 7.37276C38.5444 7.35477 38.4559 7.31878 38.3839 7.26479C38.3119 7.21081 38.2565 7.13733 38.2175 7.04436C38.1785 6.95139 38.159 6.82992 38.159 6.67997V4.68256L38.1579 4.62711C38.1492 4.41053 38.088 4.25657 37.9745 4.16521C37.8516 4.06624 37.7001 4.01675 37.5202 4.01675C37.4002 4.01675 37.2862 4.03175 37.1783 4.06174C37.0703 4.09173 36.9833 4.12772 36.9173 4.16971V7.31878L36.8895 7.32649C36.8297 7.34191 36.7445 7.35734 36.6339 7.37276C36.505 7.39076 36.3715 7.39975 36.2335 7.39975C36.1016 7.39975 35.9831 7.39076 35.8782 7.37276C35.7732 7.35477 35.6847 7.31878 35.6127 7.26479C35.5408 7.21081 35.4853 7.13733 35.4463 7.04436C35.4073 6.95139 35.3878 6.82992 35.3878 6.67997V1.46151L35.418 1.45609C35.4823 1.44471 35.5697 1.43002 35.6802 1.41202C35.8092 1.39103 35.9396 1.38053 36.0716 1.38053ZM25.3001 1.87539L25.3208 1.91025C25.3545 1.97148 25.3851 2.04833 25.4126 2.14081C25.4456 2.25177 25.4621 2.36724 25.4621 2.4872C25.4621 2.72114 25.4126 2.88759 25.3136 2.98656C25.2147 3.08553 25.0812 3.13501 24.9133 3.13501H23.0238V4.15171H24.9942L25.0176 4.18645C25.0555 4.24727 25.0882 4.32266 25.1157 4.41264C25.1487 4.5206 25.1652 4.63457 25.1652 4.75453C25.1652 4.98247 25.1157 5.14592 25.0167 5.24489C24.9178 5.34386 24.7843 5.39335 24.6163 5.39335H23.0418V7.29179L23.0112 7.2995C22.9455 7.31492 22.8522 7.33035 22.7314 7.34577C22.5904 7.36376 22.451 7.37276 22.313 7.37276C22.1751 7.37276 22.0536 7.36226 21.9486 7.34127C21.8437 7.32028 21.7552 7.28279 21.6832 7.2288C21.6112 7.17482 21.5572 7.09984 21.5213 7.00387C21.4853 6.9079 21.4673 6.78194 21.4673 6.62598V2.71214L21.4688 2.64878C21.4803 2.4206 21.5547 2.23778 21.6922 2.10032C21.8422 1.95036 22.0461 1.87539 22.304 1.87539H25.3001ZM4.15309 1.56641V2.58013H1.26066V3.90696H3.793V4.90894H1.26066V7.32778H0.0629883V1.56641H4.15309ZM5.78712 3.06155V7.32778H4.65598V3.06155H5.78712ZM11.9515 1.57815V4.68584L13.341 3.08112H14.7226L13.2314 4.71324L14.7813 7.32778H13.4349L12.4134 5.50386L11.9515 5.98528V7.32778H10.8556V1.57815H11.9515ZM16.2353 1.55858V7.32778H15.1198V1.55858H16.2353ZM39.7719 1.83838C39.9588 1.78216 40.2779 1.76965 40.6515 1.93486C41.0286 2.10163 41.2638 2.38769 41.3571 2.79304L43.3816 2.9651C43.4066 2.96655 43.4315 2.97163 43.4563 2.98033C43.4935 2.99339 43.5135 3.01176 43.5303 3.02614C43.5713 3.06139 43.5847 3.08857 43.6043 3.13725C43.6391 3.22381 43.6285 3.32569 43.5832 3.39554C43.51 3.50816 43.3956 3.58103 43.2398 3.61415L41.6055 3.96152L41.894 5.31876C41.9271 5.47456 42.0001 5.57491 42.113 5.6198C42.2259 5.6647 42.3722 5.66805 42.552 5.62984C42.6418 5.61073 42.7331 5.5835 42.8258 5.54814C42.9185 5.51278 42.9983 5.47547 43.0651 5.43622C43.133 5.49067 43.1951 5.5542 43.2512 5.62682C43.3073 5.69944 43.3475 5.79267 43.3717 5.90652C43.4612 6.32741 42.7987 6.72503 42.3645 6.80306C41.9624 6.87533 41.3453 6.93536 40.9925 6.01123C40.6398 5.0871 40.0857 3.53805 39.6628 2.24712C39.6263 2.13572 39.6037 2.0263 39.643 1.93601C39.6642 1.88721 39.6796 1.86614 39.7719 1.83838ZM32.7017 4.01675C32.4078 4.01675 32.1873 4.09923 32.0404 4.26418C31.8934 4.42913 31.8199 4.66456 31.8199 4.97047C31.8199 5.31837 31.8934 5.56879 32.0404 5.72175C32.1873 5.8747 32.3748 5.95118 32.6027 5.95118C32.8486 5.95118 33.0436 5.8942 33.1875 5.78023V4.12472L33.16 4.11033C33.1202 4.09113 33.0679 4.07194 33.0031 4.05274C32.9221 4.02875 32.8216 4.01675 32.7017 4.01675ZM18.7774 3.86782C18.519 3.86782 18.3188 3.94871 18.1766 4.11049C18.0344 4.27227 17.945 4.49145 17.9085 4.76804H19.6424C19.6241 4.47318 19.5347 4.24944 19.3742 4.09679C19.2138 3.94415 19.0148 3.86782 18.7774 3.86782ZM5.78712 1.52335V2.55273H4.65598V1.52335H5.78712ZM28.9899 0.930664C29.2418 0.930664 29.4442 1.00864 29.5972 1.16459C29.7501 1.32055 29.8266 1.51249 29.8266 1.74042C29.8266 1.96836 29.7501 2.1603 29.5972 2.31625C29.4442 2.47221 29.2418 2.55019 28.9899 2.55019C28.7379 2.55019 28.5355 2.47221 28.3825 2.31625C28.2296 2.1603 28.1531 1.96836 28.1531 1.74042C28.1531 1.51249 28.2296 1.32055 28.3825 1.16459C28.5355 1.00864 28.7379 0.930664 28.9899 0.930664Z" fill="url(#paint0_linear_1065_797)"/>
</g>
<defs>
<linearGradient id="paint0_linear_1065_797" x1="40.462" y1="4.84796" x2="0.463208" y2="8.91939" gradientUnits="userSpaceOnUse">
<stop stop-color="#299BD8"/>
<stop offset="1" stop-color="#1262AF"/>
</linearGradient>
<clipPath id="clip0_1065_797">
<rect width="43.6394" height="8.27643" fill="white" transform="translate(0.0639648 0.796875)"/>
</clipPath>
</defs>
</svg>
