<svg width="4" height="4" viewBox="0 0 4 4" fill="none" xmlns="http://www.w3.org/2000/svg">
<path d="M3.85482 1.774C3.80167 1.68815 3.70765 1.63692 3.60331 1.63692H3.34288V1.15919C3.34288 1.04388 3.2456 0.950101 3.12604 0.950101H1.85116C1.84929 0.950101 1.84803 0.949567 1.84752 0.949246L1.61936 0.630131C1.57889 0.573558 1.51217 0.539795 1.44085 0.539795H0.61137C0.491786 0.539795 0.394531 0.633604 0.394531 0.748888V3.04063C0.394531 3.15864 0.494163 3.25467 0.616659 3.25467H3.19707C3.23727 3.25467 3.27199 3.23145 3.28879 3.19777L3.28887 3.1978L3.86711 2.03643C3.90905 1.95227 3.90443 1.85416 3.85482 1.774ZM0.61137 0.744935H1.44085C1.44699 0.744935 1.45116 0.747633 1.45247 0.749476L1.68098 1.06904C1.71955 1.123 1.78318 1.15524 1.85116 1.15524H3.12604C3.1332 1.15524 3.13683 1.15861 3.13774 1.15981V1.63692H1.28141C1.16629 1.63692 1.06158 1.7018 1.01465 1.80223L0.599671 2.69029V0.749502C0.600579 0.7483 0.604212 0.744935 0.61137 0.744935ZM3.68347 1.945L3.13355 3.0495H0.658248L1.20051 1.8891C1.21365 1.86097 1.24618 1.84206 1.28141 1.84206H3.60331C3.63609 1.84206 3.66491 1.85699 3.6804 1.88199C3.68911 1.89607 3.69669 1.91843 3.68347 1.945Z" fill="#457EFF"/>
</svg>
