<svg width="5" height="4" viewBox="0 0 5 4" fill="none" xmlns="http://www.w3.org/2000/svg">
<path d="M4.16244 2.26959C4.10656 2.17935 4.00773 2.12549 3.89805 2.12549H3.62428V1.6233C3.62428 1.50208 3.52201 1.40349 3.39633 1.40349H2.05614C2.05418 1.40349 2.05286 1.40293 2.05232 1.40259L1.81247 1.06713C1.76993 1.00766 1.69979 0.972168 1.62482 0.972168H0.752849C0.627138 0.972168 0.524902 1.07078 0.524902 1.19197V3.60111C0.524902 3.72516 0.629637 3.8261 0.758408 3.8261H3.47099C3.51325 3.8261 3.54975 3.8017 3.56742 3.76629L3.5675 3.76632L4.17536 2.54547C4.21944 2.45699 4.21458 2.35386 4.16244 2.26959ZM0.752849 1.18782H1.62482C1.63128 1.18782 1.63566 1.19065 1.63703 1.19259L1.87725 1.52853C1.9178 1.58525 1.98468 1.61914 2.05614 1.61914H3.39633C3.40386 1.61914 3.40767 1.62268 3.40863 1.62394V2.12549H1.45721C1.33619 2.12549 1.22612 2.19369 1.17679 2.29927L0.74055 3.23282V1.19262C0.741505 1.19135 0.745324 1.18782 0.752849 1.18782ZM3.98231 2.44936L3.40422 3.61043H0.802128L1.37216 2.39059C1.38598 2.36102 1.42018 2.34114 1.45721 2.34114H3.89805C3.9325 2.34114 3.9628 2.35683 3.97908 2.38312C3.98824 2.39791 3.99621 2.42142 3.98231 2.44936Z" fill="#B5BCCC"/>
</svg>
