<svg width="236" height="155" viewBox="0 0 236 155" fill="none" xmlns="http://www.w3.org/2000/svg">
<path d="M77.361 129.245C94.9667 129.245 109.239 114.973 109.239 97.3668C109.239 79.7611 94.9667 65.4888 77.361 65.4888C59.7552 65.4888 45.4829 79.7611 45.4829 97.3668C45.4829 114.973 59.7552 129.245 77.361 129.245Z" fill="#457EFF"/>
<path d="M164.357 67.3675C174.325 67.3675 182.406 59.2865 182.406 49.318C182.406 39.3496 174.325 31.2686 164.357 31.2686C154.388 31.2686 146.307 39.3496 146.307 49.318C146.307 59.2865 154.388 67.3675 164.357 67.3675Z" fill="#457EFF"/>
<path d="M176.114 129.207C196.773 129.207 213.521 112.459 213.521 91.7996C213.521 71.1403 196.773 54.3926 176.114 54.3926C155.455 54.3926 138.707 71.1403 138.707 91.7996C138.707 112.459 155.455 129.207 176.114 129.207Z" fill="#457EFF"/>
<path d="M119.633 95.9955C144.751 95.9955 165.113 75.6336 165.113 50.5159C165.113 25.3983 144.751 5.03638 119.633 5.03638C94.5157 5.03638 74.1538 25.3983 74.1538 50.5159C74.1538 75.6336 94.5157 95.9955 119.633 95.9955Z" fill="#457EFF"/>
<path d="M179.112 129.206H78.2822L105.89 84.345H179.112V129.206Z" fill="#457EFF"/>
<path d="M72.8041 70.3311C84.7405 70.3311 94.4168 60.6548 94.4168 48.7184C94.4168 36.782 84.7405 27.1057 72.8041 27.1057C60.8677 27.1057 51.1914 36.782 51.1914 48.7184C51.1914 60.6548 60.8677 70.3311 72.8041 70.3311Z" fill="#ECF0F6"/>
<path d="M72.8043 69.374C84.212 69.374 93.4597 60.1263 93.4597 48.7186C93.4597 37.311 84.212 28.0632 72.8043 28.0632C61.3967 28.0632 52.1489 37.311 52.1489 48.7186C52.1489 60.1263 61.3967 69.374 72.8043 69.374Z" fill="#FFFEFE"/>
<path d="M60.7772 52.3339C63.5569 52.3339 65.8103 50.0806 65.8103 47.3009C65.8103 44.5212 63.5569 42.2678 60.7772 42.2678C57.9975 42.2678 55.7441 44.5212 55.7441 47.3009C55.7441 50.0806 57.9975 52.3339 60.7772 52.3339Z" fill="#454545"/>
<path d="M120.426 97.3168C119.941 105.946 111.566 110.675 101.886 110.131C92.2055 109.587 85.0552 103.14 85.3693 95.3469C85.9136 85.6662 93.7182 87.3003 103.399 87.8446C113.079 88.3888 120.97 87.6366 120.426 97.3168Z" fill="white"/>
<path d="M155.185 71.9862C170.892 71.9862 183.624 59.2537 183.624 43.5474C183.624 27.8411 170.892 15.1086 155.185 15.1086C139.479 15.1086 126.747 27.8411 126.747 43.5474C126.747 59.2537 139.479 71.9862 155.185 71.9862Z" fill="#ECF0F6"/>
<path d="M155.183 71.3107C170.517 71.3107 182.948 58.8796 182.948 43.545C182.948 28.2104 170.517 15.7793 155.183 15.7793C139.848 15.7793 127.417 28.2104 127.417 43.545C127.417 58.8796 139.848 71.3107 155.183 71.3107Z" fill="#FFFEFE"/>
<path d="M169.174 31.269C171.834 31.269 173.991 29.1123 173.991 26.4519C173.991 23.7915 171.834 21.6348 169.174 21.6348C166.514 21.6348 164.357 23.7915 164.357 26.4519C164.357 29.1123 166.514 31.269 169.174 31.269Z" fill="#454545"/>
<path d="M133.534 91.7995C137.91 91.7995 141.458 89.8269 141.458 87.3936C141.458 84.9604 137.91 82.9878 133.534 82.9878C129.159 82.9878 125.611 84.9604 125.611 87.3936C125.611 89.8269 129.159 91.7995 133.534 91.7995Z" fill="#FFC6C6"/>
<path fill-rule="evenodd" clip-rule="evenodd" d="M138.78 86.0798C139.028 86.1544 139.168 86.4157 139.094 86.6632L138.067 90.0725C137.992 90.3201 137.731 90.4605 137.484 90.3859C137.236 90.3113 137.096 90.0501 137.17 89.8026L138.197 86.3932C138.271 86.1457 138.532 86.0052 138.78 86.0798Z" fill="black"/>
<path fill-rule="evenodd" clip-rule="evenodd" d="M140.415 86.0798C140.662 86.1544 140.802 86.4157 140.728 86.6632L139.701 90.0725C139.627 90.3201 139.366 90.4605 139.118 90.3859C138.87 90.3113 138.73 90.0501 138.805 89.8026L139.831 86.3932C139.906 86.1457 140.167 86.0052 140.415 86.0798Z" fill="black"/>
<path fill-rule="evenodd" clip-rule="evenodd" d="M142.047 86.0798C142.295 86.1544 142.435 86.4157 142.361 86.6632L141.334 90.0725C141.26 90.3201 140.998 90.4605 140.751 90.3859C140.503 90.3113 140.363 90.0501 140.438 89.8026L141.464 86.3932C141.538 86.1457 141.8 86.0052 142.047 86.0798Z" fill="black"/>
<path d="M60.2406 85.6302C64.6055 85.9397 68.2834 84.2229 68.4555 81.7957C68.6275 79.3685 65.2286 77.15 60.8637 76.8406C56.4989 76.5311 52.821 78.2479 52.6489 80.6751C52.4768 83.1023 55.8757 85.3208 60.2406 85.6302Z" fill="#FFC6C6"/>
<path fill-rule="evenodd" clip-rule="evenodd" d="M54.7856 80.5646C55.0331 80.6392 55.1735 80.9004 55.0989 81.1479L54.0955 84.4811C54.0209 84.729 53.7596 84.8691 53.5121 84.7945C53.2646 84.7199 53.1241 84.459 53.1987 84.2115L54.2022 80.878C54.2768 80.6304 54.5381 80.4903 54.7856 80.5646Z" fill="black"/>
<path fill-rule="evenodd" clip-rule="evenodd" d="M56.3813 80.5646C56.6291 80.6392 56.7692 80.9004 56.6946 81.1479L55.6912 84.4811C55.6166 84.729 55.3553 84.8691 55.1078 84.7945C54.8603 84.7199 54.7198 84.459 54.7944 84.2115L55.7982 80.878C55.8725 80.6304 56.1338 80.4903 56.3813 80.5646Z" fill="black"/>
<path fill-rule="evenodd" clip-rule="evenodd" d="M57.9775 80.5646C58.225 80.6392 58.3652 80.9004 58.2909 81.1479L57.2871 84.4811C57.2128 84.729 56.9515 84.8691 56.704 84.7945C56.4562 84.7199 56.316 84.459 56.3906 84.2115L57.3941 80.878C57.4687 80.6304 57.7297 80.4903 57.9775 80.5646Z" fill="black"/>
<path d="M7.18322 68.6495C8.13172 68.0044 9.42359 68.2504 10.0687 69.1989L11.7097 71.5753C16.809 78.8376 21.0532 83.647 26.3727 87.3489C33.83 92.5383 45.8643 94.8752 50.8241 93.5973C51.9349 93.3111 53.0674 93.9796 53.3536 95.0904C53.6398 96.2012 52.9713 97.3337 51.8605 97.6199C45.7083 99.205 32.4335 96.6272 23.9999 90.7585C18.7467 87.1028 14.5688 82.5951 9.86513 76.1394L8.27556 73.9139L6.63388 71.535C5.98877 70.5865 6.23471 69.2946 7.18322 68.6495Z" fill="#404247"/>
<path d="M7.0246 70.3312C10.5684 70.3312 13.4413 67.4583 13.4413 63.9145C13.4413 60.3706 10.5684 57.4978 7.0246 57.4978C3.48076 57.4978 0.60791 60.3706 0.60791 63.9145C0.60791 67.4583 3.48076 70.3312 7.0246 70.3312Z" fill="#404247"/>
<path d="M228.596 49.9615C232.14 49.9615 235.013 47.0887 235.013 43.5449C235.013 40.001 232.14 37.1282 228.596 37.1282C225.053 37.1282 222.18 40.001 222.18 43.5449C222.18 47.0887 225.053 49.9615 228.596 49.9615Z" fill="#404247"/>
<path fill-rule="evenodd" clip-rule="evenodd" d="M155.459 77.0033C175.483 76.3057 188.179 61.3751 188.179 44.2122C188.179 24.956 173.215 10.0953 155.459 10.0953C137.703 10.0953 121.691 23.9812 121.691 41.7368C121.691 59.4924 135.796 77.6884 155.459 77.0033ZM154.747 82.6259C177.329 82.6259 195.636 64.3191 195.636 41.7368C195.636 19.1545 177.329 0.847656 154.747 0.847656C132.164 0.847656 113.857 19.1545 113.857 41.7368C113.857 64.3191 132.164 82.6259 154.747 82.6259Z" fill="#404247"/>
<path fill-rule="evenodd" clip-rule="evenodd" d="M72.9674 74.8363C86.6663 74.8363 97.9443 63.1534 97.9443 49.4548C97.9443 35.7559 87.6342 22.7884 72.1546 22.7884C55.1232 22.7884 46.6574 35.0986 46.6574 48.7972C46.6574 62.4958 59.2688 74.8363 72.9674 74.8363ZM72.9674 82.6806C90.9986 82.6806 105.615 68.0635 105.615 50.0326C105.615 32.0017 90.9986 17.3845 72.9674 17.3845C54.9365 17.3845 40.3193 32.0017 40.3193 50.0326C40.3193 68.0635 54.9365 82.6806 72.9674 82.6806Z" fill="#404247"/>
<path fill-rule="evenodd" clip-rule="evenodd" d="M109.292 38.2364C104.88 40.2756 103.928 46.446 105.577 50.0148C107.227 53.5837 111.457 55.1393 115.025 53.49C115.152 53.4317 115.239 53.3905 115.3 53.3611L115.307 53.3546C115.402 53.2656 115.551 53.1274 115.737 52.9613L120.452 58.2453C120.327 58.3567 120.24 58.4372 120.147 58.524C120.121 58.5477 120.096 58.5718 120.068 58.597C119.958 58.6997 119.756 58.8864 119.507 59.073C118.996 59.4563 118.461 59.7035 118.034 59.9008L117.997 59.918C110.878 63.2084 102.439 60.1046 99.1491 52.986C95.8587 45.867 98.9625 37.4287 106.081 34.1382C108.049 33.229 110.234 33.1135 111.217 33.1135L111.445 37.7614C111.184 37.7614 110.779 37.8198 110.338 37.8881C109.882 37.959 109.527 38.1278 109.292 38.2364Z" fill="#404247"/>
<path fill-rule="evenodd" clip-rule="evenodd" d="M36.8966 59.3133L40.0775 58.7505L39.0719 69.7398L50.3321 67.2384L51.2716 72.5489L33.9346 75.6162L36.8966 59.3133Z" fill="#404247"/>
<path d="M131.782 154.183C156.266 154.183 176.114 152.159 176.114 149.663C176.114 147.166 156.266 145.143 131.782 145.143C107.298 145.143 87.4502 147.166 87.4502 149.663C87.4502 152.159 107.298 154.183 131.782 154.183Z" fill="#C1C6CD"/>
<path d="M196.74 75.1123C196.74 75.1123 204.751 70.239 215.653 60.7638C226.554 51.2886 230.302 44.0847 230.302 44.0847" stroke="#404247" stroke-width="4" stroke-linecap="round"/>
</svg>
