<svg width="23" height="16" viewBox="0 0 23 16" fill="none" xmlns="http://www.w3.org/2000/svg">
<path d="M21.4506 0.705811H1.8341C1.22431 0.705811 0.72998 1.20014 0.72998 1.80993V14.4337C0.72998 15.0435 1.22431 15.5378 1.8341 15.5378H21.4506C22.0604 15.5378 22.5547 15.0435 22.5547 14.4337V1.80993C22.5547 1.20014 22.0604 0.705811 21.4506 0.705811Z" fill="white" stroke="#EEF3FC" stroke-width="0.257627"/>
<path fill-rule="evenodd" clip-rule="evenodd" d="M3.93055 2.41699H19.3545C19.8466 2.41699 20.0251 2.46824 20.205 2.56447C20.385 2.66069 20.5262 2.8019 20.6224 2.98183C20.7186 3.16176 20.7699 3.34024 20.7699 3.83241V12.4108C20.7699 12.903 20.7186 13.0814 20.6224 13.2614C20.5262 13.4413 20.385 13.5825 20.205 13.6787C20.0251 13.775 19.8466 13.8262 19.3545 13.8262H3.93055C3.43838 13.8262 3.25991 13.775 3.07998 13.6787C2.90005 13.5825 2.75884 13.4413 2.66261 13.2614C2.56638 13.0814 2.51514 12.903 2.51514 12.4108V3.83241C2.51514 3.34024 2.56638 3.16176 2.66261 2.98183C2.75884 2.8019 2.90005 2.66069 3.07998 2.56447C3.25991 2.46824 3.43838 2.41699 3.93055 2.41699Z" fill="#EBF0FB"/>
</svg>
