<svg width="227" height="165" viewBox="0 0 227 165" fill="none" xmlns="http://www.w3.org/2000/svg">
<path d="M108.947 164.015C131.775 164.015 150.281 162.128 150.281 159.8C150.281 157.473 131.775 155.586 108.947 155.586C86.119 155.586 67.6133 157.473 67.6133 159.8C67.6133 162.128 86.119 164.015 108.947 164.015Z" fill="#C1C6CD"/>
<path d="M163.837 124.408C181.249 124.408 195.364 110.293 195.364 92.8811C195.364 75.4695 181.249 61.3546 163.837 61.3546C146.425 61.3546 132.311 75.4695 132.311 92.8811C132.311 110.293 146.425 124.408 163.837 124.408Z" fill="#457EFF"/>
<path d="M153.67 77.9307C166.156 77.9307 176.278 67.8083 176.278 55.3217C176.278 42.8351 166.156 32.7128 153.67 32.7128C141.183 32.7128 131.061 42.8351 131.061 55.3217C131.061 67.8083 141.183 77.9307 153.67 77.9307Z" fill="#457EFF"/>
<path d="M75.4862 73.1721C85.3447 73.1721 93.3366 65.1802 93.3366 55.3216C93.3366 45.4631 85.3447 37.4712 75.4862 37.4712C65.6277 37.4712 57.6357 45.4631 57.6357 55.3216C57.6357 65.1802 65.6277 73.1721 75.4862 73.1721Z" fill="#457EFF"/>
<path d="M66.4436 124.369C86.8751 124.369 103.438 107.806 103.438 87.3749C103.438 66.9435 86.8751 50.3805 66.4436 50.3805C46.0122 50.3805 29.4492 66.9435 29.4492 87.3749C29.4492 107.806 46.0122 124.369 66.4436 124.369Z" fill="#457EFF"/>
<path d="M115.305 88.6546C138.561 88.6546 157.414 69.8021 157.414 46.5464C157.414 23.2907 138.561 4.43823 115.305 4.43823C92.0497 4.43823 73.1973 23.2907 73.1973 46.5464C73.1973 69.8021 92.0497 88.6546 115.305 88.6546Z" fill="#457EFF"/>
<path d="M161.607 124.37H61.8887L89.1925 80.0036H161.607V124.37Z" fill="#457EFF"/>
<path d="M92.0842 65.4459C106.245 65.4459 117.724 53.9665 117.724 39.806C117.724 25.6455 106.245 14.1661 92.0842 14.1661C77.9237 14.1661 66.4443 25.6455 66.4443 39.806C66.4443 53.9665 77.9237 65.4459 92.0842 65.4459Z" fill="#ECF0F6"/>
<path d="M92.0844 64.8385C105.91 64.8385 117.117 53.6308 117.117 39.8054C117.117 25.9801 105.91 14.7724 92.0844 14.7724C78.259 14.7724 67.0513 25.9801 67.0513 39.8054C67.0513 53.6308 78.259 64.8385 92.0844 64.8385Z" fill="#FFFEFE"/>
<path d="M80.0446 35.0811C83.1216 35.0811 85.616 32.5867 85.616 29.5097C85.616 26.4327 83.1216 23.9383 80.0446 23.9383C76.9676 23.9383 74.4731 26.4327 74.4731 29.5097C74.4731 32.5867 76.9676 35.0811 80.0446 35.0811Z" fill="#454545"/>
<path d="M167.846 64.8395C178.207 64.8395 186.607 56.4401 186.607 46.0789C186.607 35.7177 178.207 27.3183 167.846 27.3183C157.485 27.3183 149.085 35.7177 149.085 46.0789C149.085 56.4401 157.485 64.8395 167.846 64.8395Z" fill="#ECF0F6"/>
<path d="M167.843 64.393C177.959 64.393 186.16 56.1924 186.16 46.0764C186.16 35.9604 177.959 27.7597 167.843 27.7597C157.727 27.7597 149.526 35.9604 149.526 46.0764C149.526 56.1924 157.727 64.393 167.843 64.393Z" fill="#FFFEFE"/>
<path d="M178.87 56.9498C181.369 56.9498 183.396 54.9236 183.396 52.4242C183.396 49.9248 181.369 47.8986 178.87 47.8986C176.37 47.8986 174.344 49.9248 174.344 52.4242C174.344 54.9236 176.37 56.9498 178.87 56.9498Z" fill="#454545"/>
<path d="M167.996 85.0703C172.324 85.0703 175.832 83.1195 175.832 80.7131C175.832 78.3066 172.324 76.3558 167.996 76.3558C163.669 76.3558 160.161 78.3066 160.161 80.7131C160.161 83.1195 163.669 85.0703 167.996 85.0703Z" fill="#FFC6C6"/>
<path fill-rule="evenodd" clip-rule="evenodd" d="M173.175 79.4392C173.406 79.5087 173.537 79.752 173.468 79.9831L172.452 83.3548C172.383 83.5856 172.139 83.7162 171.909 83.6467C171.677 83.5774 171.547 83.3338 171.616 83.1031L172.631 79.7313C172.701 79.5003 172.944 79.3696 173.175 79.4392Z" fill="black"/>
<path fill-rule="evenodd" clip-rule="evenodd" d="M174.791 79.4392C175.022 79.5087 175.153 79.752 175.083 79.9831L174.068 83.3548C173.999 83.5856 173.755 83.7162 173.524 83.6467C173.293 83.5774 173.162 83.3338 173.232 83.1031L174.247 79.7313C174.317 79.5003 174.56 79.3696 174.791 79.4392Z" fill="black"/>
<path fill-rule="evenodd" clip-rule="evenodd" d="M176.405 79.4392C176.636 79.5087 176.767 79.752 176.697 79.9831L175.682 83.3548C175.613 83.5856 175.369 83.7162 175.138 83.6467C174.908 83.5774 174.777 83.3338 174.846 83.1031L175.862 79.7313C175.931 79.5003 176.174 79.3696 176.405 79.4392Z" fill="black"/>
<path d="M83.8464 85.027C88.1631 85.3331 91.8005 83.6353 91.9707 81.2348C92.1409 78.8344 88.7794 76.6404 84.4627 76.3344C80.1459 76.0283 76.5085 77.7261 76.3383 80.1266C76.1682 82.527 79.5296 84.721 83.8464 85.027Z" fill="#FFC6C6"/>
<path fill-rule="evenodd" clip-rule="evenodd" d="M78.4436 80.0443C78.6747 80.1136 78.8053 80.3572 78.7358 80.588L77.7434 83.8846C77.6739 84.1154 77.4303 84.2463 77.1995 84.1768C76.9687 84.1072 76.8378 83.8637 76.9073 83.6329L77.9 80.3365C77.9695 80.1055 78.2128 79.9748 78.4436 80.0443Z" fill="black"/>
<path fill-rule="evenodd" clip-rule="evenodd" d="M80.0212 80.0443C80.2523 80.1136 80.383 80.3572 80.3134 80.588L79.3211 83.8846C79.2515 84.1154 79.0079 84.2463 78.7772 84.1768C78.5464 84.1072 78.4154 83.8637 78.485 83.6329L79.4776 80.3365C79.5469 80.1055 79.7905 79.9748 80.0212 80.0443Z" fill="black"/>
<path fill-rule="evenodd" clip-rule="evenodd" d="M81.5994 80.0443C81.8302 80.1136 81.9611 80.3572 81.8916 80.588L80.8989 83.8846C80.8294 84.1154 80.5861 84.2463 80.3553 84.1768C80.1242 84.1072 79.9936 83.8637 80.0631 83.6329L81.0555 80.3365C81.125 80.1055 81.3686 79.9748 81.5994 80.0443Z" fill="black"/>
<path d="M184.08 102.428C183.888 103.6 184.519 104.559 185.49 104.57L185.893 104.58L188.984 104.769L190.856 104.848C194.96 104.955 197.403 104.497 201.905 102.819C208.956 100.191 213.615 96.3664 218.924 90.052C219.684 89.1479 219.787 87.8099 219.153 87.0635C218.52 86.3172 217.39 86.4451 216.629 87.3492C211.797 93.0967 207.721 96.4429 201.436 98.7857L200.594 99.093L199.057 99.6115C196.388 100.449 194.433 100.683 191.451 100.599L189.712 100.523L187.15 100.359L186.185 100.325C185.214 100.314 184.272 101.255 184.08 102.428Z" fill="#404247"/>
<path d="M8.33427 66.1127C9.297 65.8261 10.3098 66.3742 10.5964 67.3369L11.4824 70.2528C11.5728 70.5411 11.6609 70.8187 11.7473 71.0866L12.2491 72.5873C12.9829 74.6918 13.6589 76.1971 14.6407 77.9214L15.3446 79.1123C16.8612 81.5989 18.7018 83.8397 20.9425 85.8261C27.9645 92.0507 33.7309 94.327 40.6305 95.1728C41.6275 95.295 42.3367 96.2023 42.2145 97.1994C42.0923 98.1964 41.1849 98.9056 40.1879 98.7833C32.6058 97.8539 26.1544 95.3072 18.5295 88.5481C16.0093 86.314 13.9387 83.7931 12.2391 81.0064L11.837 80.3374L11.1152 79.0709C10.2177 77.4267 9.55665 75.9107 8.85856 73.918L8.32378 72.3246L7.43952 69.4754C7.33312 69.1223 7.22348 68.7558 7.11006 68.3748C6.82344 67.4121 7.37154 66.3993 8.33427 66.1127Z" fill="#404247"/>
<path d="M11.9001 69.0824C14.9218 67.3069 15.9321 63.4179 14.1565 60.3962C12.381 57.3745 8.49207 56.3642 5.47035 58.1397C2.44862 59.9153 1.43837 63.8042 3.21389 66.8259C4.98941 69.8477 8.87835 70.8579 11.9001 69.0824Z" fill="#404247"/>
<path d="M220.35 77.8848C223.835 78.2332 226.378 81.341 226.03 84.8263C225.681 88.3116 222.573 90.8546 219.088 90.5062C215.603 90.1578 213.06 87.05 213.408 83.5647C213.757 80.0794 216.864 77.5364 220.35 77.8848Z" fill="#404247"/>
<path fill-rule="evenodd" clip-rule="evenodd" d="M92.3877 71.8588C111.057 71.2081 122.896 57.2876 122.896 41.2851C122.896 23.3314 108.942 9.47578 92.3877 9.47578C75.8326 9.47578 60.9034 22.4223 60.9034 38.9774C60.9034 55.5322 74.0547 72.4976 92.3877 71.8588ZM91.723 77.1012C112.778 77.1012 129.847 60.0325 129.847 38.9774C129.847 17.922 112.778 0.853516 91.723 0.853516C70.6679 0.853516 53.5991 17.922 53.5991 38.9774C53.5991 60.0325 70.6679 77.1012 91.723 77.1012Z" fill="#404247"/>
<path fill-rule="evenodd" clip-rule="evenodd" d="M166.7 68.7966C178.897 68.7966 188.939 58.3945 188.939 46.1973C188.939 33.9999 179.759 22.4541 165.977 22.4541C150.812 22.4541 143.274 33.4147 143.274 45.6118C143.274 57.8089 154.503 68.7966 166.7 68.7966ZM166.7 75.781C182.755 75.781 195.769 62.7661 195.769 46.7116C195.769 30.6573 182.755 17.6424 166.7 17.6424C150.646 17.6424 137.631 30.6573 137.631 46.7116C137.631 62.7661 150.646 75.781 166.7 75.781Z" fill="#404247"/>
<path fill-rule="evenodd" clip-rule="evenodd" d="M134.198 34.5091C129.893 36.4988 128.963 42.5208 130.573 46.0034C132.183 49.486 136.311 51.0046 139.794 49.395C139.917 49.3379 140.002 49.2978 140.062 49.2692L140.068 49.2628C140.162 49.1758 140.307 49.0408 140.488 48.879L145.089 54.0355C144.967 54.1444 144.883 54.2229 144.792 54.3076C144.767 54.3306 144.742 54.3542 144.715 54.3789C144.607 54.479 144.411 54.6612 144.167 54.8434C143.668 55.2173 143.146 55.4586 142.729 55.6512L142.693 55.6678C135.746 58.8789 127.511 55.85 124.3 48.9028C121.089 41.9557 124.118 33.7208 131.065 30.5097C132.985 29.6224 135.118 29.5097 136.077 29.5097L136.299 34.0455C136.045 34.0455 135.649 34.1023 135.219 34.1692C134.774 34.2382 134.427 34.4032 134.198 34.5091Z" fill="#404247"/>
<path fill-rule="evenodd" clip-rule="evenodd" d="M45.7596 39.478H49.9429L46.181 53.2656L61.1055 52.6163V59.6007H38.3037L45.7596 39.478Z" fill="#404247"/>
<path d="M142.802 86.5017C142.802 91.7097 136.135 95.9316 127.91 95.9316C119.685 95.9316 113.018 91.7097 113.018 86.5017C113.018 81.2938 119.685 81.4799 127.91 81.4799C136.135 81.4799 142.802 81.2938 142.802 86.5017Z" fill="white"/>
</svg>
