<svg width="29" height="22" viewBox="0 0 29 22" fill="none" xmlns="http://www.w3.org/2000/svg">
<path d="M8.93629 17.9854C11.3103 17.9854 13.2349 16.0608 13.2349 13.6868C13.2349 11.3127 11.3103 9.38818 8.93629 9.38818C6.56224 9.38818 4.6377 11.3127 4.6377 13.6868C4.6377 16.0608 6.56224 17.9854 8.93629 17.9854Z" fill="#457EFF"/>
<path d="M20.6673 9.64169C22.0115 9.64169 23.1012 8.552 23.1012 7.20781C23.1012 5.86361 22.0115 4.77393 20.6673 4.77393C19.3231 4.77393 18.2334 5.86361 18.2334 7.20781C18.2334 8.552 19.3231 9.64169 20.6673 9.64169Z" fill="#457EFF"/>
<path d="M22.2526 17.9804C25.0385 17.9804 27.2968 15.7221 27.2968 12.9362C27.2968 10.1504 25.0385 7.89209 22.2526 7.89209C19.4668 7.89209 17.2085 10.1504 17.2085 12.9362C17.2085 15.7221 19.4668 17.9804 22.2526 17.9804Z" fill="#457EFF"/>
<path d="M14.6366 13.5017C18.0236 13.5017 20.7693 10.756 20.7693 7.36902C20.7693 3.98203 18.0236 1.23633 14.6366 1.23633C11.2496 1.23633 8.50391 3.98203 8.50391 7.36902C8.50391 10.756 11.2496 13.5017 14.6366 13.5017Z" fill="#457EFF"/>
<path d="M22.657 17.9802H9.06055L12.7834 11.9309H22.657V17.9802Z" fill="#457EFF"/>
<path d="M8.32208 10.0411C9.93164 10.0411 11.2364 8.73632 11.2364 7.12677C11.2364 5.51721 9.93164 4.2124 8.32208 4.2124C6.71252 4.2124 5.40771 5.51721 5.40771 7.12677C5.40771 8.73632 6.71252 10.0411 8.32208 10.0411Z" fill="#ECF0F6"/>
<path d="M8.3219 9.91211C9.86017 9.91211 11.1072 8.6651 11.1072 7.12683C11.1072 5.58856 9.86017 4.34155 8.3219 4.34155C6.78363 4.34155 5.53662 5.58856 5.53662 7.12683C5.53662 8.6651 6.78363 9.91211 8.3219 9.91211Z" fill="#FFFEFE"/>
<path d="M6.70017 7.61445C7.07499 7.61445 7.37885 7.31059 7.37885 6.93576C7.37885 6.56094 7.07499 6.25708 6.70017 6.25708C6.32534 6.25708 6.02148 6.56094 6.02148 6.93576C6.02148 7.31059 6.32534 7.61445 6.70017 7.61445Z" fill="#454545"/>
<path d="M14.7436 13.6799C14.6783 14.8436 13.549 15.4812 12.2437 15.4079C10.9383 15.3345 9.97412 14.4651 10.0165 13.4143C10.0899 12.1089 11.1423 12.3292 12.4477 12.4026C13.753 12.476 14.817 12.3746 14.7436 13.6799Z" fill="white"/>
<path d="M19.4305 10.2644C21.5484 10.2644 23.2654 8.54747 23.2654 6.42955C23.2654 4.31164 21.5484 2.59473 19.4305 2.59473C17.3126 2.59473 15.5957 4.31164 15.5957 6.42955C15.5957 8.54747 17.3126 10.2644 19.4305 10.2644Z" fill="#ECF0F6"/>
<path d="M19.4301 10.1732C21.4979 10.1732 23.1742 8.49692 23.1742 6.42913C23.1742 4.36134 21.4979 2.68506 19.4301 2.68506C17.3623 2.68506 15.686 4.36134 15.686 6.42913C15.686 8.49692 17.3623 10.1732 19.4301 10.1732Z" fill="#FFFEFE"/>
<path d="M21.317 4.77399C21.6758 4.77399 21.9666 4.48317 21.9666 4.12442C21.9666 3.76567 21.6758 3.47485 21.317 3.47485C20.9583 3.47485 20.6675 3.76567 20.6675 4.12442C20.6675 4.48317 20.9583 4.77399 21.317 4.77399Z" fill="#454545"/>
<path d="M16.5113 12.9363C17.1013 12.9363 17.5797 12.6703 17.5797 12.3422C17.5797 12.014 17.1013 11.748 16.5113 11.748C15.9212 11.748 15.4429 12.014 15.4429 12.3422C15.4429 12.6703 15.9212 12.9363 16.5113 12.9363Z" fill="#FFC6C6"/>
<path fill-rule="evenodd" clip-rule="evenodd" d="M17.2188 12.1651C17.2522 12.1751 17.2711 12.2103 17.2611 12.2437L17.1226 12.7034C17.1126 12.7368 17.0774 12.7558 17.044 12.7457C17.0106 12.7356 16.9917 12.7004 17.0017 12.667L17.1401 12.2073C17.1502 12.1739 17.1854 12.155 17.2188 12.1651Z" fill="black"/>
<path fill-rule="evenodd" clip-rule="evenodd" d="M17.439 12.1651C17.4724 12.1751 17.4913 12.2103 17.4813 12.2437L17.3428 12.7034C17.3328 12.7368 17.2976 12.7558 17.2642 12.7457C17.2308 12.7356 17.2119 12.7004 17.2219 12.667L17.3604 12.2073C17.3704 12.1739 17.4056 12.155 17.439 12.1651Z" fill="black"/>
<path fill-rule="evenodd" clip-rule="evenodd" d="M17.6592 12.1651C17.6926 12.1751 17.7115 12.2103 17.7015 12.2437L17.563 12.7034C17.553 12.7368 17.5178 12.7558 17.4844 12.7457C17.451 12.7356 17.4321 12.7004 17.4422 12.667L17.5805 12.2073C17.5906 12.1739 17.6258 12.155 17.6592 12.1651Z" fill="black"/>
<path d="M6.62769 12.1041C7.21627 12.1458 7.71222 11.9143 7.73542 11.587C7.75862 11.2597 7.3003 10.9605 6.71172 10.9188C6.12313 10.8771 5.62719 11.1086 5.60398 11.4359C5.58078 11.7632 6.03911 12.0623 6.62769 12.1041Z" fill="#FFC6C6"/>
<path fill-rule="evenodd" clip-rule="evenodd" d="M5.89246 11.4211C5.92583 11.4312 5.94477 11.4664 5.93472 11.4998L5.7994 11.9493C5.78934 11.9827 5.75411 12.0016 5.72074 11.9915C5.68736 11.9815 5.66842 11.9463 5.67848 11.9129L5.81379 11.4634C5.82385 11.43 5.85908 11.4111 5.89246 11.4211Z" fill="black"/>
<path fill-rule="evenodd" clip-rule="evenodd" d="M6.1073 11.4211C6.14072 11.4312 6.15962 11.4664 6.14956 11.4998L6.01424 11.9493C6.00418 11.9827 5.96896 12.0016 5.93558 11.9915C5.9022 11.9815 5.88326 11.9463 5.89332 11.9129L6.02868 11.4634C6.0387 11.43 6.07393 11.4111 6.1073 11.4211Z" fill="black"/>
<path fill-rule="evenodd" clip-rule="evenodd" d="M6.32264 11.4211C6.35601 11.4312 6.37491 11.4664 6.36489 11.4998L6.22954 11.9493C6.21952 11.9827 6.18429 12.0016 6.15092 11.9915C6.1175 11.9815 6.0986 11.9463 6.10866 11.9129L6.24397 11.4634C6.25403 11.43 6.28922 11.4111 6.32264 11.4211Z" fill="black"/>
<path d="M24.4245 13.7094C25.4216 13.6109 26.2221 13.3043 26.9412 12.4442C27.685 11.5544 28.0024 10.1339 27.9225 9.09431C27.9096 8.9261 27.7742 8.80117 27.62 8.81527C27.4659 8.82937 27.3514 8.97716 27.3643 9.14537C27.4323 10.03 27.1519 11.2852 26.5274 12.0322C25.9233 12.7547 25.2449 13.0146 24.374 13.1006C24.2199 13.1159 24.1063 13.2645 24.1203 13.4326C24.133 13.5854 24.2467 13.7018 24.383 13.7102L24.4245 13.7094Z" fill="#404247"/>
<path d="M1.6242 7.0771C1.77785 7.05922 1.91689 7.16929 1.93476 7.32293L1.98249 7.70942C2.13845 8.89579 2.34538 9.73562 2.74999 10.5102C3.31721 11.5961 4.60957 12.6269 5.28214 12.7838C5.43277 12.819 5.52638 12.9696 5.49122 13.1202C5.45607 13.2709 5.30545 13.3645 5.15482 13.3293C4.32056 13.1346 2.89497 11.9976 2.2535 10.7696C1.85394 10.0046 1.63608 9.205 1.47704 8.13973L1.42603 7.77448L1.37837 7.38766C1.36049 7.23401 1.47056 7.09497 1.6242 7.0771Z" fill="#404247"/>
<path d="M1.58791 8.13896C2.06578 8.13896 2.45317 7.75157 2.45317 7.2737C2.45317 6.79584 2.06578 6.40845 1.58791 6.40845C1.11005 6.40845 0.722656 6.79584 0.722656 7.2737C0.722656 7.75157 1.11005 8.13896 1.58791 8.13896Z" fill="#404247"/>
<path d="M27.9346 9.34477C28.4125 9.34477 28.7999 8.95738 28.7999 8.47952C28.7999 8.00165 28.4125 7.61426 27.9346 7.61426C27.4567 7.61426 27.0693 8.00165 27.0693 8.47952C27.0693 8.95738 27.4567 9.34477 27.9346 9.34477Z" fill="#404247"/>
<path fill-rule="evenodd" clip-rule="evenodd" d="M19.4677 10.9408C22.1678 10.8468 23.8798 8.83346 23.8798 6.51913C23.8798 3.92251 21.8619 1.91863 19.4677 1.91863C17.0734 1.91863 14.9143 3.79107 14.9143 6.18532C14.9143 8.57958 16.8163 11.0332 19.4677 10.9408ZM19.3716 11.699C22.4167 11.699 24.8853 9.23044 24.8853 6.18532C24.8853 3.14021 22.4167 0.671631 19.3716 0.671631C16.3264 0.671631 13.8579 3.14021 13.8579 6.18532C13.8579 9.23044 16.3264 11.699 19.3716 11.699Z" fill="#404247"/>
<path fill-rule="evenodd" clip-rule="evenodd" d="M8.34383 10.6487C10.1911 10.6487 11.7119 9.07332 11.7119 7.22613C11.7119 5.37891 10.3216 3.63029 8.23424 3.63029C5.93763 3.63029 4.79606 5.29027 4.79606 7.13745C4.79606 8.98464 6.49665 10.6487 8.34383 10.6487ZM8.34383 11.7065C10.7753 11.7065 12.7463 9.73542 12.7463 7.30404C12.7463 4.87266 10.7753 2.90161 8.34383 2.90161C5.91246 2.90161 3.94141 4.87266 3.94141 7.30404C3.94141 9.73542 5.91246 11.7065 8.34383 11.7065Z" fill="#404247"/>
<path fill-rule="evenodd" clip-rule="evenodd" d="M13.2421 5.71351C12.6472 5.98847 12.5188 6.82052 12.7412 7.30176C12.9636 7.783 13.534 7.99277 14.0152 7.77038C14.0323 7.76251 14.0441 7.75695 14.0523 7.75299L14.0532 7.75211C14.0661 7.74011 14.0862 7.72147 14.1112 7.69908L14.747 8.4116C14.7301 8.42662 14.7184 8.43748 14.7059 8.44918C14.7024 8.45238 14.6989 8.45562 14.6953 8.45903C14.6803 8.47288 14.6532 8.49805 14.6196 8.52322C14.5507 8.5749 14.4785 8.60823 14.4209 8.63483L14.4159 8.63715C13.4559 9.08085 12.3181 8.66232 11.8744 7.7024C11.4307 6.74245 11.8492 5.60458 12.8092 5.16088C13.0745 5.03828 13.3692 5.02271 13.5017 5.02271L13.5324 5.64945C13.4973 5.64945 13.4426 5.65732 13.3832 5.66653C13.3217 5.67609 13.2738 5.69886 13.2421 5.71351Z" fill="#404247"/>
<path fill-rule="evenodd" clip-rule="evenodd" d="M3.47999 8.55562L3.90891 8.47974L3.7733 9.96159L5.29169 9.62429L5.41838 10.3404L3.08057 10.754L3.47999 8.55562Z" fill="#404247"/>
<path d="M16.2748 21.3482C19.5763 21.3482 22.2527 21.0753 22.2527 20.7387C22.2527 20.402 19.5763 20.1292 16.2748 20.1292C12.9733 20.1292 10.2969 20.402 10.2969 20.7387C10.2969 21.0753 12.9733 21.3482 16.2748 21.3482Z" fill="#C1C6CD"/>
</svg>
