<svg width="5" height="5" viewBox="0 0 5 5" fill="none" xmlns="http://www.w3.org/2000/svg">
<path d="M2.7263 4.97872C3.94588 4.97872 4.93454 3.99006 4.93454 2.77049C4.93454 1.55092 3.94588 0.562256 2.7263 0.562256C1.50673 0.562256 0.518066 1.55092 0.518066 2.77049C0.518066 3.99006 1.50673 4.97872 2.7263 4.97872Z" fill="#EAECF1"/>
<path d="M1.85873 2.26832C1.92163 2.20928 2.01926 2.20272 2.08987 2.24864L2.11496 2.26832L2.72535 2.84161L3.33656 2.26832C3.39945 2.20928 3.49708 2.20272 3.5677 2.24864L3.59279 2.26832C3.65569 2.32735 3.66267 2.41899 3.61376 2.48527L3.59279 2.50882L2.72576 3.32262L1.85873 2.50882C1.78797 2.44241 1.78797 2.33473 1.85873 2.26832Z" fill="#BBC3D4"/>
</svg>
