<svg width="216" height="161" viewBox="0 0 216 161" fill="none" xmlns="http://www.w3.org/2000/svg">
<path d="M64.2305 134.58C82.5643 134.58 97.4268 119.718 97.4268 101.384C97.4268 83.05 82.5643 68.1875 64.2305 68.1875C45.8967 68.1875 31.0342 83.05 31.0342 101.384C31.0342 119.718 45.8967 134.58 64.2305 134.58Z" fill="#457EFF"/>
<path d="M154.823 70.144C165.204 70.144 173.619 61.7288 173.619 51.3481C173.619 40.9674 165.204 32.5522 154.823 32.5522C144.443 32.5522 136.027 40.9674 136.027 51.3481C136.027 61.7288 144.443 70.144 154.823 70.144Z" fill="#457EFF"/>
<path d="M167.067 134.54C188.581 134.54 206.021 117.1 206.021 95.5863C206.021 74.0726 188.581 56.6323 167.067 56.6323C145.554 56.6323 128.113 74.0726 128.113 95.5863C128.113 117.1 145.554 134.54 167.067 134.54Z" fill="#457EFF"/>
<path d="M108.25 99.9554C134.406 99.9554 155.61 78.7515 155.61 52.5951C155.61 26.4388 134.406 5.23486 108.25 5.23486C82.0936 5.23486 60.8896 26.4388 60.8896 52.5951C60.8896 78.7515 82.0936 99.9554 108.25 99.9554Z" fill="#457EFF"/>
<path d="M170.188 134.54H65.1885L93.9383 87.8232H170.188V134.54Z" fill="#457EFF"/>
<path d="M59.485 73.2297C71.9149 73.2297 81.9914 63.1532 81.9914 50.7232C81.9914 38.2933 71.9149 28.2168 59.485 28.2168C47.055 28.2168 36.9785 38.2933 36.9785 50.7232C36.9785 63.1532 47.055 73.2297 59.485 73.2297Z" fill="#ECF0F6"/>
<path d="M59.4852 72.233C71.3646 72.233 80.9947 62.6028 80.9947 50.7234C80.9947 38.844 71.3646 29.2139 59.4852 29.2139C47.6058 29.2139 37.9756 38.844 37.9756 50.7234C37.9756 62.6028 47.6058 72.233 59.4852 72.233Z" fill="#FFFEFE"/>
<path d="M65.1885 43.4531C68.0831 43.4531 70.4297 41.1065 70.4297 38.2119C70.4297 35.3173 68.0831 32.9707 65.1885 32.9707C62.2938 32.9707 59.9473 35.3173 59.9473 38.2119C59.9473 41.1065 62.2938 43.4531 65.1885 43.4531Z" fill="#454545"/>
<path d="M91.8074 96.9918C91.487 102.697 85.9503 105.823 79.5504 105.464C73.1502 105.104 68.4229 100.841 68.6306 95.6894C68.9904 89.2891 74.1503 90.3695 80.5506 90.7293C86.9505 91.0892 92.1673 90.5918 91.8074 96.9918Z" fill="white"/>
<path d="M145.272 74.9532C161.628 74.9532 174.887 61.6942 174.887 45.3384C174.887 28.9826 161.628 15.7236 145.272 15.7236C128.916 15.7236 115.657 28.9826 115.657 45.3384C115.657 61.6942 128.916 74.9532 145.272 74.9532Z" fill="#ECF0F6"/>
<path d="M145.269 74.2497C161.238 74.2497 174.183 61.3045 174.183 45.3358C174.183 29.3671 161.238 16.4219 145.269 16.4219C129.301 16.4219 116.355 29.3671 116.355 45.3358C116.355 61.3045 129.301 74.2497 145.269 74.2497Z" fill="#FFFEFE"/>
<path d="M145.272 53.5507C148.043 53.5507 150.289 51.3049 150.289 48.5344C150.289 45.764 148.043 43.5181 145.272 43.5181C142.502 43.5181 140.256 45.764 140.256 48.5344C140.256 51.3049 142.502 53.5507 145.272 53.5507Z" fill="#454545"/>
<path d="M107.734 93.7596C112.291 93.7596 115.985 91.7054 115.985 89.1715C115.985 86.6376 112.291 84.5835 107.734 84.5835C103.177 84.5835 99.4834 86.6376 99.4834 89.1715C99.4834 91.7054 103.177 93.7596 107.734 93.7596Z" fill="#FFC6C6"/>
<path fill-rule="evenodd" clip-rule="evenodd" d="M113.197 87.8036C113.455 87.8812 113.601 88.1533 113.524 88.411L112.455 91.9614C112.377 92.2191 112.105 92.3654 111.847 92.2877C111.589 92.21 111.443 91.938 111.521 91.6802L112.59 88.1299C112.667 87.8721 112.939 87.7259 113.197 87.8036Z" fill="black"/>
<path fill-rule="evenodd" clip-rule="evenodd" d="M114.898 87.8036C115.156 87.8812 115.302 88.1533 115.225 88.411L114.156 91.9614C114.078 92.2191 113.806 92.3654 113.548 92.2877C113.29 92.21 113.145 91.938 113.222 91.6802L114.291 88.1299C114.369 87.8721 114.641 87.7259 114.898 87.8036Z" fill="black"/>
<path fill-rule="evenodd" clip-rule="evenodd" d="M116.598 87.8036C116.856 87.8812 117.002 88.1533 116.925 88.411L115.856 91.9614C115.778 92.2191 115.506 92.3654 115.249 92.2877C114.99 92.21 114.845 91.938 114.922 91.6802L115.991 88.1299C116.069 87.8721 116.341 87.7259 116.598 87.8036Z" fill="black"/>
<path d="M46.4015 89.1614C50.9469 89.4837 54.7769 87.6959 54.9561 85.1683C55.1353 82.6408 51.5958 80.3305 47.0504 80.0083C42.5051 79.686 38.675 81.4738 38.4958 84.0014C38.3167 86.5289 41.8561 88.8392 46.4015 89.1614Z" fill="#FFC6C6"/>
<path fill-rule="evenodd" clip-rule="evenodd" d="M40.7212 83.8864C40.9789 83.9641 41.1252 84.2362 41.0475 84.4939L40.0025 87.965C39.9248 88.223 39.6528 88.369 39.395 88.2913C39.1373 88.2136 38.991 87.9419 39.0687 87.6841L40.1137 84.2128C40.1914 83.955 40.4634 83.8091 40.7212 83.8864Z" fill="black"/>
<path fill-rule="evenodd" clip-rule="evenodd" d="M42.3833 83.8864C42.6413 83.9641 42.7873 84.2362 42.7096 84.4939L41.6646 87.965C41.5869 88.223 41.3149 88.369 41.0571 88.2913C40.7994 88.2136 40.6531 87.9419 40.7308 87.6841L41.7761 84.2128C41.8535 83.955 42.1255 83.8091 42.3833 83.8864Z" fill="black"/>
<path fill-rule="evenodd" clip-rule="evenodd" d="M44.0444 83.8864C44.3022 83.9641 44.4481 84.2362 44.3708 84.4939L43.3255 87.965C43.2481 88.223 42.976 88.369 42.7183 88.2913C42.4602 88.2136 42.3143 87.9419 42.392 87.6841L43.4369 84.2128C43.5146 83.955 43.7864 83.8091 44.0444 83.8864Z" fill="black"/>
<path d="M183.839 101.569C191.539 102.267 197.721 104.436 203.274 110.523C209.018 116.819 211.469 126.872 210.852 134.228C210.753 135.419 209.707 136.303 208.516 136.203C207.326 136.103 206.442 135.058 206.542 133.867C207.067 127.607 204.901 118.725 200.079 113.439C195.414 108.326 190.174 106.487 183.448 105.878C182.259 105.77 181.382 104.718 181.489 103.528C181.587 102.447 182.465 101.624 183.518 101.564L183.839 101.569Z" fill="#404247"/>
<path d="M7.76181 50.3394C8.94833 50.2014 10.0221 51.0514 10.1601 52.2379L10.5287 55.2226C11.7331 64.3845 13.3312 70.8701 16.4558 76.852C20.8363 85.2378 30.8166 93.1979 36.0106 94.4102C37.1739 94.6817 37.8968 95.8449 37.6252 97.0081C37.3537 98.1714 36.1906 98.8943 35.0274 98.6228C28.5847 97.119 17.5755 88.3384 12.6216 78.8548C9.53594 72.9475 7.85356 66.7723 6.6253 58.5456L6.2314 55.725L5.86332 52.7377C5.7253 51.5512 6.57528 50.4774 7.76181 50.3394Z" fill="#404247"/>
<path d="M7.47989 58.5389C11.1703 58.5389 14.1619 55.5472 14.1619 51.8568C14.1619 48.1665 11.1703 45.1748 7.47989 45.1748C3.7895 45.1748 0.797852 48.1665 0.797852 51.8568C0.797852 55.5472 3.7895 58.5389 7.47989 58.5389Z" fill="#404247"/>
<path d="M208.761 142.731C212.452 142.731 215.443 139.739 215.443 136.049C215.443 132.358 212.452 129.367 208.761 129.367C205.071 129.367 202.079 132.358 202.079 136.049C202.079 139.739 205.071 142.731 208.761 142.731Z" fill="#404247"/>
<path fill-rule="evenodd" clip-rule="evenodd" d="M145.558 80.1779C166.41 79.4515 179.632 63.9035 179.632 46.0309C179.632 25.9783 164.048 10.5031 145.558 10.5031C127.068 10.5031 110.394 24.9632 110.394 43.4531C110.394 61.9429 125.083 80.8914 145.558 80.1779ZM144.816 86.0331C168.333 86.0331 187.397 66.9692 187.397 43.4531C187.397 19.9369 168.333 0.873047 144.816 0.873047C121.3 0.873047 102.236 19.9369 102.236 43.4531C102.236 66.9692 121.3 86.0331 144.816 86.0331Z" fill="#404247"/>
<path fill-rule="evenodd" clip-rule="evenodd" d="M59.6554 77.9213C73.9208 77.9213 85.6652 65.7553 85.6652 51.4903C85.6652 37.2249 74.9287 23.7211 58.809 23.7211C41.0732 23.7211 32.2574 36.5404 32.2574 50.8054C32.2574 65.0705 45.3903 77.9213 59.6554 77.9213ZM59.6554 86.0901C78.4323 86.0901 93.6536 70.8684 93.6536 52.0919C93.6536 33.3154 78.4323 18.0938 59.6554 18.0938C40.8789 18.0938 25.6572 33.3154 25.6572 52.0919C25.6572 70.8684 40.8789 86.0901 59.6554 86.0901Z" fill="#404247"/>
<path fill-rule="evenodd" clip-rule="evenodd" d="M97.482 39.8079C92.8877 41.9314 91.896 48.3569 93.6135 52.0734C95.3313 55.7898 99.7365 57.4098 103.453 55.6923C103.584 55.6315 103.675 55.5886 103.739 55.5581L103.746 55.5512C103.845 55.4586 104 55.3146 104.194 55.1417L109.103 60.6442C108.973 60.7602 108.883 60.8441 108.786 60.9344C108.759 60.9591 108.732 60.9842 108.704 61.0105C108.589 61.1174 108.379 61.3118 108.12 61.5062C107.587 61.9053 107.03 62.1627 106.585 62.3682L106.547 62.386C99.1332 65.8125 90.3459 62.5804 86.9198 55.1674C83.4933 47.754 86.7254 38.9667 94.1388 35.5402C96.1878 34.5934 98.4633 34.4731 99.4865 34.4731L99.7238 39.3132C99.4524 39.3132 99.0305 39.374 98.5716 39.4452C98.0964 39.519 97.7265 39.6948 97.482 39.8079Z" fill="#404247"/>
<path fill-rule="evenodd" clip-rule="evenodd" d="M22.0924 61.7564L25.4048 61.1704L24.3575 72.6142L36.0834 70.0094L37.0618 75.5395L19.0078 78.7336L22.0924 61.7564Z" fill="#404247"/>
<path d="M120.901 160.549C146.398 160.549 167.067 158.442 167.067 155.842C167.067 153.243 146.398 151.135 120.901 151.135C95.4052 151.135 74.7363 153.243 74.7363 155.842C74.7363 158.442 95.4052 160.549 120.901 160.549Z" fill="#C1C6CD"/>
</svg>
