<svg width="199" height="164" viewBox="0 0 199 164" fill="none" xmlns="http://www.w3.org/2000/svg">
<path d="M107.983 163.161C130.811 163.161 149.317 161.274 149.317 158.947C149.317 156.619 130.811 154.733 107.983 154.733C85.1552 154.733 66.6494 156.619 66.6494 158.947C66.6494 161.274 85.1552 163.161 107.983 163.161Z" fill="#C1C6CD"/>
<path d="M162.874 123.554C180.285 123.554 194.4 109.439 194.4 92.0276C194.4 74.616 180.285 60.5011 162.874 60.5011C145.462 60.5011 131.347 74.616 131.347 92.0276C131.347 109.439 145.462 123.554 162.874 123.554Z" fill="#457EFF"/>
<path d="M152.706 77.0772C165.193 77.0772 175.315 66.9548 175.315 54.4682C175.315 41.9816 165.193 31.8593 152.706 31.8593C140.22 31.8593 130.097 41.9816 130.097 54.4682C130.097 66.9548 140.22 77.0772 152.706 77.0772Z" fill="#457EFF"/>
<path d="M74.5223 72.3186C84.3809 72.3186 92.3728 64.3267 92.3728 54.4681C92.3728 44.6096 84.3809 36.6177 74.5223 36.6177C64.6638 36.6177 56.6719 44.6096 56.6719 54.4681C56.6719 64.3267 64.6638 72.3186 74.5223 72.3186Z" fill="#457EFF"/>
<path d="M65.4803 123.516C85.9117 123.516 102.475 106.953 102.475 86.5214C102.475 66.0899 85.9117 49.527 65.4803 49.527C45.0488 49.527 28.4858 66.0899 28.4858 86.5214C28.4858 106.953 45.0488 123.516 65.4803 123.516Z" fill="#457EFF"/>
<path d="M114.342 87.801C137.598 87.801 156.45 68.9486 156.45 45.6929C156.45 22.4372 137.598 3.58472 114.342 3.58472C91.0864 3.58472 72.2339 22.4372 72.2339 45.6929C72.2339 68.9486 91.0864 87.801 114.342 87.801Z" fill="#457EFF"/>
<path d="M160.644 123.517H60.9248L88.2286 79.1501H160.644V123.517Z" fill="#457EFF"/>
<path d="M91.1208 64.5924C105.281 64.5924 116.761 53.113 116.761 38.9525C116.761 24.792 105.281 13.3126 91.1208 13.3126C76.9603 13.3126 65.481 24.792 65.481 38.9525C65.481 53.113 76.9603 64.5924 91.1208 64.5924Z" fill="#ECF0F6"/>
<path d="M91.121 63.985C104.946 63.985 116.154 52.7773 116.154 38.9519C116.154 25.1265 104.946 13.9188 91.121 13.9188C77.2956 13.9188 66.0879 25.1265 66.0879 38.9519C66.0879 52.7773 77.2956 63.985 91.121 63.985Z" fill="#FFFEFE"/>
<path d="M77.7907 56.0964C80.8677 56.0964 83.3621 53.602 83.3621 50.525C83.3621 47.448 80.8677 44.9536 77.7907 44.9536C74.7136 44.9536 72.2192 47.448 72.2192 50.525C72.2192 53.602 74.7136 56.0964 77.7907 56.0964Z" fill="#454545"/>
<path d="M166.883 63.9861C177.244 63.9861 185.643 55.5866 185.643 45.2254C185.643 34.8643 177.244 26.4648 166.883 26.4648C156.521 26.4648 148.122 34.8643 148.122 45.2254C148.122 55.5866 156.521 63.9861 166.883 63.9861Z" fill="#ECF0F6"/>
<path d="M166.88 63.5395C176.996 63.5395 185.196 55.3389 185.196 45.2229C185.196 35.1069 176.996 26.9062 166.88 26.9062C156.764 26.9062 148.563 35.1069 148.563 45.2229C148.563 55.3389 156.764 63.5395 166.88 63.5395Z" fill="#FFFEFE"/>
<path d="M173.069 60.6221C175.568 60.6221 177.594 58.5959 177.594 56.0964C177.594 53.597 175.568 51.5708 173.069 51.5708C170.569 51.5708 168.543 53.597 168.543 56.0964C168.543 58.5959 170.569 60.6221 173.069 60.6221Z" fill="#454545"/>
<path d="M167.033 84.2168C171.361 84.2168 174.869 82.266 174.869 79.8596C174.869 77.4531 171.361 75.5023 167.033 75.5023C162.705 75.5023 159.197 77.4531 159.197 79.8596C159.197 82.266 162.705 84.2168 167.033 84.2168Z" fill="#FFC6C6"/>
<path fill-rule="evenodd" clip-rule="evenodd" d="M172.212 78.5857C172.443 78.6553 172.574 78.8985 172.505 79.1296L171.489 82.5013C171.42 82.7321 171.176 82.8628 170.946 82.7932C170.715 82.724 170.584 82.4804 170.653 82.2496L171.669 78.8779C171.738 78.6468 171.981 78.5161 172.212 78.5857Z" fill="black"/>
<path fill-rule="evenodd" clip-rule="evenodd" d="M173.828 78.5857C174.058 78.6553 174.189 78.8985 174.12 79.1296L173.105 82.5013C173.035 82.7321 172.792 82.8628 172.561 82.7932C172.33 82.724 172.199 82.4804 172.269 82.2496L173.284 78.8779C173.353 78.6468 173.597 78.5161 173.828 78.5857Z" fill="black"/>
<path fill-rule="evenodd" clip-rule="evenodd" d="M175.442 78.5857C175.673 78.6553 175.804 78.8985 175.734 79.1296L174.719 82.5013C174.649 82.7321 174.406 82.8628 174.175 82.7932C173.944 82.724 173.813 82.4804 173.883 82.2496L174.898 78.8779C174.968 78.6468 175.211 78.5161 175.442 78.5857Z" fill="black"/>
<path d="M82.883 84.1735C87.1997 84.4795 90.8371 82.7817 91.0073 80.3813C91.1775 77.9808 87.816 75.7868 83.4993 75.4808C79.1825 75.1747 75.5451 76.8726 75.375 79.273C75.2048 81.6734 78.5662 83.8674 82.883 84.1735Z" fill="#FFC6C6"/>
<path fill-rule="evenodd" clip-rule="evenodd" d="M77.4802 79.1908C77.7113 79.2601 77.842 79.5036 77.7724 79.7344L76.78 83.0311C76.7105 83.2618 76.4669 83.3928 76.2361 83.3232C76.0054 83.2537 75.8744 83.0101 75.944 82.7793L76.9366 79.483C77.0062 79.2519 77.2495 79.1212 77.4802 79.1908Z" fill="black"/>
<path fill-rule="evenodd" clip-rule="evenodd" d="M79.0579 79.1908C79.2889 79.2601 79.4196 79.5036 79.3501 79.7344L78.3577 83.0311C78.2881 83.2618 78.0445 83.3928 77.8138 83.3232C77.583 83.2537 77.452 83.0101 77.5216 82.7793L78.5143 79.483C78.5835 79.2519 78.8271 79.1212 79.0579 79.1908Z" fill="black"/>
<path fill-rule="evenodd" clip-rule="evenodd" d="M80.636 79.1908C80.8668 79.2601 80.9978 79.5036 80.9282 79.7344L79.9355 83.0311C79.866 83.2618 79.6227 83.3928 79.3919 83.3232C79.1609 83.2537 79.0302 83.0101 79.0997 82.7793L80.0921 79.483C80.1617 79.2519 80.4052 79.1212 80.636 79.1908Z" fill="black"/>
<path d="M169.934 115.171C170.342 114.055 171.363 113.529 172.214 113.996L172.57 114.185L175.356 115.537L177.025 116.387C180.654 118.307 182.559 119.904 185.658 123.575C190.512 129.325 192.695 134.944 194.224 143.051C194.443 144.211 193.875 145.428 192.957 145.767C192.039 146.106 191.117 145.441 190.898 144.28C189.507 136.901 187.597 131.985 183.27 126.86L182.688 126.179L181.603 124.973C179.688 122.934 178.099 121.771 175.459 120.381L173.907 119.594L171.594 118.48L170.736 118.036C169.885 117.569 169.526 116.286 169.934 115.171Z" fill="#404247"/>
<path d="M16.7737 49.3906C17.7598 49.5823 18.4037 50.537 18.212 51.523L17.6474 54.5178C17.594 54.8152 17.5436 55.102 17.4961 55.3794L17.2461 56.942C16.9223 59.1471 16.8246 60.7943 16.8965 62.7772L16.969 64.1587C17.1621 67.0649 17.7561 69.9032 18.8226 72.7013C22.1649 81.4696 26.2222 86.157 31.9462 90.1009C32.7734 90.6709 32.9819 91.8034 32.412 92.6306C31.8421 93.4577 30.7095 93.6663 29.8824 93.0963C23.5921 88.7622 19.0528 83.518 15.4235 73.9969C14.2241 70.8499 13.5559 67.6568 13.3395 64.3999L13.2928 63.6207L13.2394 62.1639C13.2051 60.2911 13.321 58.6412 13.6248 56.5517L13.8885 54.8918L14.4238 51.957C14.493 51.5947 14.5655 51.2192 14.6413 50.829C14.833 49.8429 15.7877 49.199 16.7737 49.3906Z" fill="#404247"/>
<path d="M21.801 51.3295C24.8227 49.5539 25.8329 45.665 24.0574 42.6433C22.2819 39.6215 18.393 38.6113 15.3712 40.3868C12.3495 42.1623 11.3392 46.0513 13.1148 49.073C14.8903 52.0947 18.7792 53.105 21.801 51.3295Z" fill="#404247"/>
<path d="M192.483 138.304C195.968 138.652 198.511 141.76 198.162 145.245C197.814 148.73 194.706 151.273 191.221 150.925C187.736 150.577 185.193 147.469 185.541 143.983C185.889 140.498 188.997 137.955 192.483 138.304Z" fill="#404247"/>
<path fill-rule="evenodd" clip-rule="evenodd" d="M91.4238 71.0053C110.093 70.3546 121.932 56.4341 121.932 40.4316C121.932 22.4779 107.979 8.62226 91.4238 8.62226C74.8687 8.62226 59.9395 21.5687 59.9395 38.1238C59.9395 54.6787 73.0909 71.6441 91.4238 71.0053ZM90.7591 76.2477C111.814 76.2477 128.883 59.179 128.883 38.1238C128.883 17.0685 111.814 0 90.7591 0C69.704 0 52.6353 17.0685 52.6353 38.1238C52.6353 59.179 69.704 76.2477 90.7591 76.2477Z" fill="#404247"/>
<path fill-rule="evenodd" clip-rule="evenodd" d="M165.737 67.9431C177.934 67.9431 187.976 57.541 187.976 45.3438C187.976 33.1464 178.796 21.6006 165.013 21.6006C149.849 21.6006 142.311 32.5612 142.311 44.7583C142.311 56.9554 153.54 67.9431 165.737 67.9431ZM165.737 74.9275C181.791 74.9275 194.806 61.9126 194.806 45.8581C194.806 29.8038 181.791 16.7889 165.737 16.7889C149.682 16.7889 136.667 29.8038 136.667 45.8581C136.667 61.9126 149.682 74.9275 165.737 74.9275Z" fill="#404247"/>
<path fill-rule="evenodd" clip-rule="evenodd" d="M133.235 33.6556C128.929 35.6453 128 41.6673 129.61 45.1499C131.219 48.6326 135.348 50.1511 138.83 48.5415C138.954 48.4844 139.039 48.4443 139.098 48.4157L139.105 48.4093C139.198 48.3223 139.343 48.1873 139.525 48.0255L144.126 53.182C144.004 53.2909 143.919 53.3694 143.828 53.4541C143.803 53.4771 143.778 53.5007 143.752 53.5254C143.644 53.6255 143.447 53.8077 143.204 53.9899C142.705 54.3638 142.183 54.6051 141.766 54.7978L141.73 54.8143C134.782 58.0254 126.547 54.9965 123.337 48.0494C120.126 41.1022 123.155 32.8673 130.102 29.6562C132.022 28.7689 134.155 28.6562 135.113 28.6562L135.336 33.192C135.082 33.192 134.686 33.2488 134.256 33.3157C133.811 33.3847 133.464 33.5497 133.235 33.6556Z" fill="#404247"/>
<path fill-rule="evenodd" clip-rule="evenodd" d="M44.7962 38.6245H48.9796L45.2176 52.412L60.1421 51.7628V58.7472H37.3403L44.7962 38.6245Z" fill="#404247"/>
<circle cx="123.772" cy="88.602" r="9.42985" fill="white"/>
</svg>
