<svg width="32" height="10" viewBox="0 0 32 10" fill="none" xmlns="http://www.w3.org/2000/svg">
<path d="M5.64028 1.11627C5.79558 1.27374 5.81283 1.51819 5.69204 1.69499L5.64028 1.75782L2.45395 4.98689L10.085 4.98692C10.332 4.98692 10.5323 5.21904 10.5323 5.50537C10.5323 5.75989 10.3741 5.97157 10.1654 6.01547L10.085 6.02383L2.5828 6.02379L5.64028 9.12331C5.79558 9.28079 5.81283 9.52524 5.69204 9.70204L5.64028 9.76487C5.48497 9.92234 5.2439 9.93984 5.06953 9.81736L5.00757 9.76487L1.3117 6.01653L1.29519 6.01547C1.08649 5.97157 0.928223 5.75989 0.928223 5.50537L0.929119 5.46936C0.922901 5.36962 0.949025 5.2682 1.00749 5.18262L1.05926 5.11979L5.00757 1.11627C5.18229 0.939109 5.46556 0.939109 5.64028 1.11627Z" fill="#3F4C5A"/>
<path d="M26.7845 1.11627C26.6292 1.27374 26.612 1.51819 26.7328 1.69499L26.7845 1.75782L29.9709 4.98689L22.3398 4.98692C22.0928 4.98692 21.8925 5.21904 21.8925 5.50537C21.8925 5.75989 22.0507 5.97157 22.2594 6.01547L22.3398 6.02383L29.842 6.02379L26.7845 9.12331C26.6292 9.28079 26.612 9.52524 26.7328 9.70204L26.7845 9.76487C26.9398 9.92234 27.1809 9.93984 27.3553 9.81736L27.4172 9.76487L31.1131 6.01653L31.1296 6.01547C31.3383 5.97157 31.4966 5.75989 31.4966 5.50537L31.4957 5.46936C31.5019 5.36962 31.4758 5.2682 31.4173 5.18262L31.3655 5.11979L27.4172 1.11627C27.2425 0.939109 26.9592 0.939109 26.7845 1.11627Z" fill="#3F4C5A"/>
</svg>
