<svg width="24" height="25" viewBox="0 0 24 25" fill="none" xmlns="http://www.w3.org/2000/svg">
<circle cx="11.999" cy="12.0854" r="12" fill="#FFA06A"/>
<path d="M11.0733 6.63124L6.455 15.0278C6.36654 15.1886 6.32151 15.3697 6.32434 15.5532C6.32718 15.7367 6.37779 15.9163 6.47118 16.0743C6.56457 16.2323 6.69752 16.3632 6.85692 16.4542C7.01632 16.5452 7.19668 16.593 7.38021 16.5931H16.6175C16.801 16.593 16.9814 16.5452 17.1408 16.4542C17.3002 16.3632 17.4331 16.2323 17.5265 16.0743C17.6199 15.9163 17.6705 15.7367 17.6733 15.5532C17.6762 15.3697 17.6312 15.1886 17.5427 15.0278L12.9237 6.63124C12.8325 6.46565 12.6986 6.32756 12.5358 6.23138C12.3731 6.13521 12.1875 6.08447 11.9985 6.08447C11.8095 6.08447 11.6239 6.13521 11.4611 6.23138C11.2984 6.32756 11.1645 6.46565 11.0733 6.63124ZM11.9985 9.37588C12.1386 9.37588 12.2729 9.43152 12.3719 9.53055C12.4709 9.62959 12.5266 9.76391 12.5266 9.90396V12.7204C12.5266 12.8605 12.4709 12.9948 12.3719 13.0938C12.2729 13.1929 12.1386 13.2485 11.9985 13.2485C11.8584 13.2485 11.7241 13.1929 11.6251 13.0938C11.526 12.9948 11.4704 12.8605 11.4704 12.7204V9.90396C11.4704 9.76391 11.526 9.62959 11.6251 9.53055C11.7241 9.43152 11.8584 9.37588 11.9985 9.37588ZM12.5266 14.3047C12.5266 14.4447 12.4709 14.5791 12.3719 14.6781C12.2729 14.7771 12.1386 14.8328 11.9985 14.8328C11.8584 14.8328 11.7241 14.7771 11.6251 14.6781C11.526 14.5791 11.4704 14.4447 11.4704 14.3047C11.4704 14.1646 11.526 14.0303 11.6251 13.9313C11.7241 13.8322 11.8584 13.7766 11.9985 13.7766C12.1386 13.7766 12.2729 13.8322 12.3719 13.9313C12.4709 14.0303 12.5266 14.1646 12.5266 14.3047Z" fill="white"/>
</svg>
