<svg width="17" height="17" viewBox="0 0 17 17" fill="none" xmlns="http://www.w3.org/2000/svg">
<rect x="0.0917969" y="0.44043" width="16.3991" height="16.3991" rx="4.01282" fill="#F9668D"/>
<path d="M8.00468 7.50356H8.57907V7.21906C8.57907 7.1436 8.60933 7.07124 8.66319 7.01788C8.71705 6.96453 8.7901 6.93456 8.86627 6.93456H9.72786C9.80403 6.93456 9.87708 6.96453 9.93094 7.01788C9.9848 7.07124 10.0151 7.1436 10.0151 7.21906V7.50356H11.1638V6.36555C11.1638 6.06373 11.0428 5.77427 10.8274 5.56085C10.6119 5.34744 10.3197 5.22754 10.0151 5.22754H6.5687C6.26403 5.22754 5.97183 5.34744 5.75639 5.56085C5.54095 5.77427 5.41992 6.06373 5.41992 6.36555V7.50356H6.5687V7.21906C6.5687 7.1436 6.59896 7.07124 6.65282 7.01788C6.70668 6.96453 6.77973 6.93456 6.8559 6.93456H7.71749C7.79366 6.93456 7.86671 6.96453 7.92057 7.01788C7.97443 7.07124 8.00468 7.1436 8.00468 7.21906V7.50356Z" fill="white"/>
<path d="M5.7074 8.07227C5.32657 8.07227 4.96134 8.22214 4.69205 8.48891C4.42277 8.75568 4.27148 9.11751 4.27148 9.49478V11.7708C4.27148 11.8463 4.30174 11.9186 4.3556 11.972C4.40946 12.0253 4.4825 12.0553 4.55867 12.0553C4.63483 12.0553 4.70788 12.0253 4.76174 11.972C4.81559 11.9186 4.84585 11.8463 4.84585 11.7708V10.3483H11.7383V11.7708C11.7383 11.8463 11.7685 11.9186 11.8224 11.972C11.8762 12.0253 11.9493 12.0553 12.0254 12.0553C12.1016 12.0553 12.1747 12.0253 12.2285 11.972C12.2824 11.9186 12.3126 11.8463 12.3126 11.7708V9.49478C12.3126 9.11751 12.1613 8.75568 11.8921 8.48891C11.6228 8.22214 11.2575 8.07227 10.8767 8.07227H5.7074Z" fill="white"/>
</svg>
