<svg width="106" height="14" viewBox="0 0 106 14" fill="none" xmlns="http://www.w3.org/2000/svg">
<path d="M105.616 0.00830078H0.356445V13.2577H105.616V0.00830078Z" fill="white"/>
<path d="M0.355957 13.1208H105.615" stroke="#E9EDF6" stroke-width="0.257627"/>
<mask id="mask0_1003_2976" style="mask-type:alpha" maskUnits="userSpaceOnUse" x="99" y="5" width="4" height="4">
<path d="M101.038 6.63305L102.26 7.85503C102.317 7.91226 102.317 8.00505 102.26 8.06229C102.232 8.09013 102.195 8.10521 102.156 8.10521C102.118 8.10521 102.08 8.09013 102.053 8.06229L100.831 6.8403L99.6086 8.06228C99.5807 8.09013 99.5435 8.10521 99.505 8.10521C99.4664 8.10521 99.4292 8.09013 99.4013 8.06229C99.3441 8.00506 99.3441 7.91226 99.4013 7.85503L100.623 6.63305L99.4013 5.41106C99.3441 5.35383 99.3441 5.26104 99.4013 5.20381C99.4585 5.14658 99.5513 5.14658 99.6086 5.20381L100.831 6.4258L102.053 5.20381C102.11 5.14658 102.203 5.14658 102.26 5.20381C102.317 5.26105 102.317 5.35384 102.26 5.41106L101.038 6.63305Z" fill="white"/>
</mask>
<g mask="url(#mask0_1003_2976)">
<path d="M101.038 6.63305L102.26 7.85503C102.317 7.91226 102.317 8.00505 102.26 8.06229C102.232 8.09013 102.195 8.10521 102.156 8.10521C102.118 8.10521 102.08 8.09013 102.053 8.06229L100.831 6.8403L99.6086 8.06228C99.5807 8.09013 99.5435 8.10521 99.505 8.10521C99.4664 8.10521 99.4292 8.09013 99.4013 8.06229C99.3441 8.00506 99.3441 7.91226 99.4013 7.85503L100.623 6.63305L99.4013 5.41106C99.3441 5.35383 99.3441 5.26104 99.4013 5.20381C99.4585 5.14658 99.5513 5.14658 99.6086 5.20381L100.831 6.4258L102.053 5.20381C102.11 5.14658 102.203 5.14658 102.26 5.20381C102.317 5.26105 102.317 5.35384 102.26 5.41106L101.038 6.63305Z" fill="black"/>
<path d="M102.38 4.57153H99.1371C98.9338 4.57153 98.769 4.73631 98.769 4.93957V8.32553C98.769 8.52879 98.9338 8.69357 99.1371 8.69357H102.38C102.583 8.69357 102.748 8.52879 102.748 8.32553V4.93957C102.748 4.73631 102.583 4.57153 102.38 4.57153Z" fill="#3F4C5A"/>
</g>
<path d="M6.48436 9.8191C8.24287 9.8191 9.66842 8.39266 9.66842 6.63306C9.66842 4.87346 8.24287 3.44702 6.48436 3.44702C4.72585 3.44702 3.30029 4.87346 3.30029 6.63306C3.30029 8.39266 4.72585 9.8191 6.48436 9.8191Z" fill="#457EFF"/>
<path fill-rule="evenodd" clip-rule="evenodd" d="M5.68461 4.82297C5.63634 5.07886 5.36121 6.52026 5.30468 6.81419C5.24816 7.10812 5.49042 7.37157 5.72828 7.37157C5.96613 7.37157 5.99757 7.37157 6.0952 7.37157C6.19283 7.37157 6.33817 7.4402 6.28346 7.6901C6.22875 7.94001 6.17218 8.19709 6.11657 8.43992C6.06096 8.68274 6.33965 8.78065 6.46049 8.59134C6.58132 8.40204 7.48352 6.95717 7.58735 6.76286C7.69117 6.56855 7.52111 6.26806 7.26514 6.26806C7.00917 6.26806 6.90325 6.26806 6.76899 6.26806C6.63472 6.26806 6.61588 6.17215 6.66461 5.97455C6.71334 5.77696 6.77193 5.5185 6.86253 5.13971C6.95313 4.76093 6.58803 4.55518 6.39566 4.55518C6.20328 4.55518 5.99644 4.55518 5.93941 4.55518C5.88239 4.55518 5.73288 4.56709 5.68461 4.82297Z" fill="white"/>
<path d="M12.9476 7.2578H11.6573L12.0058 5.2835C12.0487 5.04042 11.8865 4.80856 11.6434 4.76564C11.6177 4.76111 11.5917 4.75884 11.5657 4.75884L11.0537 7.67429H12.4544C12.6983 7.67429 12.9067 7.49832 12.9476 7.2578ZM14.1555 7.72427C14.3304 7.72427 14.4934 7.69234 14.6446 7.62847C14.7958 7.56461 14.9277 7.47576 15.04 7.36192C15.1524 7.24808 15.2405 7.11549 15.3043 6.96417C15.3682 6.81284 15.4001 6.64833 15.4001 6.47062C15.4001 6.29014 15.3612 6.13188 15.2835 5.99582C15.2058 5.85977 15.0983 5.75287 14.961 5.67512C14.8236 5.59738 14.6633 5.5585 14.4802 5.5585C14.3082 5.5585 14.1472 5.58974 13.9974 5.65221C13.8475 5.71469 13.7164 5.80285 13.604 5.91669C13.4916 6.03053 13.4042 6.16311 13.3418 6.31444C13.2794 6.46576 13.2481 6.62889 13.2481 6.80382C13.2481 6.98152 13.2863 7.13909 13.3626 7.27654C13.4389 7.41398 13.5451 7.52296 13.681 7.60348C13.817 7.68401 13.9752 7.72427 14.1555 7.72427ZM14.2263 7.26196C14.107 7.26196 14.005 7.22031 13.9204 7.13701C13.8357 7.05371 13.7934 6.93571 13.7934 6.78299C13.7934 6.63861 13.8212 6.5088 13.8767 6.39357C13.9322 6.27834 14.0078 6.18741 14.1035 6.12077C14.1992 6.05413 14.3054 6.02081 14.4219 6.02081C14.5413 6.02081 14.6432 6.06246 14.7279 6.14576C14.8125 6.22906 14.8548 6.34706 14.8548 6.49978C14.8548 6.64416 14.8271 6.77397 14.7716 6.8892C14.7161 7.00443 14.6411 7.09536 14.5468 7.162C14.4525 7.22864 14.3456 7.26196 14.2263 7.26196ZM16.608 7.72427C16.7856 7.72427 16.9514 7.69095 17.1054 7.62431C17.2595 7.55767 17.3933 7.46465 17.5071 7.34526C17.6209 7.22586 17.7069 7.08564 17.7652 6.9246C17.4844 6.90207 17.3062 6.92287 17.2307 6.987C17.1174 7.0832 17.0971 7.12105 17.0014 7.18074C16.9057 7.24044 16.8009 7.27029 16.6871 7.27029C16.5595 7.27029 16.4554 7.22656 16.375 7.13909C16.2945 7.05163 16.2542 6.93432 16.2542 6.78716C16.2542 6.64 16.2834 6.50811 16.3417 6.39149C16.3999 6.27487 16.479 6.18255 16.5789 6.11452C16.6788 6.04649 16.7884 6.01248 16.9077 6.01248C17.0215 6.01248 17.11 6.03829 17.1849 6.09799C17.2598 6.15769 17.2655 6.19586 17.3426 6.29367C17.394 6.35888 17.5682 6.38038 17.8651 6.35817C17.8651 6.10827 17.7853 5.91252 17.6257 5.77091C17.4662 5.62931 17.2532 5.5585 16.9868 5.5585C16.8037 5.5585 16.6344 5.59113 16.479 5.65638C16.3236 5.72163 16.1876 5.81256 16.0711 5.92918C15.9546 6.0458 15.8644 6.18185 15.8005 6.33735C15.7367 6.49284 15.7048 6.65943 15.7048 6.83714C15.7048 7.01484 15.7416 7.17033 15.8151 7.30361C15.8886 7.43689 15.9934 7.54032 16.1294 7.6139C16.2653 7.68748 16.4249 7.72427 16.608 7.72427ZM19.0397 7.72427C19.2146 7.72427 19.3776 7.69234 19.5288 7.62847C19.68 7.56461 19.8118 7.47576 19.9242 7.36192C20.0366 7.24808 20.1247 7.11549 20.1885 6.96417C20.2524 6.81284 20.2843 6.64833 20.2843 6.47062C20.2843 6.29014 20.2454 6.13188 20.1677 5.99582C20.09 5.85977 19.9825 5.75287 19.8451 5.67512C19.7078 5.59738 19.5475 5.5585 19.3644 5.5585C19.1924 5.5585 19.0314 5.58974 18.8816 5.65221C18.7317 5.71469 18.6006 5.80285 18.4882 5.91669C18.3758 6.03053 18.2884 6.16311 18.226 6.31444C18.1636 6.46576 18.1323 6.62889 18.1323 6.80382C18.1323 6.98152 18.1705 7.13909 18.2468 7.27654C18.3231 7.41398 18.4293 7.52296 18.5652 7.60348C18.7012 7.68401 18.8594 7.72427 19.0397 7.72427ZM19.1105 7.26196C18.9912 7.26196 18.8892 7.22031 18.8046 7.13701C18.7199 7.05371 18.6776 6.93571 18.6776 6.78299C18.6776 6.63861 18.7054 6.5088 18.7609 6.39357C18.8164 6.27834 18.892 6.18741 18.9877 6.12077C19.0834 6.05413 19.1896 6.02081 19.3061 6.02081C19.4254 6.02081 19.5274 6.06246 19.6121 6.14576C19.6967 6.22906 19.739 6.34706 19.739 6.49978C19.739 6.64416 19.7113 6.77397 19.6558 6.8892C19.6003 7.00443 19.5253 7.09536 19.431 7.162C19.3366 7.22864 19.2298 7.26196 19.1105 7.26196ZM21.2176 7.14946L21.409 6.05413H21.8544L21.9334 5.60848H21.4881L21.5297 5.36692C21.5463 5.28084 21.5776 5.21975 21.6233 5.18366C21.6691 5.14756 21.7378 5.12951 21.8294 5.12951C21.9114 5.12951 21.9816 5.07095 21.9964 4.99032L22.0542 4.67554H21.8294C21.6102 4.67554 21.4277 4.72829 21.282 4.8338C21.1364 4.93932 21.0413 5.11702 20.9969 5.36692L20.9553 5.60848H20.6723L20.5932 6.05413H20.8762L20.5932 7.67429C20.9012 7.67429 21.1646 7.45288 21.2176 7.14946ZM22.8787 8.11234L24.4234 5.60848C24.0726 5.60848 23.7479 5.79391 23.5697 6.09605L22.9999 7.06204L22.7942 6.16433C22.7197 5.83908 22.4303 5.60848 22.0967 5.60848L22.5977 7.67237L22.0217 8.59057C22.371 8.59057 22.6953 8.40959 22.8787 8.11234Z" fill="#457EFF"/>
</svg>
