<svg width="4" height="5" viewBox="0 0 4 5" fill="none" xmlns="http://www.w3.org/2000/svg">
<path d="M1.25917 2.66609C1.25917 2.21388 1.58331 1.84323 2.00994 1.75554V2.12156C2.00994 2.14188 2.02642 2.15836 2.04674 2.15836C2.05769 2.15836 2.06807 2.15349 2.07506 2.14507L2.5361 1.5898C2.5473 1.57631 2.54743 1.55679 2.53641 1.54315L2.07537 0.972656C2.06259 0.956847 2.03942 0.954389 2.02361 0.967165C2.01496 0.974152 2.00994 0.984673 2.00994 0.99579V1.36825C1.3744 1.4598 0.883789 2.00568 0.883789 2.66609C0.883789 3.05793 1.05692 3.40957 1.32994 3.65049C1.33399 3.65406 1.33807 3.65761 1.34217 3.66114L1.67083 3.44202C1.66623 3.43888 1.66166 3.43571 1.65712 3.4325C1.41664 3.2624 1.25917 2.98237 1.25917 2.66609Z" fill="white"/>
<path d="M2.72424 1.89027C2.97243 2.05932 3.1359 2.34394 3.1359 2.66619C3.1359 3.11896 2.81242 3.49462 2.38513 3.58221V3.18374C2.38513 3.16342 2.36865 3.14694 2.34833 3.14694C2.33742 3.14694 2.32708 3.15178 2.32008 3.16014L1.84694 3.72634C1.83582 3.73965 1.8355 3.7589 1.84616 3.77258L2.3193 4.37924C2.3318 4.39527 2.35493 4.39813 2.37096 4.38563C2.3799 4.37865 2.38513 4.36795 2.38513 4.35661V3.96477C3.02074 3.87321 3.51128 3.32666 3.51128 2.66618C3.51128 2.26854 3.33298 1.91229 3.05291 1.67114L2.72424 1.89027Z" fill="white"/>
</svg>
