<svg width="9" height="9" viewBox="0 0 9 9" fill="none" xmlns="http://www.w3.org/2000/svg">
<path d="M6.03923 0.967424C5.87399 0.803818 5.64992 0.711914 5.4163 0.711914C5.18267 0.711914 4.95861 0.803818 4.79336 0.967424L0.924129 4.80093C0.842297 4.88199 0.777384 4.97823 0.733097 5.08415C0.68881 5.19007 0.666016 5.3036 0.666016 5.41824C0.666016 5.53289 0.68881 5.64641 0.733097 5.75233C0.777384 5.85825 0.842297 5.95449 0.924129 6.03556L1.38316 6.48992C1.5829 6.68819 1.86373 6.65288 2.03332 6.55277C2.12687 6.49774 2.23625 6.47515 2.3442 6.48857C2.45216 6.50198 2.55252 6.55064 2.62946 6.62685C2.70639 6.70307 2.7555 6.8025 2.76904 6.90944C2.78258 7.01639 2.75978 7.12475 2.70423 7.21743C2.60358 7.38543 2.56754 7.66363 2.76768 7.86152L3.2271 8.31626C3.30893 8.39733 3.40608 8.46164 3.513 8.50551C3.61991 8.54938 3.73451 8.57196 3.85024 8.57196C3.96596 8.57196 4.08056 8.54938 4.18747 8.50551C4.29439 8.46164 4.39154 8.39733 4.47337 8.31626L8.34221 4.48354C8.42404 4.40247 8.48895 4.30623 8.53324 4.20031C8.57753 4.09439 8.60032 3.98087 8.60032 3.86622C8.60032 3.75157 8.57753 3.63805 8.53324 3.53213C8.48895 3.42621 8.42404 3.32997 8.34221 3.2489L7.88357 2.79416C7.68382 2.59627 7.40261 2.63119 7.23302 2.7313C7.13947 2.78633 7.03008 2.80892 6.92213 2.79551C6.81418 2.78209 6.71381 2.73343 6.63688 2.65722C6.55995 2.58101 6.51083 2.48158 6.49729 2.37463C6.48375 2.26769 6.50656 2.15932 6.5621 2.06665C6.66315 1.89864 6.69879 1.62044 6.49865 1.42256L6.03963 0.967424H6.03923Z" fill="white"/>
</svg>
