<svg width="5" height="7" viewBox="0 0 5 7" fill="none" xmlns="http://www.w3.org/2000/svg">
<path fill-rule="evenodd" clip-rule="evenodd" d="M3.64824 4.35806C3.73664 4.40821 3.79634 4.48943 3.82142 4.58022C3.84649 4.67101 3.83692 4.77137 3.78678 4.85977C3.74953 4.92544 3.69299 4.97806 3.62482 5.01051L2.32215 5.63053C2.17205 5.70197 1.99774 5.70197 1.84764 5.63053L0.544966 5.01051C0.453199 4.96683 0.387824 4.89009 0.356309 4.80133C0.324794 4.71257 0.32714 4.61179 0.370818 4.52002C0.403263 4.45185 0.455887 4.39531 0.521555 4.35806L1.81252 3.62581C1.98146 3.52998 2.18833 3.52998 2.35727 3.62581L3.64824 4.35806Z" fill="#F3F4F7" stroke="#C1C7D5" stroke-width="0.368039"/>
<path fill-rule="evenodd" clip-rule="evenodd" d="M3.64824 3.45816C3.73664 3.5083 3.79634 3.58953 3.82142 3.68032C3.84649 3.77111 3.83692 3.87147 3.78678 3.95987C3.74953 4.02554 3.69299 4.07816 3.62482 4.11061L2.32215 4.73062C2.17205 4.80207 1.99774 4.80207 1.84764 4.73062L0.544966 4.11061C0.453199 4.06693 0.387824 3.99019 0.356309 3.90143C0.324794 3.81267 0.32714 3.71189 0.370818 3.62012C0.403263 3.55195 0.455887 3.49541 0.521555 3.45816L1.81252 2.72591C1.98146 2.63008 2.18833 2.63008 2.35727 2.72591L3.64824 3.45816Z" fill="#F3F4F7" stroke="#C1C7D5" stroke-width="0.368039"/>
<path fill-rule="evenodd" clip-rule="evenodd" d="M3.64824 2.5585C3.73664 2.60864 3.79634 2.68987 3.82142 2.78066C3.84649 2.87145 3.83692 2.97181 3.78678 3.06021C3.74953 3.12588 3.69299 3.1785 3.62482 3.21095L2.32215 3.83097C2.17205 3.90241 1.99774 3.90241 1.84764 3.83097L0.544966 3.21095C0.453199 3.16727 0.387824 3.09053 0.356309 3.00177C0.324794 2.91301 0.32714 2.81223 0.370818 2.72046C0.403263 2.65229 0.455887 2.59575 0.521555 2.5585L1.81252 1.82625C1.98146 1.73042 2.18833 1.73042 2.35727 1.82625L3.64824 2.5585Z" fill="#F3F4F7" stroke="#C1C7D5" stroke-width="0.368039"/>
</svg>
