<svg width="31" height="7" viewBox="0 0 31 7" fill="none" xmlns="http://www.w3.org/2000/svg">
<line x1="2.06885" y1="3.64706" x2="28.0397" y2="3.64706" stroke="#CCCCCC" stroke-width="0.250801" stroke-dasharray="0.75 0.75"/>
<g clip-path="url(#clip0_1065_866)">
<path d="M15.2568 6.13476H14.9144C14.88 6.13475 14.8461 6.12685 14.8159 6.1118C14.7857 6.09675 14.7601 6.07501 14.7414 6.04858C14.7228 6.02215 14.7117 5.99187 14.7092 5.96051C14.7066 5.92915 14.7127 5.89771 14.7269 5.86907L15.5562 4.19673L14.311 4.17146L13.8569 4.67427C13.7703 4.77373 13.7012 4.81805 13.525 4.81805H13.2945C13.258 4.81913 13.2217 4.81214 13.1888 4.7977C13.1559 4.78325 13.1273 4.76176 13.1054 4.73505C13.0747 4.69732 13.0446 4.63336 13.074 4.54213L13.3289 3.70744C13.3309 3.70121 13.3332 3.69498 13.3358 3.68886C13.3359 3.68828 13.3359 3.68768 13.3358 3.6871C13.3331 3.68099 13.3308 3.67475 13.3289 3.66841L13.0737 2.82842C13.0461 2.73895 13.0763 2.67641 13.1066 2.63961C13.127 2.61489 13.1535 2.59489 13.1839 2.58121C13.2143 2.56753 13.2477 2.56055 13.2816 2.56085H13.525C13.6566 2.56085 13.7843 2.61481 13.8595 2.70192L14.3042 3.19627L15.5562 3.17934L14.7272 1.50995C14.713 1.48132 14.7068 1.44989 14.7094 1.41853C14.7119 1.38717 14.7229 1.35689 14.7415 1.33045C14.7602 1.30401 14.7857 1.28226 14.8159 1.26718C14.8461 1.2521 14.88 1.24418 14.9144 1.24414H15.2606C15.3088 1.24503 15.3563 1.25585 15.3994 1.27579C15.4425 1.29574 15.4801 1.3243 15.5095 1.35935L17.1182 3.14631L17.8614 3.12844C17.9158 3.12574 18.0666 3.1248 18.1014 3.1248C18.8123 3.12515 19.2368 3.33606 19.2368 3.68945C19.2368 3.80066 19.1882 4.00687 18.8629 4.13807C18.6708 4.21566 18.4145 4.25493 18.1012 4.25493C18.0667 4.25493 17.9163 4.25399 17.8611 4.25128L17.1181 4.23318L15.5054 6.02014C15.476 6.05504 15.4384 6.08346 15.3954 6.1033C15.3523 6.12314 15.305 6.13389 15.2568 6.13476Z" fill="#1262AE"/>
</g>
<circle cx="2.13389" cy="3.77256" r="1.0032" fill="white" stroke="#1262AE" stroke-width="0.501602"/>
<circle cx="29.0572" cy="3.66807" r="1.0032" fill="white" stroke="#1262AE" stroke-width="0.501602"/>
<defs>
<clipPath id="clip0_1065_866">
<rect width="6.58662" height="6.01922" fill="white" transform="translate(12.8555 0.679688)"/>
</clipPath>
</defs>
</svg>
