<svg width="11" height="18" viewBox="0 0 11 18" fill="none" xmlns="http://www.w3.org/2000/svg">
<path opacity="0.5" d="M9.36019 0.838867L2.21641 0.838867C1.48447 0.838867 0.891113 1.44052 0.891113 2.1827L0.891113 16.2557C0.891113 16.9979 1.48447 17.5995 2.21641 17.5995L9.36019 17.5995C10.0921 17.5995 10.6855 16.9979 10.6855 16.2557L10.6855 2.1827C10.6855 1.44052 10.0921 0.838867 9.36019 0.838867Z" stroke="#D1D7E4" stroke-width="0.511301"/>
<path opacity="0.5" d="M8.8373 2.16797L2.73979 2.16797C2.37382 2.16797 2.07715 2.4688 2.07715 2.83988L2.07715 15.5594C2.07715 15.9305 2.37382 16.2314 2.73979 16.2314H8.8373C9.20326 16.2314 9.49994 15.9305 9.49994 15.5594L9.49994 2.83988C9.49994 2.4688 9.20326 2.16797 8.8373 2.16797Z" stroke="#D1D7E4" stroke-width="0.511301"/>
<path opacity="0.5" d="M4.24268 15.3566C4.24268 15.2465 4.32081 15.1548 4.42386 15.1358L4.46356 15.1322H7.1142C7.23619 15.1322 7.33508 15.2327 7.33508 15.3566C7.33508 15.4668 7.25694 15.5584 7.1539 15.5774L7.1142 15.5811H4.46356C4.34157 15.5811 4.24268 15.4806 4.24268 15.3566Z" fill="#D1D7E4"/>
</svg>
