<svg width="3" height="5" viewBox="0 0 3 5" fill="none" xmlns="http://www.w3.org/2000/svg">
<path d="M1.73363 3.70833C1.78406 3.70833 1.8256 3.69202 1.85823 3.65938C1.89086 3.62675 1.90718 3.58374 1.90718 3.53034C1.90718 3.45024 1.92201 3.35828 1.95167 3.25445C1.98134 3.15062 2.04215 3.05718 2.13411 2.97412C2.24981 2.86732 2.35586 2.76572 2.45227 2.66931C2.54869 2.57289 2.62656 2.46684 2.68589 2.35115C2.74522 2.23545 2.77488 2.09454 2.77488 1.92842C2.77488 1.73856 2.73039 1.57021 2.64139 1.42337C2.55239 1.27652 2.43077 1.16083 2.27651 1.07628C2.12225 0.991736 1.94722 0.949463 1.75143 0.949463C1.54081 0.949463 1.35614 0.993961 1.19743 1.08296C1.03872 1.17195 0.914872 1.29432 0.825877 1.45006C0.736881 1.60581 0.692383 1.78602 0.692383 1.99071C0.692383 2.04114 0.708699 2.08193 0.741331 2.11308C0.773962 2.14423 0.815494 2.15981 0.865925 2.15981C0.916356 2.15981 0.957145 2.14423 0.988294 2.11308C1.01944 2.08193 1.03502 2.04114 1.03502 1.99071C1.03502 1.85129 1.06394 1.72818 1.12179 1.62138C1.17963 1.51459 1.26196 1.43078 1.36875 1.36997C1.47555 1.30915 1.60311 1.27875 1.75143 1.27875C1.88789 1.27875 2.0073 1.30693 2.10964 1.36329C2.21199 1.41966 2.29134 1.49605 2.3477 1.59246C2.40407 1.68887 2.43225 1.79492 2.43225 1.91062C2.43225 2.05894 2.40629 2.18205 2.35438 2.27995C2.30246 2.37784 2.23498 2.46684 2.15191 2.54694C2.06885 2.62703 1.98134 2.7101 1.88938 2.79613C1.78555 2.89402 1.70471 3.0112 1.64686 3.14766C1.58902 3.28412 1.56009 3.41168 1.56009 3.53034C1.56009 3.58374 1.57641 3.62675 1.60904 3.65938C1.64167 3.69202 1.6832 3.70833 1.73363 3.70833ZM1.73363 4.49594C1.80483 4.49594 1.86639 4.47073 1.9183 4.4203C1.97021 4.36987 1.99617 4.30905 1.99617 4.23786C1.99617 4.16369 1.97021 4.1014 1.9183 4.05097C1.86639 4.00053 1.80483 3.97532 1.73363 3.97532C1.66244 3.97532 1.60162 4.00053 1.55119 4.05097C1.50076 4.1014 1.47555 4.16369 1.47555 4.23786C1.47555 4.30905 1.50002 4.36987 1.54897 4.4203C1.59791 4.47073 1.65947 4.49594 1.73363 4.49594Z" fill="#3F4C5A"/>
</svg>
