<svg width="5" height="4" viewBox="0 0 5 4" fill="none" xmlns="http://www.w3.org/2000/svg">
<path d="M3.60185 0.0666504C4.00837 0.0666504 4.33792 0.396204 4.33792 0.802729V2.64292C4.33792 3.04945 4.00837 3.379 3.60185 3.379H0.785394C0.37887 3.379 0.0493164 3.04945 0.0493164 2.64292V0.802729C0.0493164 0.396204 0.37887 0.0666504 0.785394 0.0666504H3.60185ZM3.96967 1.35479H0.416987L0.417355 2.64292C0.417355 2.83167 0.559433 2.98723 0.742473 3.00849L0.785394 3.01096H3.60185C3.79059 3.01096 3.94615 2.86889 3.96741 2.68585L3.96989 2.64292L3.96967 1.35479ZM3.60185 0.434689H0.785394C0.596651 0.434689 0.441091 0.576767 0.419832 0.759808L0.417355 0.802729L0.416987 0.986748H3.96967L3.96989 0.802729C3.96989 0.613985 3.82781 0.458425 3.64477 0.437166L3.60185 0.434689Z" fill="#C1C7D5"/>
</svg>
