<svg width="209" height="155" viewBox="0 0 209 155" fill="none" xmlns="http://www.w3.org/2000/svg">
<path d="M61.0431 129.236C78.6488 129.236 92.9211 114.964 92.9211 97.358C92.9211 79.7523 78.6488 65.48 61.0431 65.48C43.4373 65.48 29.165 79.7523 29.165 97.358C29.165 114.964 43.4373 129.236 61.0431 129.236Z" fill="#457EFF"/>
<path d="M148.039 67.3587C158.007 67.3587 166.088 59.2777 166.088 49.3092C166.088 39.3408 158.007 31.2598 148.039 31.2598C138.07 31.2598 129.989 39.3408 129.989 49.3092C129.989 59.2777 138.07 67.3587 148.039 67.3587Z" fill="#457EFF"/>
<path d="M159.796 129.198C180.456 129.198 197.203 112.45 197.203 91.7908C197.203 71.1315 180.456 54.3838 159.796 54.3838C139.137 54.3838 122.389 71.1315 122.389 91.7908C122.389 112.45 139.137 129.198 159.796 129.198Z" fill="#457EFF"/>
<path d="M103.315 95.9867C128.433 95.9867 148.795 75.6248 148.795 50.5071C148.795 25.3895 128.433 5.02759 103.315 5.02759C78.1978 5.02759 57.8359 25.3895 57.8359 50.5071C57.8359 75.6248 78.1978 95.9867 103.315 95.9867Z" fill="#457EFF"/>
<path d="M162.794 129.197H61.9639L89.572 84.3362H162.794V129.197Z" fill="#457EFF"/>
<path d="M56.4862 70.3223C68.4226 70.3223 78.0989 60.646 78.0989 48.7096C78.0989 36.7733 68.4226 27.0969 56.4862 27.0969C44.5499 27.0969 34.8735 36.7733 34.8735 48.7096C34.8735 60.646 44.5499 70.3223 56.4862 70.3223Z" fill="#ECF0F6"/>
<path d="M56.4865 69.3652C67.8941 69.3652 77.1419 60.1175 77.1419 48.7098C77.1419 37.3022 67.8941 28.0544 56.4865 28.0544C45.0788 28.0544 35.8311 37.3022 35.8311 48.7098C35.8311 60.1175 45.0788 69.3652 56.4865 69.3652Z" fill="#FFFEFE"/>
<path d="M44.4593 52.3252C47.239 52.3252 49.4924 50.0718 49.4924 47.2921C49.4924 44.5124 47.239 42.259 44.4593 42.259C41.6796 42.259 39.4263 44.5124 39.4263 47.2921C39.4263 50.0718 41.6796 52.3252 44.4593 52.3252Z" fill="#454545"/>
<path d="M104.108 97.308C103.623 105.938 95.2485 110.666 85.5683 110.122C75.8876 109.578 68.7373 103.131 69.0515 95.3381C69.5957 85.6574 77.4003 87.2916 87.081 87.8358C96.7613 88.38 104.652 87.6278 104.108 97.308Z" fill="white"/>
<path d="M138.867 71.9774C154.573 71.9774 167.306 59.2449 167.306 43.5386C167.306 27.8323 154.573 15.0999 138.867 15.0999C123.161 15.0999 110.428 27.8323 110.428 43.5386C110.428 59.2449 123.161 71.9774 138.867 71.9774Z" fill="#ECF0F6"/>
<path d="M138.864 71.3019C154.199 71.3019 166.63 58.8708 166.63 43.5362C166.63 28.2016 154.199 15.7705 138.864 15.7705C123.53 15.7705 111.099 28.2016 111.099 43.5362C111.099 58.8708 123.53 71.3019 138.864 71.3019Z" fill="#FFFEFE"/>
<path d="M152.856 31.2602C155.516 31.2602 157.673 29.1035 157.673 26.4431C157.673 23.7827 155.516 21.626 152.856 21.626C150.195 21.626 148.039 23.7827 148.039 26.4431C148.039 29.1035 150.195 31.2602 152.856 31.2602Z" fill="#454545"/>
<path d="M117.217 91.7907C121.592 91.7907 125.14 89.8181 125.14 87.3848C125.14 84.9516 121.592 82.979 117.217 82.979C112.841 82.979 109.293 84.9516 109.293 87.3848C109.293 89.8181 112.841 91.7907 117.217 91.7907Z" fill="#FFC6C6"/>
<path fill-rule="evenodd" clip-rule="evenodd" d="M122.462 86.071C122.71 86.1456 122.85 86.4069 122.776 86.6544L121.749 90.0638C121.675 90.3113 121.414 90.4517 121.166 90.3771C120.918 90.3025 120.778 90.0413 120.852 89.7938L121.879 86.3844C121.954 86.1369 122.215 85.9964 122.462 86.071Z" fill="black"/>
<path fill-rule="evenodd" clip-rule="evenodd" d="M124.097 86.071C124.344 86.1456 124.485 86.4069 124.41 86.6544L123.383 90.0638C123.309 90.3113 123.048 90.4517 122.8 90.3771C122.553 90.3025 122.412 90.0413 122.487 89.7938L123.513 86.3844C123.588 86.1369 123.849 85.9964 124.097 86.071Z" fill="black"/>
<path fill-rule="evenodd" clip-rule="evenodd" d="M125.729 86.071C125.977 86.1456 126.117 86.4069 126.043 86.6544L125.016 90.0638C124.942 90.3113 124.681 90.4517 124.433 90.3771C124.185 90.3025 124.045 90.0413 124.12 89.7938L125.146 86.3844C125.221 86.1369 125.482 85.9964 125.729 86.071Z" fill="black"/>
<path d="M43.9227 85.6214C48.2876 85.9309 51.9655 84.2141 52.1376 81.7869C52.3097 79.3597 48.9107 77.1413 44.5459 76.8318C40.181 76.5223 36.5031 78.2391 36.331 80.6663C36.1589 83.0935 39.5578 85.312 43.9227 85.6214Z" fill="#FFC6C6"/>
<path fill-rule="evenodd" clip-rule="evenodd" d="M38.4677 80.5558C38.7152 80.6304 38.8557 80.8916 38.7811 81.1392L37.7776 84.4723C37.703 84.7202 37.4417 84.8603 37.1942 84.7857C36.9467 84.7111 36.8063 84.4502 36.8809 84.2027L37.8843 80.8692C37.9589 80.6216 38.2202 80.4815 38.4677 80.5558Z" fill="black"/>
<path fill-rule="evenodd" clip-rule="evenodd" d="M40.0634 80.5558C40.3112 80.6304 40.4514 80.8916 40.3768 81.1392L39.3733 84.4723C39.2987 84.7202 39.0374 84.8603 38.7899 84.7857C38.5424 84.7111 38.402 84.4502 38.4766 84.2027L39.4804 80.8692C39.5546 80.6216 39.8159 80.4815 40.0634 80.5558Z" fill="black"/>
<path fill-rule="evenodd" clip-rule="evenodd" d="M41.6596 80.5558C41.9071 80.6304 42.0473 80.8916 41.973 81.1392L40.9692 84.4723C40.8949 84.7202 40.6337 84.8603 40.3861 84.7857C40.1383 84.7111 39.9982 84.4502 40.0728 84.2027L41.0763 80.8692C41.1509 80.6216 41.4118 80.4815 41.6596 80.5558Z" fill="black"/>
<path d="M175.902 97.5255C183.296 96.7948 189.233 94.521 194.565 88.1423C200.082 81.5441 202.435 71.0098 201.843 63.3001C201.747 62.0527 200.743 61.1262 199.6 61.2308C198.456 61.3354 197.607 62.4314 197.703 63.6788C198.207 70.2394 196.128 79.5474 191.497 85.087C187.017 90.4454 181.986 92.3725 175.527 93.0108C174.385 93.1237 173.542 94.2258 173.646 95.4726C173.74 96.6059 174.583 97.4686 175.594 97.5312L175.902 97.5255Z" fill="#404247"/>
<path d="M6.81669 48.3408C7.9561 48.2082 8.98722 49.0244 9.11977 50.1639L9.47371 53.03C10.6303 61.8281 12.1649 68.0562 15.1654 73.8005C19.3719 81.8533 28.956 89.4973 33.9437 90.6615C35.0607 90.9222 35.7549 92.0392 35.4942 93.1562C35.2335 94.2733 34.1166 94.9675 32.9995 94.7068C26.8126 93.2627 16.2406 84.8307 11.4835 75.7238C8.52038 70.051 6.9048 64.1211 5.72532 56.2211L5.34706 53.5125L4.9936 50.6438C4.86106 49.5044 5.67728 48.4733 6.81669 48.3408Z" fill="#404247"/>
<path d="M6.54657 56.215C10.0904 56.215 12.9633 53.3421 12.9633 49.7983C12.9633 46.2544 10.0904 43.3816 6.54657 43.3816C3.00273 43.3816 0.129883 46.2544 0.129883 49.7983C0.129883 53.3421 3.00273 56.215 6.54657 56.215Z" fill="#404247"/>
<path d="M201.932 65.1583C205.476 65.1583 208.349 62.2855 208.349 58.7416C208.349 55.1978 205.476 52.325 201.932 52.325C198.388 52.325 195.515 55.1978 195.515 58.7416C195.515 62.2855 198.388 65.1583 201.932 65.1583Z" fill="#404247"/>
<path fill-rule="evenodd" clip-rule="evenodd" d="M139.141 76.9945C159.165 76.2969 171.861 61.3663 171.861 44.2035C171.861 24.9472 156.897 10.0865 139.141 10.0865C121.385 10.0865 105.373 23.9724 105.373 41.728C105.373 59.4836 119.479 77.6796 139.141 76.9945ZM138.429 82.6171C161.011 82.6171 179.318 64.3103 179.318 41.728C179.318 19.1457 161.011 0.838867 138.429 0.838867C115.846 0.838867 97.5396 19.1457 97.5396 41.728C97.5396 64.3103 115.846 82.6171 138.429 82.6171Z" fill="#404247"/>
<path fill-rule="evenodd" clip-rule="evenodd" d="M56.6495 74.8275C70.3484 74.8275 81.6265 63.1446 81.6265 49.4461C81.6265 35.7472 71.3163 22.7796 55.8367 22.7796C38.8053 22.7796 30.3395 35.0898 30.3395 48.7884C30.3395 62.487 42.9509 74.8275 56.6495 74.8275ZM56.6495 82.6719C74.6807 82.6719 89.2976 68.0547 89.2976 50.0238C89.2976 31.9929 74.6807 17.3757 56.6495 17.3757C38.6186 17.3757 24.0015 31.9929 24.0015 50.0238C24.0015 68.0547 38.6186 82.6719 56.6495 82.6719Z" fill="#404247"/>
<path fill-rule="evenodd" clip-rule="evenodd" d="M92.9741 38.2277C88.5622 40.2668 87.6099 46.4372 89.2592 50.006C90.9088 53.5749 95.139 55.1305 98.7075 53.4813C98.834 53.4229 98.9213 53.3817 98.9822 53.3523L98.9891 53.3458C99.0846 53.2568 99.2335 53.1186 99.4192 52.9525L104.134 58.2365C104.009 58.3479 103.922 58.4284 103.829 58.5152C103.804 58.5389 103.778 58.563 103.751 58.5883C103.64 58.6909 103.438 58.8776 103.189 59.0642C102.678 59.4475 102.143 59.6947 101.716 59.892L101.679 59.9092C94.5597 63.1996 86.1214 60.0958 82.8313 52.9772C79.5408 45.8582 82.6446 37.4199 89.7636 34.1294C91.7312 33.2202 93.9164 33.1047 94.899 33.1047L95.1268 37.7526C94.8662 37.7526 94.4611 37.811 94.0203 37.8793C93.564 37.9502 93.2088 38.119 92.9741 38.2277Z" fill="#404247"/>
<path fill-rule="evenodd" clip-rule="evenodd" d="M20.5788 59.3045L23.7596 58.7417L22.754 69.731L34.0142 67.2296L34.9537 72.5402L17.6167 75.6074L20.5788 59.3045Z" fill="#404247"/>
<path d="M115.464 154.174C139.948 154.174 159.796 152.15 159.796 149.654C159.796 147.157 139.948 145.134 115.464 145.134C90.9804 145.134 71.1323 147.157 71.1323 149.654C71.1323 152.15 90.9804 154.174 115.464 154.174Z" fill="#C1C6CD"/>
</svg>
