<svg width="4" height="5" viewBox="0 0 4 5" fill="none" xmlns="http://www.w3.org/2000/svg">
<path d="M2.09448 3.51708C1.65657 3.51708 1.30029 3.16081 1.30029 2.7229C1.30029 2.28498 1.65657 1.92871 2.09448 1.92871C2.53236 1.92871 2.88864 2.28498 2.88864 2.7229C2.88864 3.16081 2.53236 3.51708 2.09448 3.51708ZM2.09448 2.16696C1.78791 2.16696 1.53855 2.41636 1.53855 2.7229C1.53855 3.02944 1.78791 3.27883 2.09448 3.27883C2.40102 3.27883 2.65038 3.02944 2.65038 2.7229C2.65038 2.41636 2.40102 2.16696 2.09448 2.16696Z" fill="#3F4C5A" stroke="#3F4C5A" stroke-width="0.0736078"/>
<path d="M2.35856 4.62869H1.83026C1.70319 4.62869 1.5909 4.53848 1.56327 4.41412L1.49641 4.11677C1.38743 4.07055 1.28355 4.0102 1.18603 3.93651L0.896473 4.02797C0.772257 4.06657 0.637251 4.01384 0.574983 3.90265L0.31166 3.44729C0.248578 3.3345 0.269867 3.19569 0.362643 3.10832L0.587052 2.902C0.580247 2.84148 0.576902 2.78145 0.576902 2.72267C0.576902 2.66389 0.580247 2.60387 0.586907 2.54334L0.363749 2.33798C0.269867 2.24966 0.248432 2.11084 0.310846 1.99951L0.575797 1.54127C0.637251 1.43133 0.772577 1.3791 0.896007 1.41705L1.18603 1.50869C1.28355 1.435 1.38743 1.37465 1.49641 1.32841L1.56342 1.03076C1.5909 0.906868 1.70319 0.81665 1.83026 0.81665H2.35856C2.48563 0.81665 2.59792 0.906868 2.62555 1.03123L2.69241 1.32858C2.80139 1.37479 2.90528 1.43514 3.00279 1.50884L3.29235 1.41737C3.41689 1.3791 3.55157 1.43151 3.61384 1.54269L3.87719 1.99805C3.94024 2.11084 3.91896 2.24966 3.82618 2.33702L3.60177 2.54334C3.60843 2.60387 3.61177 2.66407 3.61177 2.72267C3.61177 2.78128 3.60843 2.84148 3.60177 2.902L3.82507 3.10722C3.91896 3.19551 3.94039 3.33436 3.87798 3.44569L3.61303 3.90393C3.55157 4.01384 3.41657 4.06642 3.29267 4.02797L3.00262 3.93633C2.9051 4.01003 2.80121 4.07038 2.69227 4.11662L2.62523 4.41426C2.59792 4.53848 2.48563 4.62869 2.35856 4.62869ZM1.21034 3.68505C1.23765 3.68505 1.2645 3.69441 1.28611 3.71221C1.39523 3.80196 1.51418 3.87121 1.64014 3.9176C1.67809 3.93156 1.70622 3.96381 1.71512 4.00319L1.79597 4.36217C1.79961 4.37869 1.81406 4.39044 1.83043 4.39044H2.35871C2.37508 4.39044 2.38954 4.37869 2.39303 4.36249L2.47402 4.00319C2.48292 3.96381 2.51105 3.93156 2.549 3.9176C2.67479 3.87121 2.79392 3.80196 2.90304 3.71221C2.93419 3.68647 2.97609 3.67821 3.01472 3.69046L3.3643 3.80086C3.38097 3.80609 3.39877 3.7999 3.40639 3.78623L3.67134 3.32799C3.67928 3.31385 3.6764 3.29448 3.66372 3.2821L3.3956 3.03558C3.36651 3.00888 3.35255 2.96933 3.35843 2.93027C3.3689 2.85992 3.37416 2.79003 3.37416 2.72253C3.37416 2.65499 3.3689 2.58511 3.35843 2.51475C3.35255 2.47569 3.36651 2.43629 3.3956 2.40944L3.66433 2.16229C3.6764 2.15103 3.67928 2.13132 3.67052 2.11561L3.40717 1.66022C3.39862 1.64513 3.3805 1.63911 3.36398 1.64434L3.01486 1.75457C2.97641 1.76681 2.9345 1.75855 2.90321 1.73281C2.79409 1.64306 2.67511 1.57381 2.54915 1.52742C2.51119 1.51346 2.48307 1.48121 2.4742 1.44183L2.39335 1.08285C2.38936 1.06665 2.37491 1.0549 2.35856 1.0549H1.83026C1.81391 1.0549 1.79946 1.06665 1.79597 1.08285L1.71494 1.44215C1.70607 1.48153 1.67795 1.51361 1.63999 1.52774C1.51418 1.57413 1.39505 1.64338 1.28611 1.73313C1.25481 1.75887 1.21255 1.76696 1.17445 1.75489L0.82484 1.64449C0.808495 1.63943 0.790376 1.64545 0.782756 1.65911L0.517804 2.11718C0.509865 2.13149 0.512744 2.15118 0.525919 2.16357L0.79372 2.40962C0.822775 2.43629 0.836764 2.47584 0.830889 2.51493C0.82039 2.58528 0.815155 2.65517 0.815155 2.72267C0.815155 2.79018 0.82039 2.86006 0.830889 2.93042C0.836764 2.9695 0.822775 3.00888 0.79372 3.03573L0.524959 3.28288C0.512889 3.29416 0.510039 3.31385 0.518764 3.32959L0.782116 3.78495C0.790521 3.80005 0.80864 3.80592 0.825305 3.80086L1.17445 3.6906C1.1862 3.68679 1.19827 3.68505 1.21034 3.68505Z" fill="#3F4C5A" stroke="#3F4C5A" stroke-width="0.0736078"/>
</svg>
