<svg width="88" height="88" viewBox="0 0 88 88" fill="none" xmlns="http://www.w3.org/2000/svg">
<path d="M43.7278 79.3889C34.2182 79.3889 25.0981 75.6112 18.3738 68.8869C11.6495 62.1626 7.87179 53.0425 7.87179 43.5329C7.87179 34.0233 11.6495 24.9032 18.3738 18.1789C25.0981 11.4546 34.2182 7.67697 43.7278 7.67697C53.2373 7.67697 62.3574 11.4546 69.0817 18.1789C75.806 24.9032 79.5837 34.0233 79.5837 43.5329C79.5837 53.0425 75.806 62.1626 69.0817 68.8869C62.3574 75.6112 53.2373 79.3889 43.7278 79.3889ZM43.7278 84.5112C54.5959 84.5112 65.0188 80.1938 72.7037 72.5089C80.3887 64.824 84.706 54.401 84.706 43.5329C84.706 32.6648 80.3887 22.2418 72.7037 14.5569C65.0188 6.87203 54.5959 2.55469 43.7278 2.55469C32.8596 2.55469 22.4367 6.87203 14.7518 14.5569C7.06685 22.2418 2.74951 32.6648 2.74951 43.5329C2.74951 54.401 7.06685 64.824 14.7518 72.5089C22.4367 80.1938 32.8596 84.5112 43.7278 84.5112V84.5112Z" fill="#457EFF"/>
<path d="M42.2275 21.0327V47.0327H68.2275" stroke="#457EFF" stroke-width="5"/>
</svg>
