<svg width="18" height="17" viewBox="0 0 18 17" fill="none" xmlns="http://www.w3.org/2000/svg">
<rect x="0.773926" y="0.44043" width="16.3991" height="16.3991" rx="4.01282" fill="#36DA76"/>
<path d="M11.0975 11.8375C11.0837 11.5433 11.0655 11.2505 11.0509 10.9584C11.0037 10.0447 11.0076 9.1176 10.9582 8.19937C10.9088 7.28802 10.9381 6.37605 10.912 5.46473C10.9068 5.27533 10.9153 4.90128 10.7193 4.7933C10.2977 4.56135 10.0474 5.19403 9.94015 5.4516C9.7468 5.91913 9.6351 6.41085 9.49699 6.89521C9.3793 7.30981 9.24525 7.72307 9.19982 8.15233C9.16618 8.47443 9.16926 8.83502 9.33753 9.12524C9.42203 9.2711 9.56813 9.37038 9.73449 9.41234C9.90715 9.45651 10.1046 9.39868 10.2684 9.47665C10.3106 9.49705 10.3478 9.53946 10.3648 9.58228C10.4179 9.72028 10.3677 9.92966 10.3511 10.072C10.2985 10.5307 10.2429 10.9939 10.218 11.4547C10.2032 11.7334 10.187 12.0904 10.3556 12.3332C10.4589 12.4806 10.6683 12.6183 10.8573 12.545C11.1397 12.4369 11.1092 12.0717 11.0975 11.8375Z" fill="white"/>
<path d="M7.50492 4.99538C7.42375 5.02792 7.45453 5.31812 7.45091 5.40728C7.44557 5.56747 7.45651 5.77943 7.43722 5.98704C7.43711 5.98889 7.43683 5.99018 7.43656 5.99147C7.43489 6.00589 7.43354 6.02146 7.43116 6.03789C7.42863 6.05376 7.42594 6.06905 7.424 6.08477C7.4067 6.18599 7.37376 6.30585 7.3115 6.36332C7.24081 6.42905 7.08242 6.41522 7.02741 6.33756C6.93741 6.21114 6.94416 5.92889 6.9387 5.92056C6.93504 5.78704 6.91558 5.38318 6.8864 5.1169C6.88398 5.09684 6.8801 4.97615 6.76991 4.96325C6.71852 4.95767 6.66445 5.00146 6.64693 5.08144C6.59517 5.31752 6.54671 5.76753 6.54365 5.8383C6.54304 5.84515 6.54273 5.85314 6.5427 5.85984C6.5427 5.85984 6.54243 5.86113 6.54258 5.8617C6.54225 5.87639 6.52475 6.22895 6.43553 6.35059C6.3889 6.41436 6.26783 6.46451 6.14752 6.39703C6.0996 6.36987 6.06677 6.31751 6.04362 6.26142C5.9178 5.86984 6.03074 5.43845 6.04682 5.23289C6.05157 5.17507 6.10393 4.98204 5.98713 4.9885C5.81126 4.99806 5.58414 5.74737 5.54353 5.91911C5.44397 6.34643 5.42888 6.80303 5.60205 7.21524C5.69827 7.4435 5.88643 7.63034 6.11977 7.72094C6.22289 7.76061 6.3375 7.7894 6.45884 7.80611C6.41518 8.77756 6.36561 9.7913 6.32047 10.3555C6.28575 10.78 6.24475 11.2092 6.25027 11.6356C6.25353 11.8903 6.25084 12.194 6.41804 12.4076C6.59294 12.6307 6.96185 12.528 7.06146 12.2644C7.17319 11.9672 7.14069 11.6208 7.10265 11.0751C7.06444 10.5289 7.02144 9.78365 6.99775 9.38271C6.96306 8.79233 6.95096 8.27643 6.94763 7.80573C7.25828 7.76134 7.54802 7.62804 7.71018 7.38291C7.78132 7.27568 7.82816 7.15588 7.86015 7.03261C7.90922 6.8459 7.93314 6.64136 7.92254 6.44878C7.91176 6.27146 7.76604 4.89078 7.50492 4.99538Z" fill="white"/>
</svg>
