<svg width="416" height="380" viewBox="0 0 416 380" fill="none" xmlns="http://www.w3.org/2000/svg">
<path d="M189.173 379.98C235.192 379.98 272.499 373.977 272.499 366.572C272.499 359.167 235.192 353.164 189.173 353.164C143.153 353.164 105.847 359.167 105.847 366.572C105.847 373.977 143.153 379.98 189.173 379.98Z" fill="#DCE1EF"/>
<circle cx="287.711" cy="243.468" r="61.3964" transform="rotate(6.91117 287.711 243.468)" fill="#457EFF"/>
<circle cx="276.864" cy="168.473" r="44.0298" transform="rotate(6.91117 276.864 168.473)" fill="#457EFF"/>
<circle cx="125.704" cy="150.151" r="34.7628" transform="rotate(6.91117 125.704 150.151)" fill="#457EFF"/>
<circle cx="100.714" cy="210" r="72.0449" transform="rotate(6.91117 100.714 210)" fill="#457EFF"/>
<circle cx="204.749" cy="142.518" r="82.0035" transform="rotate(6.91117 204.749 142.518)" fill="#457EFF"/>
<path d="M276.023 303.825L83.2371 280.457L146.42 201.082L286.42 218.051L276.023 303.825Z" fill="#457EFF"/>
<circle cx="161.426" cy="124.045" r="49.9323" transform="rotate(6.91117 161.426 124.045)" fill="#ECF0F6"/>
<circle cx="161.428" cy="124.045" r="48.7506" transform="rotate(6.91117 161.428 124.045)" fill="#FFFEFE"/>
<circle cx="162.581" cy="140.686" r="10.85" transform="rotate(6.91117 162.581 140.686)" fill="#454545"/>
<path d="M239.551 225.176C238.707 236.279 226.904 245.865 216.206 245.052C205.509 244.24 193.416 231.645 194.204 221.276C194.787 213.607 207.37 209.308 218.068 210.121C228.765 210.933 240.133 217.507 239.551 225.176Z" fill="white"/>
<circle cx="306.43" cy="153.923" r="36.5353" transform="rotate(6.91117 306.43 153.923)" fill="#ECF0F6"/>
<circle cx="306.423" cy="153.92" r="35.6707" transform="rotate(6.91117 306.423 153.92)" fill="#FFFEFE"/>
<circle cx="322.467" cy="152.762" r="8.81342" transform="rotate(6.91117 322.467 152.762)" fill="#454545"/>
<ellipse cx="298.607" cy="220.92" rx="15.2598" ry="8.48553" transform="rotate(6.91117 298.607 220.92)" fill="#FFC6C6"/>
<path fill-rule="evenodd" clip-rule="evenodd" d="M308.917 219.673C309.347 219.862 309.543 220.363 309.355 220.793L306.602 227.074C306.413 227.504 305.912 227.7 305.482 227.511C305.052 227.323 304.856 226.821 305.045 226.391L307.797 220.111C307.986 219.681 308.487 219.485 308.917 219.673Z" fill="black"/>
<path fill-rule="evenodd" clip-rule="evenodd" d="M312.037 220.05C312.467 220.239 312.663 220.74 312.475 221.17L309.722 227.451C309.534 227.881 309.032 228.077 308.602 227.888C308.172 227.7 307.976 227.198 308.165 226.768L310.917 220.488C311.106 220.058 311.607 219.862 312.037 220.05Z" fill="black"/>
<path fill-rule="evenodd" clip-rule="evenodd" d="M315.161 220.427C315.591 220.616 315.787 221.117 315.598 221.547L312.846 227.828C312.657 228.258 312.156 228.454 311.726 228.265C311.296 228.077 311.1 227.575 311.288 227.145L314.041 220.865C314.229 220.435 314.731 220.239 315.161 220.427Z" fill="black"/>
<ellipse cx="136.52" cy="201.213" rx="15.2598" ry="8.48553" transform="rotate(10.9665 136.52 201.213)" fill="#FFC6C6"/>
<path fill-rule="evenodd" clip-rule="evenodd" d="M125.618 198.643C126.048 198.831 126.244 199.332 126.055 199.762L123.364 205.903C123.176 206.333 122.674 206.529 122.244 206.34C121.814 206.152 121.618 205.651 121.807 205.221L124.498 199.08C124.687 198.65 125.188 198.454 125.618 198.643Z" fill="black"/>
<path fill-rule="evenodd" clip-rule="evenodd" d="M128.679 199.015C129.109 199.203 129.305 199.705 129.116 200.135L126.425 206.275C126.237 206.705 125.735 206.901 125.305 206.712C124.875 206.524 124.68 206.023 124.868 205.593L127.559 199.452C127.748 199.022 128.249 198.826 128.679 199.015Z" fill="black"/>
<path fill-rule="evenodd" clip-rule="evenodd" d="M131.728 199.385C132.158 199.573 132.354 200.075 132.166 200.505L129.475 206.645C129.286 207.075 128.785 207.271 128.355 207.083C127.925 206.894 127.729 206.393 127.917 205.963L130.609 199.822C130.797 199.392 131.298 199.196 131.728 199.385Z" fill="black"/>
<path d="M340.447 247.078C345.08 248.511 351.204 248.542 360.496 256.068C369.788 263.594 374.128 272.557 377.294 280.058" stroke="#575A60" stroke-width="3.7899" stroke-linecap="round"/>
<path d="M51.3696 169.419C45.8306 163.322 34.7541 139.358 33.4672 120.704C32.3481 104.482 37.9264 86.3897 40.8058 78.6803" stroke="#404247" stroke-width="3.7899" stroke-linecap="round"/>
<circle cx="44.7742" cy="66.7566" r="12.3584" transform="rotate(6.91117 44.7742 66.7566)" fill="#404247"/>
<circle cx="12.3511" cy="12.3511" r="12.3511" transform="matrix(0.992734 0.12033 0.12033 -0.992734 364.117 300.854)" fill="#575A60"/>
<path fill-rule="evenodd" clip-rule="evenodd" d="M154.504 186.082C190.75 189.199 216.901 165.06 220.651 134.123C224.858 99.4133 201.129 69.3564 169.123 65.477C137.117 61.5975 105.221 83.1285 101.342 115.134C97.4622 147.14 118.912 183.02 154.504 186.082ZM151.991 196.061C192.697 200.995 229.696 171.996 234.63 131.29C239.564 90.5842 210.565 53.5856 169.859 48.6516C129.153 43.7176 92.1545 72.7165 87.2205 113.422C82.2864 154.128 111.285 191.127 151.991 196.061Z" fill="#404247"/>
<path fill-rule="evenodd" clip-rule="evenodd" d="M298.902 197.575C322.483 200.434 344.334 182.676 347.193 159.095C350.051 135.515 335.009 111.042 308.363 107.812C279.045 104.258 261.904 123.682 259.046 147.263C256.188 170.843 275.321 194.717 298.902 197.575ZM297.265 211.078C328.304 214.84 356.515 192.729 360.277 161.691C364.039 130.653 341.928 102.441 310.889 98.6792C279.851 94.917 251.64 117.029 247.878 148.067C244.116 179.105 266.227 207.316 297.265 211.078Z" fill="#404247"/>
<path fill-rule="evenodd" clip-rule="evenodd" d="M244.099 123.668C235.309 126.506 232.101 137.93 234.396 145.04C236.692 152.151 244.317 156.054 251.428 153.758C251.68 153.676 251.854 153.619 251.975 153.577L251.99 153.567C252.191 153.421 252.503 153.194 252.891 152.923L260.578 163.97C260.317 164.152 260.135 164.284 259.939 164.427C259.886 164.465 259.832 164.505 259.774 164.546C259.542 164.715 259.119 165.021 258.607 165.316C257.555 165.922 256.489 166.266 255.637 166.541L255.563 166.565C241.38 171.145 226.169 163.359 221.589 149.176C217.009 134.992 224.795 119.782 238.978 115.202C242.899 113.936 247.048 114.218 248.902 114.443L248.269 123.264C247.777 123.204 246.999 123.222 246.152 123.25C245.275 123.279 244.566 123.517 244.099 123.668Z" fill="#404247"/>
<path fill-rule="evenodd" clip-rule="evenodd" d="M71.9485 112.551L80.0363 113.532L69.5326 139.306L98.538 141.548L96.9013 155.051L52.8185 149.707L71.9485 112.551Z" fill="#404247"/>
<path d="M251.925 26.1235L187.1 33.3205L211.782 57.0333L226.366 63.3752L252.105 74.0968L294.392 73.7974L251.925 26.1235Z" fill="#333539"/>
<path d="M210.854 60.7632L214.898 44.7663C219.378 44.3051 228.034 41.8516 241.053 44.4943C253.475 47.0159 263.283 55.2636 265.268 58.2711L259.516 81.4892C259.516 81.4892 249.274 72.6427 235.706 67.4203C221.938 62.1211 210.854 60.7632 210.854 60.7632Z" fill="#45484F"/>
<rect x="286.747" y="69.4463" width="1.15395" height="13.6628" transform="rotate(0.273212 286.747 69.4463)" fill="#333539"/>
<path d="M285.876 85.8423L288.372 85.8542L289.991 94.5264C289.991 94.5264 288.125 95.4227 286.849 95.4237C285.548 95.4248 283.895 94.2525 283.895 94.2525L285.876 85.8423Z" fill="#333539"/>
<circle cx="287.131" cy="84.3661" r="2.13617" transform="rotate(0.273212 287.131 84.3661)" fill="#333539"/>
<path d="M187.137 33.3451L187.432 31.8762L252.411 25.1113L294.728 72.316L294.326 73.8795L251.651 26.7909L187.137 33.3451Z" fill="#53565E"/>
</svg>
