<svg width="5" height="5" viewBox="0 0 5 5" fill="none" xmlns="http://www.w3.org/2000/svg">
<path d="M2.7263 4.87179C3.94588 4.87179 4.93454 3.88313 4.93454 2.66356C4.93454 1.44398 3.94588 0.455322 2.7263 0.455322C1.50673 0.455322 0.518066 1.44398 0.518066 2.66356C0.518066 3.88313 1.50673 4.87179 2.7263 4.87179Z" fill="#EAECF1"/>
<path d="M1.85873 2.16138C1.92163 2.10235 2.01926 2.09579 2.08987 2.1417L2.11496 2.16138L2.72535 2.73468L3.33656 2.16138C3.39945 2.10235 3.49708 2.09579 3.5677 2.1417L3.59279 2.16138C3.65569 2.22042 3.66267 2.31205 3.61376 2.37833L3.59279 2.40189L2.72576 3.21569L1.85873 2.40189C1.78797 2.33547 1.78797 2.2278 1.85873 2.16138Z" fill="#BBC3D4"/>
</svg>
