<svg width="5" height="6" viewBox="0 0 5 6" fill="none" xmlns="http://www.w3.org/2000/svg">
<path d="M2.7263 5.15133C3.94588 5.15133 4.93454 4.16267 4.93454 2.9431C4.93454 1.72352 3.94588 0.734863 2.7263 0.734863C1.50673 0.734863 0.518066 1.72352 0.518066 2.9431C0.518066 4.16267 1.50673 5.15133 2.7263 5.15133Z" fill="#F2F4F9"/>
<g opacity="0.342332">
<path opacity="0.342332" d="M1.85873 2.44068C1.92163 2.38165 2.01926 2.37509 2.08987 2.421L2.11496 2.44068L2.72535 3.01397L3.33656 2.44068C3.39945 2.38165 3.49708 2.37509 3.5677 2.421L3.59279 2.44068C3.65569 2.49971 3.66267 2.59135 3.61376 2.65763L3.59279 2.68118L2.72576 3.49499L1.85873 2.68118C1.78797 2.61477 1.78797 2.50709 1.85873 2.44068Z" fill="#BBC3D4"/>
</g>
</svg>
