<svg width="101" height="101" viewBox="0 0 101 101" fill="none" xmlns="http://www.w3.org/2000/svg">
<path fill-rule="evenodd" clip-rule="evenodd" d="M40.6226 39.4434C40.191 41.8155 37.7314 55.1773 37.226 57.902C36.7207 60.6267 38.8865 63.0689 41.013 63.0689C43.1394 63.0689 43.4205 63.0689 44.2932 63.0689C45.166 63.0689 46.4654 63.7051 45.9763 66.0217C45.4872 68.3383 44.9815 70.7215 44.4843 72.9725C43.9871 75.2234 46.4787 76.1311 47.5589 74.3762C48.6392 72.6213 56.7049 59.2274 57.6331 57.4261C58.5613 55.6249 57.041 52.8394 54.7526 52.8394C52.4642 52.8394 51.5173 52.8394 50.3169 52.8394C49.1166 52.8394 48.9481 51.9502 49.3838 50.1186C49.8194 48.2869 50.3433 45.8909 51.1532 42.3796C51.9632 38.8682 48.6992 36.9609 46.9794 36.9609C45.2596 36.9609 43.4104 36.9609 42.9005 36.9609C42.3907 36.9609 41.0541 37.0713 40.6226 39.4434Z" fill="#457EFF"/>
<path d="M82.7026 45.058H80.3881V24.5706C80.3881 23.0549 79.786 21.6013 78.7143 20.5296C77.6426 19.4579 76.189 18.8558 74.6734 18.8558H57.5291C57.3484 15.4161 55.9645 12.1493 53.6193 9.62649C51.2741 7.10371 48.1168 5.48546 44.6994 5.05461C42.7447 4.85337 40.7696 5.05751 38.8974 5.65427C37.0252 6.25103 35.2962 7.22758 33.8186 8.52287C32.3409 9.81816 31.1464 11.4043 30.3096 13.1823C29.4728 14.9602 29.0117 16.8916 28.9552 18.8558H8.95354C7.43789 18.8558 5.98431 19.4579 4.91259 20.5296C3.84086 21.6013 3.23877 23.0549 3.23877 24.5706V47.9154H11.268C13.4667 47.8515 15.6117 48.6001 17.2933 50.018C18.9748 51.436 20.0748 53.4239 20.3831 55.6017C20.4943 56.7967 20.3534 58.0016 19.9695 59.1387C19.5855 60.2757 18.9671 61.3194 18.1543 62.2023C17.3554 63.0955 16.3781 63.8113 15.2855 64.3035C14.1929 64.7956 13.0093 65.0533 11.8109 65.0597H3.23877V90.2904C3.23877 91.806 3.84086 93.2596 4.91259 94.3313C5.98431 95.4031 7.43789 96.0052 8.95354 96.0052H74.6734C76.189 96.0052 77.6426 95.4031 78.7143 94.3313C79.786 93.2596 80.3881 91.806 80.3881 90.2904V73.6318H83.2455C85.2509 73.6423 87.236 73.2305 89.0717 72.4231C90.9074 71.6158 92.5526 70.4311 93.9002 68.946C95.2478 67.4609 96.2677 65.7087 96.8935 63.8035C97.5193 61.8982 97.737 59.8826 97.5324 57.8877C97.0694 54.3004 95.3013 51.0093 92.5659 48.6428C89.8304 46.2763 86.3192 45.0001 82.7026 45.058ZM89.5889 65.0597C88.79 65.9529 87.8128 66.6687 86.7201 67.1609C85.6275 67.653 84.4439 67.9106 83.2455 67.9171H74.6734V90.2904H8.95354V70.7745H11.8109C13.8163 70.7849 15.8014 70.3731 17.6371 69.5658C19.4728 68.7584 21.118 67.5737 22.4656 66.0886C23.8132 64.6035 24.8331 62.8513 25.4589 60.9461C26.0847 59.0408 26.3024 57.0252 26.0978 55.0303C25.6348 51.443 23.8667 48.1519 21.1313 45.7854C18.3958 43.4189 14.8846 42.1428 11.268 42.2006H8.95354V24.5706H34.67V19.3415C34.6764 18.1432 34.934 16.9595 35.4262 15.8669C35.9184 14.7743 36.6342 13.797 37.5274 12.9981C38.4103 12.1853 39.454 11.5669 40.591 11.183C41.7281 10.7991 42.933 10.6582 44.1279 10.7694C46.3058 11.0777 48.2937 12.1777 49.7116 13.8592C51.1296 15.5407 51.8782 17.6858 51.8143 19.8844V24.5706H74.6734V50.7728H82.7026C84.9013 50.7089 87.0463 51.4575 88.7279 52.8754C90.4094 54.2934 91.5094 56.2813 91.8177 58.4591C91.9289 59.6541 91.788 60.859 91.4041 61.996C91.0201 63.1331 90.4018 64.1768 89.5889 65.0597Z" fill="#457EFF"/>
</svg>
