<svg width="5" height="5" viewBox="0 0 5 5" fill="none" xmlns="http://www.w3.org/2000/svg">
<path d="M2.7263 4.43649C3.94588 4.43649 4.93454 3.44783 4.93454 2.22825C4.93454 1.00868 3.94588 0.0200195 2.7263 0.0200195C1.50673 0.0200195 0.518066 1.00868 0.518066 2.22825C0.518066 3.44783 1.50673 4.43649 2.7263 4.43649Z" fill="#E5ECFB"/>
<path d="M1.85971 2.73046C1.9226 2.7895 2.02023 2.79606 2.09085 2.75014L2.11594 2.73046L2.72633 2.15717L3.33753 2.73046C3.40043 2.7895 3.49806 2.79606 3.56867 2.75014L3.59377 2.73046C3.65666 2.67143 3.66365 2.57979 3.61473 2.51351L3.59377 2.48996L2.72674 1.67616L1.85971 2.48996C1.78895 2.55637 1.78895 2.66405 1.85971 2.73046Z" fill="#457EFF"/>
</svg>
