<svg width="5" height="4" viewBox="0 0 5 4" fill="none" xmlns="http://www.w3.org/2000/svg">
<path d="M2.33854 3.98665C3.30216 3.98665 4.08333 3.20548 4.08333 2.24186C4.08333 1.27824 3.30216 0.49707 2.33854 0.49707C1.37492 0.49707 0.59375 1.27824 0.59375 2.24186C0.59375 3.20548 1.37492 3.98665 2.33854 3.98665Z" fill="#38D9B6"/>
<path d="M3.05231 1.50805C3.14214 1.41822 3.28779 1.41822 3.37762 1.50805C3.45746 1.5879 3.46634 1.71184 3.40423 1.80149L3.37762 1.83335L2.23577 2.9752C2.15592 3.05505 2.03197 3.06392 1.94232 3.00181L1.91047 2.9752L1.29882 2.36355C1.20899 2.27372 1.20899 2.12808 1.29882 2.03825C1.37867 1.9584 1.50262 1.94952 1.59226 2.01163L1.62412 2.03825L2.07295 2.48701L3.05231 1.50805Z" fill="white"/>
</svg>
