<svg width="7" height="7" viewBox="0 0 7 7" fill="none" xmlns="http://www.w3.org/2000/svg">
<g clip-path="url(#clip0_1065_813)">
<path d="M6.3144 5.58005C6.15317 5.43631 6.01201 5.27153 5.89473 5.09015C5.76669 4.83977 5.68995 4.56635 5.66901 4.28591V3.45994C5.67011 3.01947 5.51034 2.59375 5.2197 2.26278C4.92905 1.93181 4.52755 1.71836 4.09063 1.66253V1.44685C4.09063 1.38765 4.06712 1.33087 4.02526 1.28901C3.9834 1.24715 3.92662 1.22363 3.86742 1.22363C3.80822 1.22363 3.75145 1.24715 3.70959 1.28901C3.66773 1.33087 3.64421 1.38765 3.64421 1.44685V1.66588C3.2112 1.72572 2.81455 1.94046 2.52773 2.27033C2.24091 2.60019 2.08335 3.02282 2.08423 3.45994V4.28591C2.06329 4.56635 1.98654 4.83977 1.85851 5.09015C1.74328 5.27112 1.60439 5.43587 1.44552 5.58005C1.42769 5.59571 1.41339 5.615 1.40359 5.63662C1.39379 5.65824 1.3887 5.68171 1.38867 5.70545V5.93284C1.38867 5.97718 1.40629 6.01971 1.43764 6.05107C1.469 6.08242 1.51153 6.10004 1.55587 6.10004H6.20405C6.24839 6.10004 6.29092 6.08242 6.32228 6.05107C6.35363 6.01971 6.37125 5.97718 6.37125 5.93284V5.70545C6.37122 5.68171 6.36613 5.65824 6.35633 5.63662C6.34653 5.615 6.33224 5.59571 6.3144 5.58005ZM1.73645 5.76564C1.89201 5.61536 2.02898 5.44695 2.14442 5.26404C2.3057 4.96165 2.39981 4.62801 2.4203 4.28591V3.45994C2.41367 3.26399 2.44654 3.0687 2.51695 2.88572C2.58736 2.70273 2.69388 2.53579 2.83015 2.39482C2.96642 2.25386 3.12967 2.14176 3.31017 2.0652C3.49067 1.98864 3.68473 1.94918 3.8808 1.94918C4.07686 1.94918 4.27092 1.98864 4.45142 2.0652C4.63192 2.14176 4.79517 2.25386 4.93144 2.39482C5.06772 2.53579 5.17423 2.70273 5.24464 2.88572C5.31506 3.0687 5.34793 3.26399 5.34129 3.45994V4.28591C5.36179 4.62801 5.45589 4.96165 5.61718 5.26404C5.73261 5.44695 5.86958 5.61536 6.02514 5.76564H1.73645Z" fill="#424242"/>
<path d="M3.88804 6.64684C3.99337 6.64442 4.09444 6.60482 4.17338 6.53505C4.25233 6.46529 4.30406 6.36985 4.31942 6.26562H3.43994C3.45574 6.37269 3.50989 6.47036 3.59231 6.54049C3.67474 6.61061 3.77983 6.64841 3.88804 6.64684Z" fill="#424242"/>
<circle cx="5.50729" cy="2.28854" r="0.877803" fill="#F99A0E" stroke="white" stroke-width="0.250801"/>
</g>
<defs>
<clipPath id="clip0_1065_813">
<rect width="6.01922" height="6.01922" fill="white" transform="translate(0.878418 0.925781)"/>
</clipPath>
</defs>
</svg>
