<svg width="556" height="685" viewBox="0 0 556 685" fill="none" xmlns="http://www.w3.org/2000/svg">
<g opacity="0.7" filter="url(#filter0_d_1003_3248)">
<mask id="mask0_1003_3248" style="mask-type:alpha" maskUnits="userSpaceOnUse" x="29" y="27" width="615" height="1261">
<path d="M620.763 27.5742H52.8652C40.15 27.5742 29.8423 37.8819 29.8423 50.5971V1264.37C29.8423 1277.08 40.15 1287.39 52.8652 1287.39H620.763C633.478 1287.39 643.786 1277.08 643.786 1264.37V50.5971C643.786 37.8819 633.478 27.5742 620.763 27.5742Z" fill="white"/>
</mask>
<g mask="url(#mask0_1003_3248)">
<g filter="url(#filter1_d_1003_3248)">
<path d="M620.763 27.5742H52.8652C40.15 27.5742 29.8423 37.8819 29.8423 50.5971V1264.37C29.8423 1277.08 40.15 1287.39 52.8652 1287.39H620.763C633.478 1287.39 643.786 1277.08 643.786 1264.37V50.5971C643.786 37.8819 633.478 27.5742 620.763 27.5742Z" fill="black"/>
</g>
<path d="M620.763 27.5742H52.8652C40.15 27.5742 29.8423 37.8819 29.8423 50.5971V1264.37C29.8423 1277.08 40.15 1287.39 52.8652 1287.39H620.763C633.478 1287.39 643.786 1277.08 643.786 1264.37V50.5971C643.786 37.8819 633.478 27.5742 620.763 27.5742Z" fill="white"/>
<path d="M136.721 199.567H197.179" stroke="#E0E7F2" stroke-width="3.87827" stroke-linecap="round"/>
<path d="M211.728 159.386H72.4392C66.0816 159.386 60.9277 164.54 60.9277 170.897V229.606C60.9277 235.963 66.0816 241.117 72.4392 241.117H211.728C218.085 241.117 223.239 235.963 223.239 229.606V170.897C223.239 164.54 218.085 159.386 211.728 159.386Z" stroke="#E0E7F2" stroke-width="1.35739"/>
<path d="M103.09 185.632H89.209C84.9706 185.632 81.5347 189.068 81.5347 193.306V207.187C81.5347 211.425 84.9706 214.861 89.209 214.861H103.09C107.328 214.861 110.764 211.425 110.764 207.187V193.306C110.764 189.068 107.328 185.632 103.09 185.632Z" fill="#E0E7F2"/>
<path d="M330.097 199.567H583.349" stroke="#E0E7F2" stroke-width="3.87827" stroke-linecap="round"/>
<path d="M289.934 185.632H276.053C271.814 185.632 268.378 189.068 268.378 193.306V207.187C268.378 211.425 271.814 214.861 276.053 214.861H289.934C294.172 214.861 297.608 211.425 297.608 207.187V193.306C297.608 189.068 294.172 185.632 289.934 185.632Z" fill="#E0E7F2"/>
<path d="M601.199 159.386H258.542C252.184 159.386 247.03 164.54 247.03 170.897V229.606C247.03 235.963 252.184 241.117 258.542 241.117H601.199C607.557 241.117 612.711 235.963 612.711 229.606V170.897C612.711 164.54 607.557 159.386 601.199 159.386Z" stroke="#E0E7F2" stroke-width="1.35739"/>
<path d="M65.0576 318.887H545.359" stroke="#E0E7F2" stroke-width="3.87827" stroke-linecap="round"/>
<path d="M67.9482 289.706H339.125" stroke="#E0E7F2" stroke-width="7.75654" stroke-linecap="round"/>
<path d="M215.283 368.861H81.2578C72.781 368.861 65.9092 375.733 65.9092 384.21V508.15C65.9092 516.627 72.781 523.498 81.2578 523.498H215.283C223.759 523.498 230.631 516.627 230.631 508.15V384.21C230.631 375.733 223.759 368.861 215.283 368.861Z" stroke="#E0E7F2" stroke-width="1.35739"/>
<path d="M114.497 489.642H182.472" stroke="#E0E7F2" stroke-width="3.87827" stroke-linecap="round"/>
<path d="M173.131 431.904C173.131 418.171 161.999 407.038 148.266 407.038C134.533 407.038 123.4 418.171 123.4 431.904C123.4 445.637 134.533 456.769 148.266 456.769C161.999 456.769 173.131 445.637 173.131 431.904Z" fill="#E0E7F2"/>
<path d="M215.283 545.377H81.2578C72.781 545.377 65.9092 552.249 65.9092 560.726V684.665C65.9092 693.142 72.781 700.014 81.2578 700.014H215.283C223.759 700.014 230.631 693.142 230.631 684.665V560.726C230.631 552.249 223.759 545.377 215.283 545.377Z" stroke="#E0E7F2" stroke-width="1.35739"/>
<path d="M114.503 666.157H182.478" stroke="#E0E7F2" stroke-width="3.87827" stroke-linecap="round"/>
<path d="M173.136 608.414C173.136 594.681 162.003 583.548 148.27 583.548C134.537 583.548 123.404 594.681 123.404 608.414C123.404 622.146 134.537 633.279 148.27 633.279C162.003 633.279 173.136 622.146 173.136 608.414Z" fill="#E0E7F2"/>
<path d="M405.672 368.861H271.647C263.17 368.861 256.298 375.733 256.298 384.21V508.15C256.298 516.627 263.17 523.498 271.647 523.498H405.672C414.148 523.498 421.02 516.627 421.02 508.15V384.21C421.02 375.733 414.148 368.861 405.672 368.861Z" stroke="#E0E7F2" stroke-width="1.35739"/>
<path d="M293.389 489.642H383.562" stroke="#E0E7F2" stroke-width="3.87827" stroke-linecap="round"/>
<path d="M363.525 431.904C363.525 418.171 352.392 407.038 338.659 407.038C324.926 407.038 313.793 418.171 313.793 431.904C313.793 445.637 324.926 456.769 338.659 456.769C352.392 456.769 363.525 445.637 363.525 431.904Z" fill="#E0E7F2"/>
<path d="M596.07 545.377H462.045C453.568 545.377 446.696 552.249 446.696 560.726V684.665C446.696 693.142 453.568 700.014 462.045 700.014H596.07C604.546 700.014 611.418 693.142 611.418 684.665V560.726C611.418 552.249 604.546 545.377 596.07 545.377Z" stroke="#E0E7F2" stroke-width="1.35739"/>
<path d="M483.782 666.157H573.955" stroke="#E0E7F2" stroke-width="3.87827" stroke-linecap="round"/>
<path d="M553.923 608.414C553.923 594.681 542.79 583.548 529.057 583.548C515.324 583.548 504.191 594.681 504.191 608.414C504.191 622.146 515.324 633.279 529.057 633.279C542.79 633.279 553.923 622.146 553.923 608.414Z" fill="#E0E7F2"/>
<path d="M495.192 497.509H562.441" stroke="#E0E7F2" stroke-width="3.87827" stroke-linecap="round"/>
<path d="M483.782 481.793H573.955" stroke="#E0E7F2" stroke-width="3.87827" stroke-linecap="round"/>
<path d="M553.923 431.904C553.923 418.171 542.79 407.038 529.057 407.038C515.324 407.038 504.191 418.171 504.191 431.904C504.191 445.637 515.324 456.769 529.057 456.769C542.79 456.769 553.923 445.637 553.923 431.904Z" fill="#E0E7F2"/>
<path d="M596.07 368.861H462.045C453.568 368.861 446.696 375.733 446.696 384.21V508.15C446.696 516.627 453.568 523.498 462.045 523.498H596.07C604.546 523.498 611.418 516.627 611.418 508.15V384.21C611.418 375.733 604.546 368.861 596.07 368.861Z" stroke="#E0E7F2" stroke-width="1.35739"/>
<path d="M304.799 674.024H372.048" stroke="#E0E7F2" stroke-width="3.87827" stroke-linecap="round"/>
<path d="M293.389 658.309H383.562" stroke="#E0E7F2" stroke-width="3.87827" stroke-linecap="round"/>
<path d="M363.525 608.414C363.525 594.681 352.392 583.548 338.659 583.548C324.926 583.548 313.793 594.681 313.793 608.414C313.793 622.146 324.926 633.279 338.659 633.279C352.392 633.279 363.525 622.146 363.525 608.414Z" fill="#E0E7F2"/>
<path d="M405.672 545.377H271.647C263.17 545.377 256.298 552.249 256.298 560.726V684.665C256.298 693.142 263.17 700.014 271.647 700.014H405.672C414.148 700.014 421.02 693.142 421.02 684.665V560.726C421.02 552.249 414.148 545.377 405.672 545.377Z" stroke="#E0E7F2" stroke-width="1.35739"/>
<path d="M80.6844 99.7965C92.34 99.7965 101.789 90.3478 101.789 78.6922C101.789 67.0366 92.34 57.5879 80.6844 57.5879C69.0288 57.5879 59.5801 67.0366 59.5801 78.6922C59.5801 90.3478 69.0288 99.7965 80.6844 99.7965Z" fill="#457EFF"/>
<path fill-rule="evenodd" clip-rule="evenodd" d="M75.3881 66.7036C75.0682 68.3986 73.2446 77.9464 72.8699 79.8934C72.4953 81.8404 74.101 83.5855 75.6776 83.5855C77.2541 83.5855 77.4625 83.5855 78.1095 83.5855C78.7566 83.5855 79.72 84.0401 79.3574 85.6954C78.9947 87.3508 78.6198 89.0538 78.2512 90.6622C77.8826 92.2707 79.7298 92.9192 80.5307 91.6653C81.3316 90.4113 87.3115 80.8405 87.9997 79.5534C88.6878 78.2663 87.5607 76.2759 85.8641 76.2759C84.1675 76.2759 83.4654 76.2759 82.5755 76.2759C81.6855 76.2759 81.5607 75.6405 81.8836 74.3317C82.2066 73.0228 82.595 71.3107 83.1955 68.8017C83.796 66.2926 81.3761 64.9297 80.101 64.9297C78.826 64.9297 77.455 64.9297 77.077 64.9297C76.699 64.9297 75.7081 65.0086 75.3881 66.7036Z" fill="white"/>
<path d="M29.8423 128.291H643.786" stroke="#E0E7F2" stroke-width="1.35739"/>
</g>
</g>
<defs>
<filter id="filter0_d_1003_3248" x="0.405874" y="0.590842" width="672.817" height="1318.69" filterUnits="userSpaceOnUse" color-interpolation-filters="sRGB">
<feFlood flood-opacity="0" result="BackgroundImageFix"/>
<feColorMatrix in="SourceAlpha" type="matrix" values="0 0 0 0 0 0 0 0 0 0 0 0 0 0 0 0 0 0 127 0" result="hardAlpha"/>
<feOffset dy="2.45303"/>
<feGaussianBlur stdDeviation="14.7182"/>
<feComposite in2="hardAlpha" operator="out"/>
<feColorMatrix type="matrix" values="0 0 0 0 0 0 0 0 0 0 0 0 0 0 0 0 0 0 0.04 0"/>
<feBlend mode="normal" in2="BackgroundImageFix" result="effect1_dropShadow_1003_3248"/>
<feBlend mode="normal" in="SourceGraphic" in2="effect1_dropShadow_1003_3248" result="shape"/>
</filter>
<filter id="filter1_d_1003_3248" x="-15.8121" y="-18.0802" width="705.253" height="1351.12" filterUnits="userSpaceOnUse" color-interpolation-filters="sRGB">
<feFlood flood-opacity="0" result="BackgroundImageFix"/>
<feColorMatrix in="SourceAlpha" type="matrix" values="0 0 0 0 0 0 0 0 0 0 0 0 0 0 0 0 0 0 127 0" result="hardAlpha"/>
<feOffset/>
<feGaussianBlur stdDeviation="22.8272"/>
<feColorMatrix type="matrix" values="0 0 0 0 0 0 0 0 0 0 0 0 0 0 0 0 0 0 0.2 0"/>
<feBlend mode="normal" in2="BackgroundImageFix" result="effect1_dropShadow_1003_3248"/>
<feBlend mode="normal" in="SourceGraphic" in2="effect1_dropShadow_1003_3248" result="shape"/>
</filter>
</defs>
</svg>
