<svg width="419" height="64" viewBox="0 0 419 64" fill="none" xmlns="http://www.w3.org/2000/svg">
<g filter="url(#filter0_d_1003_3562)">
<path d="M407.742 9.1123H11.499C10.1183 9.1123 8.99902 10.9693 8.99902 13.2599V51.6254C8.99902 53.9161 10.1183 55.773 11.499 55.773H407.742C409.123 55.773 410.242 53.9161 410.242 51.6254V13.2599C410.242 10.9693 409.123 9.1123 407.742 9.1123Z" fill="black"/>
</g>
<path d="M407.742 9.1123H11.499C10.1183 9.1123 8.99902 10.9693 8.99902 13.2599V51.6254C8.99902 53.9161 10.1183 55.773 11.499 55.773H407.742C409.123 55.773 410.242 53.9161 410.242 51.6254V13.2599C410.242 10.9693 409.123 9.1123 407.742 9.1123Z" fill="white"/>
<defs>
<filter id="filter0_d_1003_3562" x="0.8182" y="0.931481" width="417.605" height="63.0223" filterUnits="userSpaceOnUse" color-interpolation-filters="sRGB">
<feFlood flood-opacity="0" result="BackgroundImageFix"/>
<feColorMatrix in="SourceAlpha" type="matrix" values="0 0 0 0 0 0 0 0 0 0 0 0 0 0 0 0 0 0 127 0" result="hardAlpha"/>
<feOffset/>
<feGaussianBlur stdDeviation="4.09041"/>
<feColorMatrix type="matrix" values="0 0 0 0 0 0 0 0 0 0 0 0 0 0 0 0 0 0 0.0418522 0"/>
<feBlend mode="normal" in2="BackgroundImageFix" result="effect1_dropShadow_1003_3562"/>
<feBlend mode="normal" in="SourceGraphic" in2="effect1_dropShadow_1003_3562" result="shape"/>
</filter>
</defs>
</svg>
