<svg width="94" height="91" viewBox="0 0 94 91" fill="none" xmlns="http://www.w3.org/2000/svg">
<g filter="url(#filter0_d_1003_3158)">
<path d="M91.0992 0.52832H2.87261C1.71246 0.52832 0.771973 1.46881 0.771973 2.62895V88.4048C0.771973 89.5649 1.71246 90.5054 2.87261 90.5054H91.0992C92.2593 90.5054 93.1998 89.5649 93.1998 88.4048V2.62895C93.1998 1.46881 92.2593 0.52832 91.0992 0.52832Z" fill="black"/>
</g>
<path d="M91.0992 0.52832H2.87261C1.71246 0.52832 0.771973 1.46881 0.771973 2.62895V88.4048C0.771973 89.5649 1.71246 90.5054 2.87261 90.5054H91.0992C92.2593 90.5054 93.1998 89.5649 93.1998 88.4048V2.62895C93.1998 1.46881 92.2593 0.52832 91.0992 0.52832Z" fill="white"/>
<defs>
<filter id="filter0_d_1003_3158" x="-2.72908" y="-1.57231" width="99.4298" height="96.9792" filterUnits="userSpaceOnUse" color-interpolation-filters="sRGB">
<feFlood flood-opacity="0" result="BackgroundImageFix"/>
<feColorMatrix in="SourceAlpha" type="matrix" values="0 0 0 0 0 0 0 0 0 0 0 0 0 0 0 0 0 0 127 0" result="hardAlpha"/>
<feOffset dy="1.40042"/>
<feGaussianBlur stdDeviation="1.75053"/>
<feColorMatrix type="matrix" values="0 0 0 0 0 0 0 0 0 0 0 0 0 0 0 0 0 0 0.0547148 0"/>
<feBlend mode="normal" in2="BackgroundImageFix" result="effect1_dropShadow_1003_3158"/>
<feBlend mode="normal" in="SourceGraphic" in2="effect1_dropShadow_1003_3158" result="shape"/>
</filter>
</defs>
</svg>
