<svg width="24" height="21" viewBox="0 0 24 21" fill="none" xmlns="http://www.w3.org/2000/svg">
<path opacity="0.5" d="M21.9189 1.02637H2.49159C1.67833 1.02637 1.01904 1.69487 1.01904 2.51951V19.1842C1.01904 20.0088 1.67833 20.6773 2.49159 20.6773H21.9189C22.7322 20.6773 23.3915 20.0088 23.3915 19.1842V2.51951C23.3915 1.69487 22.7322 1.02637 21.9189 1.02637Z" stroke="#D1D7E4" stroke-width="0.511301"/>
<path opacity="0.5" d="M20.9744 3.13281H3.43567C3.16459 3.13281 2.94482 3.35565 2.94482 3.63053V17.9685C2.94482 18.2434 3.16459 18.4662 3.43567 18.4662H20.9744C21.2454 18.4662 21.4652 18.2434 21.4652 17.9685V3.63053C21.4652 3.35565 21.2454 3.13281 20.9744 3.13281Z" fill="#38D9B6" stroke="#38D9B6" stroke-width="0.511301"/>
<path opacity="0.5" d="M14.0134 8.91422C14.2474 8.67703 14.6266 8.67703 14.8605 8.91422C15.0684 9.12505 15.0915 9.45232 14.9298 9.68903L14.8605 9.77314L11.8872 12.7881C11.6793 12.9989 11.3565 13.0223 11.1231 12.8583L11.0401 12.7881L9.44741 11.1731C9.21349 10.9359 9.21349 10.5513 9.44741 10.3141C9.65533 10.1033 9.97809 10.0799 10.2115 10.2439L10.2945 10.3141L11.4632 11.499L14.0134 8.91422Z" fill="white"/>
</svg>
