<svg width="17" height="20" viewBox="0 0 17 20" fill="none" xmlns="http://www.w3.org/2000/svg">
<path opacity="0.5" d="M14.6664 0.331055H1.94618C1.13291 0.331055 0.473633 0.999558 0.473633 1.8242V17.4562C0.473633 18.2808 1.13291 18.9493 1.94618 18.9493H14.6664C15.4797 18.9493 16.139 18.2808 16.139 17.4562V1.8242C16.139 0.999558 15.4797 0.331055 14.6664 0.331055Z" stroke="#D1D7E4" stroke-width="0.511301"/>
<path opacity="0.5" d="M14.1052 1.65137H2.50501C2.23392 1.65137 2.01416 1.8742 2.01416 2.14908V17.0868C2.01416 17.3617 2.23392 17.5846 2.50501 17.5846H14.1052C14.3762 17.5846 14.596 17.3617 14.596 17.0868V2.14908C14.596 1.8742 14.3762 1.65137 14.1052 1.65137Z" fill="#38D9B6"/>
<path opacity="0.5" d="M10.0136 7.83633C10.2286 7.61836 10.5771 7.61836 10.7921 7.83633C10.9832 8.03009 11.0044 8.33085 10.8558 8.54839L10.7921 8.62569L8.05962 11.3964C7.86854 11.5902 7.57193 11.6117 7.3574 11.461L7.28116 11.3964L5.81747 9.91224C5.60251 9.69426 5.60251 9.34086 5.81747 9.12288C6.00855 8.92912 6.30517 8.9076 6.5197 9.05829L6.59593 9.12288L7.66998 10.2118L10.0136 7.83633Z" fill="white"/>
</svg>
