<svg width="18" height="20" viewBox="0 0 18 20" fill="none" xmlns="http://www.w3.org/2000/svg">
<path opacity="0.5" d="M13.7399 1.86426L3.68662 1.86426C2.95468 1.86426 2.36133 2.46591 2.36133 3.20809L2.36133 15.3122C2.36133 16.0544 2.95468 16.6561 3.68662 16.6561L13.7399 16.6561C14.4718 16.6561 15.0652 16.0544 15.0652 15.3122L15.0652 3.20809C15.0652 2.46591 14.4718 1.86426 13.7399 1.86426Z" stroke="#D1D7E4" stroke-width="0.511301"/>
<path opacity="0.5" d="M8.71451 6.72327C9.27955 6.72327 9.73761 6.2588 9.73761 5.68585C9.73761 5.1129 9.27955 4.64844 8.71451 4.64844C8.14946 4.64844 7.69141 5.1129 7.69141 5.68585C7.69141 6.2588 8.14946 6.72327 8.71451 6.72327Z" fill="#C9D1E1"/>
<path opacity="0.5" d="M8.71448 10.2975C9.2795 10.2975 9.73755 9.833 9.73755 9.26006C9.73755 8.68712 9.2795 8.22266 8.71448 8.22266C8.14945 8.22266 7.69141 8.68712 7.69141 9.26006C7.69141 9.833 8.14945 10.2975 8.71448 10.2975Z" fill="#C9D1E1"/>
<path opacity="0.5" d="M8.71451 13.8707C9.27955 13.8707 9.73761 13.4062 9.73761 12.8333C9.73761 12.2604 9.27955 11.7959 8.71451 11.7959C8.14946 11.7959 7.69141 12.2604 7.69141 12.8333C7.69141 13.4062 8.14946 13.8707 8.71451 13.8707Z" fill="#C9D1E1"/>
<path opacity="0.5" d="M1.01562 14.2051V16.4866C1.01562 17.3113 1.67491 17.9798 2.48818 17.9798H4.83936" stroke="#D1D7E4" stroke-width="0.511301" stroke-linecap="round"/>
<path opacity="0.5" d="M16.4106 4.31348V2.03194C16.4106 1.20729 15.7514 0.538788 14.9381 0.538788H12.587" stroke="#D1D7E4" stroke-width="0.511301" stroke-linecap="round"/>
<path opacity="0.5" d="M15.0533 19.0573C16.3701 19.0573 17.4376 17.9711 17.4376 16.6312C17.4376 15.2913 16.3701 14.2051 15.0533 14.2051C13.7364 14.2051 12.6689 15.2913 12.6689 16.6312C12.6689 17.9711 13.7364 19.0573 15.0533 19.0573Z" fill="#CBD0DC"/>
</svg>
