<svg width="26" height="20" viewBox="0 0 26 20" fill="none" xmlns="http://www.w3.org/2000/svg">
<path opacity="0.5" d="M2.65479 16.699V2.14433C2.65479 1.36186 3.29093 0.727539 4.07567 0.727539H22.504C23.2888 0.727539 23.9249 1.36186 23.9249 2.14433V16.699" stroke="#D1D7E4" stroke-width="0.511301"/>
<path opacity="0.5" d="M21.3881 2.38672H5.19007C4.91898 2.38672 4.69922 2.60955 4.69922 2.88443V14.7466C4.69922 15.0215 4.91898 15.2444 5.19007 15.2444H21.3881C21.6592 15.2444 21.879 15.0215 21.879 14.7466V2.88443C21.879 2.60955 21.6592 2.38672 21.3881 2.38672Z" fill="#38D9B6"/>
<g opacity="0.5">
<path opacity="0.5" d="M14.999 7.03555C15.214 6.81758 15.5625 6.81758 15.7775 7.03555C15.9686 7.22931 15.9898 7.53007 15.8412 7.7476L15.7775 7.82491L13.045 10.5956C12.8539 10.7894 12.5573 10.8109 12.3428 10.6602L12.2665 10.5956L10.8028 9.11144C10.5879 8.89347 10.5879 8.54006 10.8028 8.32209C10.9939 8.12833 11.2905 8.1068 11.5051 8.2575L11.5813 8.32209L12.6554 9.41101L14.999 7.03555Z" fill="white"/>
</g>
<path opacity="0.5" d="M24.7342 16.7021H1.84276C1.28158 16.7021 0.82666 17.1634 0.82666 17.7325C0.82666 18.3015 1.28158 18.7628 1.84276 18.7628H24.7342C25.2954 18.7628 25.7503 18.3015 25.7503 17.7325C25.7503 17.1634 25.2954 16.7021 24.7342 16.7021Z" stroke="#D1D7E4" stroke-width="0.511301"/>
</svg>
