<svg width="3" height="4" viewBox="0 0 3 4" fill="none" xmlns="http://www.w3.org/2000/svg">
<path fill-rule="evenodd" clip-rule="evenodd" d="M1.33321 0.945068C2.06236 0.945068 2.65409 1.53624 2.65409 2.26539C2.65409 2.57948 2.54472 2.86805 2.36243 3.09465L2.91771 3.65021C2.97099 3.70517 2.97099 3.79379 2.91771 3.84876C2.87003 3.89728 2.79431 3.9026 2.73822 3.86474L2.71859 3.84876L2.16332 3.2932C1.93616 3.47633 1.64731 3.58599 1.33321 3.58599C0.604064 3.58599 0.0151367 2.99481 0.0151367 2.26539C0.0151367 1.53624 0.604064 0.945068 1.33321 0.945068ZM1.33321 1.22551C0.761111 1.22551 0.295578 1.69104 0.295578 2.26539C0.295578 2.83973 0.761111 3.30554 1.33321 3.30554C1.90812 3.30554 2.37365 2.83973 2.37365 2.26539C2.37365 1.69104 1.90812 1.22551 1.33321 1.22551Z" fill="#457EFF"/>
</svg>
