<svg width="33" height="8" viewBox="0 0 33 8" fill="none" xmlns="http://www.w3.org/2000/svg">
<g clip-path="url(#clip0_1065_1132)">
<path d="M3.82931 0.447266C1.83469 0.447266 0.217773 2.06418 0.217773 4.0588C0.217773 6.05342 1.83469 7.67033 3.82931 7.67033C5.82393 7.67033 7.44084 6.05342 7.44084 4.0588C7.44084 2.06418 5.82393 0.447266 3.82931 0.447266ZM4.68479 2.94299H4.14193C4.0776 2.94299 4.00612 3.02763 4.00612 3.14012V3.53212H4.68517L4.58246 4.09115H4.00612V5.76939H3.36545V4.09115H2.78422V3.53212H3.36545V3.20332C3.36545 2.73156 3.69275 2.34821 4.14193 2.34821H4.68479V2.94299Z" fill="white"/>
</g>
<g clip-path="url(#clip1_1065_1132)">
<path d="M28.9099 0.447266C26.9153 0.447266 25.2983 2.06418 25.2983 4.0588C25.2983 6.05342 26.9153 7.67033 28.9099 7.67033C30.9045 7.67033 32.5214 6.05342 32.5214 4.0588C32.5214 2.06418 30.9045 0.447266 28.9099 0.447266ZM30.3789 3.40571C30.3804 3.43656 30.3808 3.46741 30.3808 3.49751C30.3808 4.43801 29.6657 5.52185 28.3572 5.52185C27.9706 5.52249 27.592 5.41145 27.267 5.20208C27.3223 5.20885 27.3791 5.21148 27.4367 5.21148C27.77 5.21148 28.0766 5.09824 28.32 4.90713C28.1717 4.90422 28.0279 4.8551 27.9088 4.76663C27.7898 4.67815 27.7012 4.55473 27.6556 4.41356C27.7621 4.43381 27.8719 4.42957 27.9765 4.40114C27.8155 4.36859 27.6707 4.28135 27.5667 4.15423C27.4627 4.0271 27.4059 3.86792 27.4058 3.70367V3.69501C27.5018 3.74806 27.6116 3.78041 27.7282 3.78417C27.5773 3.6837 27.4704 3.52936 27.4295 3.35272C27.3886 3.17608 27.4167 2.99048 27.5081 2.83389C27.6868 3.05359 27.9097 3.23332 28.1622 3.36144C28.4147 3.48956 28.6914 3.56321 28.9742 3.57764C28.9382 3.42502 28.9537 3.26479 29.0182 3.12187C29.0827 2.97895 29.1926 2.86135 29.3309 2.78734C29.4691 2.71333 29.6279 2.68706 29.7826 2.71263C29.9373 2.73819 30.0792 2.81415 30.1863 2.92869C30.3455 2.89719 30.4982 2.8388 30.6378 2.75601C30.5847 2.92084 30.4736 3.0608 30.3251 3.1499C30.4662 3.13291 30.6039 3.095 30.7337 3.03741C30.6383 3.18033 30.5182 3.30506 30.3789 3.40571Z" fill="white"/>
</g>
<g clip-path="url(#clip2_1065_1132)">
<path d="M17.4975 4.0588C17.4975 4.35812 17.3786 4.64519 17.1669 4.85684C16.9552 5.0685 16.6682 5.1874 16.3689 5.1874C16.0695 5.1874 15.7825 5.0685 15.5708 4.85684C15.3592 4.64519 15.2403 4.35812 15.2403 4.0588C15.2403 3.99447 15.247 3.93164 15.2587 3.8707H14.8641V5.37438C14.8641 5.47896 14.9487 5.5636 15.0533 5.5636H17.6848C17.7349 5.56351 17.783 5.54352 17.8184 5.50805C17.8538 5.47257 17.8737 5.4245 17.8737 5.37438V3.8707H17.479C17.4907 3.93164 17.4975 3.99447 17.4975 4.0588ZM16.3689 4.8112C16.4677 4.81118 16.5655 4.79169 16.6568 4.75384C16.7481 4.716 16.8311 4.66054 16.901 4.59064C16.9708 4.52074 17.0262 4.43776 17.064 4.34644C17.1018 4.25512 17.1213 4.15725 17.1213 4.05842C17.1212 3.95959 17.1017 3.86173 17.0639 3.77043C17.0261 3.67913 16.9706 3.59618 16.9007 3.52632C16.8308 3.45645 16.7478 3.40103 16.6565 3.36324C16.5652 3.32544 16.4673 3.306 16.3685 3.30602C16.1689 3.30607 15.9775 3.38541 15.8364 3.52658C15.6953 3.66776 15.616 3.8592 15.6161 4.0588C15.6161 4.2584 15.6955 4.4498 15.8366 4.59091C15.9778 4.73201 16.1693 4.81125 16.3689 4.8112ZM17.2717 3.26878H17.7228C17.7528 3.26878 17.7815 3.2569 17.8027 3.23574C17.824 3.21459 17.8359 3.18588 17.836 3.15592V2.70485C17.836 2.67482 17.8241 2.64602 17.8029 2.62478C17.7816 2.60354 17.7528 2.59161 17.7228 2.59161H17.2717C17.2417 2.59161 17.2129 2.60354 17.1917 2.62478C17.1704 2.64602 17.1585 2.67482 17.1585 2.70485V3.15592C17.1589 3.21799 17.2097 3.26878 17.2717 3.26878ZM16.3689 0.447266C15.411 0.447266 14.4924 0.827765 13.8151 1.50506C13.1378 2.18235 12.7573 3.10096 12.7573 4.0588C12.7573 5.01664 13.1378 5.93525 13.8151 6.61254C14.4924 7.28983 15.411 7.67033 16.3689 7.67033C16.8431 7.67033 17.3128 7.57692 17.7509 7.39542C18.1891 7.21392 18.5872 6.9479 18.9226 6.61254C19.258 6.27718 19.524 5.87904 19.7055 5.44087C19.887 5.0027 19.9804 4.53307 19.9804 4.0588C19.9804 3.58453 19.887 3.1149 19.7055 2.67672C19.524 2.23855 19.258 1.84042 18.9226 1.50506C18.5872 1.1697 18.1891 0.903674 17.7509 0.722177C17.3128 0.540681 16.8431 0.447266 16.3689 0.447266ZM18.2499 5.52185C18.2499 5.75171 18.0618 5.93981 17.8319 5.93981H14.9058C14.676 5.93981 14.4879 5.75171 14.4879 5.52185V2.59575C14.4879 2.36589 14.676 2.17779 14.9058 2.17779H17.8319C18.0618 2.17779 18.2499 2.36589 18.2499 2.59575V5.52185Z" fill="white"/>
</g>
<defs>
<clipPath id="clip0_1065_1132">
<rect width="7.52403" height="7.52403" fill="white" transform="translate(0.0673828 0.296875)"/>
</clipPath>
<clipPath id="clip1_1065_1132">
<rect width="7.52403" height="7.52403" fill="white" transform="translate(25.1475 0.296875)"/>
</clipPath>
<clipPath id="clip2_1065_1132">
<rect width="7.52403" height="7.52403" fill="white" transform="translate(12.6074 0.296875)"/>
</clipPath>
</defs>
</svg>
