<svg width="45" height="25" viewBox="0 0 45 25" fill="none" xmlns="http://www.w3.org/2000/svg">
<path d="M1.11277 0.712775C1.02587 0.507029 0.788639 0.410682 0.582892 0.49758C0.377146 0.584478 0.2808 0.821713 0.367697 1.02746L1.11277 0.712775ZM13.7981 18.1915L14.0293 17.8598L13.7981 18.1915ZM44.3056 21.6962L39.8529 20.2893L40.8609 24.8489L44.3056 21.6962ZM0.367697 1.02746C0.830232 2.1226 1.60864 4.76651 3.51552 7.96793C5.43028 11.1826 8.49195 14.9867 13.5669 18.5233L14.0293 17.8598C9.05725 14.3948 6.07187 10.6792 4.2104 7.55403C2.34103 4.4156 1.61401 1.89955 1.11277 0.712775L0.367697 1.02746ZM13.5669 18.5233C17.6349 21.3582 22.6488 22.7472 27.5299 23.2796C32.4136 23.8123 37.1927 23.4908 40.8177 22.8809L40.6835 22.0833C37.1198 22.6829 32.4162 22.999 27.6176 22.4756C22.8164 21.9519 17.9483 20.5908 14.0293 17.8598L13.5669 18.5233Z" fill="#4FC786"/>
</svg>
