<svg width="145" height="31" viewBox="0 0 145 31" fill="none" xmlns="http://www.w3.org/2000/svg">
<path d="M144.228 3.79814C144.686 2.49542 144 1.0685 142.698 0.611025C141.395 0.153546 139.968 0.838752 139.51 2.14147L144.228 3.79814ZM78.6944 27.5683L78.4582 25.0795L78.6944 27.5683ZM0.240058 0.810553L13.0399 26.6852L29.0481 2.66288L0.240058 0.810553ZM139.51 2.14147C139.523 2.10638 139.482 2.22788 139.254 2.51726C139.039 2.78991 138.719 3.13552 138.271 3.54948C137.374 4.37819 136.088 5.37154 134.422 6.48055C131.098 8.6936 126.437 11.2524 120.786 13.7672C109.481 18.7981 94.4053 23.5666 78.4582 25.0795L78.9305 30.0571C95.5218 28.4831 111.126 23.5387 122.819 18.3353C128.667 15.733 133.586 13.0443 137.193 10.6425C138.993 9.4441 140.51 8.28821 141.665 7.22121C142.735 6.23204 143.785 5.06008 144.228 3.79814L139.51 2.14147ZM78.4582 25.0795C62.2467 26.6175 50.3959 25.1752 41.3233 22.3862C32.2641 19.6012 25.8375 15.4323 20.4925 11.3095L17.4387 15.2686C23.0696 19.6118 30.0311 24.1457 39.8541 27.1654C49.6638 30.1811 62.1895 31.6454 78.9305 30.0571L78.4582 25.0795Z" fill="#457EFF"/>
</svg>
