<svg width="107" height="82" viewBox="0 0 107 82" fill="none" xmlns="http://www.w3.org/2000/svg">
<path d="M106.718 2.85581C106.888 1.48551 105.914 0.237448 104.544 0.0681752C103.174 -0.101097 101.925 0.872525 101.756 2.24282L106.718 2.85581ZM71.8256 54.3055L70.5081 52.1809L71.8256 54.3055ZM0.410181 62.2688L21.731 81.7305L27.9249 53.5353L0.410181 62.2688ZM101.756 2.24282C101.445 4.76134 99.3203 13.7855 94.3498 23.982C89.3858 34.1651 81.7231 45.2267 70.5081 52.1809L73.1431 56.4302C85.4692 48.787 93.6625 36.8026 98.8442 26.1729C104.019 15.5567 106.33 6.00141 106.718 2.85581L101.756 2.24282ZM70.5081 52.1809C51.6018 63.9043 35.3545 65.7801 22.6133 64.6065L22.1547 69.5854C35.8917 70.8507 53.2405 68.7714 73.1431 56.4302L70.5081 52.1809Z" fill="#457EFF"/>
</svg>
