<svg width="63" height="162" viewBox="0 0 63 162" fill="none" xmlns="http://www.w3.org/2000/svg">
<path d="M29.4774 2.04241C30.2758 0.915941 31.8363 0.649992 32.9627 1.44839C34.0892 2.24679 34.3551 3.8072 33.5567 4.93367L29.4774 2.04241ZM62.1589 157.306L33.6152 161.617L44.1533 134.742L62.1589 157.306ZM33.5567 4.93367C25.9135 15.7176 5.10761 43.5041 5.58484 79.5447L0.585275 79.6109C0.0837233 41.7336 21.9252 12.6979 29.4774 2.04241L33.5567 4.93367ZM5.58484 79.5447C5.75212 92.1779 10.4332 105.653 17.4508 117.752C24.464 129.843 33.694 140.356 42.7087 147.09L39.7166 151.095C30.087 143.903 20.4279 132.85 13.1257 120.261C5.82789 107.679 0.767337 93.3598 0.585275 79.6109L5.58484 79.5447Z" fill="#457EFF"/>
</svg>
