<svg width="8" height="9" viewBox="0 0 8 9" fill="none" xmlns="http://www.w3.org/2000/svg">
<path d="M0.685059 6.64011C0.685059 7.00795 0.849615 7.33817 1.107 7.56807V8.10311C1.107 8.45005 1.3897 8.73011 1.73991 8.73011C2.09011 8.73011 2.37281 8.45005 2.37281 8.10311V7.89411H5.74832V8.10311C5.74832 8.44587 6.03102 8.73011 6.38123 8.73011C6.72722 8.73011 7.01414 8.45005 7.01414 8.10311V7.56807C7.27152 7.33817 7.43608 7.00795 7.43608 6.64011V2.46009C7.43608 0.997087 5.92554 0.788086 4.06057 0.788086C2.1956 0.788086 0.685059 0.997087 0.685059 2.46009V6.64011ZM2.16184 7.05811C1.81164 7.05811 1.52894 6.77805 1.52894 6.4311C1.52894 6.08416 1.81164 5.8041 2.16184 5.8041C2.51205 5.8041 2.79475 6.08416 2.79475 6.4311C2.79475 6.77805 2.51205 7.05811 2.16184 7.05811ZM5.95929 7.05811C5.60908 7.05811 5.32639 6.77805 5.32639 6.4311C5.32639 6.08416 5.60908 5.8041 5.95929 5.8041C6.3095 5.8041 6.5922 6.08416 6.5922 6.4311C6.5922 6.77805 6.3095 7.05811 5.95929 7.05811ZM6.5922 4.5501H1.52894V2.46009H6.5922V4.5501Z" fill="white"/>
</svg>
