<svg width="5" height="6" viewBox="0 0 5 6" fill="none" xmlns="http://www.w3.org/2000/svg">
<path d="M4.29717 2.4282L3.0458 2.23151L2.48641 1.00504C2.47113 0.971455 2.44599 0.944271 2.41494 0.927748C2.33707 0.886172 2.24244 0.920819 2.20351 1.00504L1.64411 2.23151L0.392749 2.4282C0.358249 2.43353 0.326706 2.45112 0.302556 2.47777C0.27336 2.51022 0.257272 2.55388 0.257826 2.59916C0.258381 2.64443 0.275533 2.68762 0.305513 2.71922L1.21089 3.67386L0.996993 5.02186C0.991976 5.05322 0.995185 5.08547 1.00625 5.11496C1.01732 5.14444 1.03581 5.16999 1.05962 5.18869C1.08343 5.20739 1.11161 5.2185 1.14096 5.22076C1.17031 5.22303 1.19966 5.21635 1.22568 5.20149L2.34496 4.56507L3.46424 5.20149C3.49479 5.21908 3.53028 5.22494 3.56429 5.21855C3.65004 5.20256 3.70771 5.11461 3.69292 5.02186L3.47902 3.67386L4.3844 2.71922C4.40905 2.69311 4.42531 2.65899 4.43024 2.62168C4.44355 2.5284 4.38342 2.44205 4.29717 2.4282Z" fill="#FDBF00"/>
</svg>
