<svg width="91" height="180" viewBox="0 0 91 180" fill="none" xmlns="http://www.w3.org/2000/svg">
<path d="M68.2854 1.87119C67.5962 0.674806 66.0676 0.263671 64.8712 0.952894C63.6748 1.64212 63.2637 3.17071 63.9529 4.36709L68.2854 1.87119ZM83.7476 109.186L81.3881 108.359L83.7476 109.186ZM0.164156 168.387L26.846 179.406L23.0475 150.789L0.164156 168.387ZM63.9529 4.36709C66.6503 9.04934 74.4103 25.5578 79.7782 45.7543C85.1624 66.0124 88.0011 89.4799 81.3881 108.359L86.107 110.012C93.2283 89.6813 90.0669 65.0003 84.6104 44.47C79.1375 23.8783 71.2162 6.95864 68.2854 1.87119L63.9529 4.36709ZM81.3881 108.359C74.6504 127.595 64.9977 140.097 54.5078 148.351C43.9998 156.62 32.5124 160.736 21.9532 162.98L22.9926 167.871C34.0436 165.522 46.3131 161.162 57.5997 152.28C68.9044 143.385 79.084 130.063 86.107 110.012L81.3881 108.359Z" fill="#457EFF"/>
</svg>
