<svg width="8" height="7" viewBox="0 0 8 7" fill="none" xmlns="http://www.w3.org/2000/svg">
<path d="M6.46074 1.40169C6.38169 1.1859 6.16035 1.03228 5.89949 1.03228H4.91138V0.666533C4.91138 0.465369 4.73352 0.300781 4.51614 0.300781H2.93516C2.71778 0.300781 2.53992 0.465369 2.53992 0.666533V1.03228H1.55181C1.29095 1.03228 1.07356 1.1859 0.990564 1.40169L0.211934 3.4755C0.184267 3.55231 0.168457 3.63278 0.168457 3.7169V6.33568C0.168457 6.63925 0.43327 6.88431 0.761322 6.88431C1.08937 6.88431 1.35419 6.63925 1.35419 6.33568V6.1528H6.09711V6.33568C6.09711 6.6356 6.36192 6.88431 6.68998 6.88431C7.01408 6.88431 7.28284 6.63925 7.28284 6.33568V3.7169C7.28284 3.63643 7.26703 3.55231 7.23937 3.4755L6.46074 1.40169ZM1.55181 5.05555C1.22376 5.05555 0.958944 4.8105 0.958944 4.50692C0.958944 4.20335 1.22376 3.9583 1.55181 3.9583C1.87986 3.9583 2.14468 4.20335 2.14468 4.50692C2.14468 4.8105 1.87986 5.05555 1.55181 5.05555ZM5.89949 5.05555C5.57144 5.05555 5.30662 4.8105 5.30662 4.50692C5.30662 4.20335 5.57144 3.9583 5.89949 3.9583C6.22754 3.9583 6.49235 4.20335 6.49235 4.50692C6.49235 4.8105 6.22754 5.05555 5.89949 5.05555ZM0.958944 3.22679L1.55181 1.58091H5.89949L6.49235 3.22679H0.958944Z" fill="white"/>
</svg>
