<svg width="8" height="7" viewBox="0 0 8 7" fill="none" xmlns="http://www.w3.org/2000/svg">
<path d="M6.43146 0.719727H1.19291C0.831772 0.719727 0.538086 1.01067 0.538086 1.36844V5.90942C0.538086 6.26718 0.831772 6.55813 1.19291 6.55813H6.43146C6.79259 6.55813 7.08628 6.26718 7.08628 5.90942V1.36844C7.08628 1.01067 6.79259 0.719727 6.43146 0.719727ZM6.43179 2.66586C6.43146 2.66586 6.43146 2.66586 6.43179 2.66586H6.27954L5.40634 1.36844H6.43146L6.43179 2.66586ZM4.95812 4.612L3.15736 5.58506V3.63893L4.95812 4.612ZM4.64249 2.66586L3.76929 1.36844H4.61925L5.49245 2.66586H4.64249ZM3.8554 2.66586H3.00545L2.13224 1.36844H2.9822L3.8554 2.66586ZM1.19291 1.36844H1.34515L2.21835 2.66586H1.19291V1.36844Z" fill="white"/>
</svg>
