<svg width="5" height="6" viewBox="0 0 5 6" fill="none" xmlns="http://www.w3.org/2000/svg">
<path d="M4.81714 2.4282L3.56337 2.23151L3.0029 1.00504C2.98759 0.971455 2.96241 0.944271 2.9313 0.927748C2.85328 0.886172 2.75847 0.920819 2.71946 1.00504L2.15899 2.23151L0.905216 2.4282C0.870649 2.43353 0.839046 2.45112 0.814849 2.47777C0.785597 2.51022 0.769478 2.55388 0.770033 2.59916C0.770589 2.64443 0.787774 2.68762 0.817812 2.71922L1.72493 3.67386L1.51062 5.02186C1.5056 5.05322 1.50881 5.08547 1.5199 5.11496C1.53099 5.14444 1.54951 5.16999 1.57337 5.18869C1.59722 5.20739 1.62545 5.2185 1.65486 5.22076C1.68427 5.22303 1.71368 5.21635 1.73975 5.20149L2.86118 4.56507L3.98261 5.20149C4.01323 5.21908 4.04878 5.22494 4.08285 5.21855C4.16878 5.20256 4.22655 5.11461 4.21174 5.02186L3.99742 3.67386L4.90455 2.71922C4.92924 2.69311 4.94553 2.65899 4.95047 2.62168C4.9638 2.5284 4.90356 2.44205 4.81714 2.4282Z" fill="#FDBF00"/>
</svg>
