<svg width="54" height="167" viewBox="0 0 54 167" fill="none" xmlns="http://www.w3.org/2000/svg">
<path d="M4.05921 1.02112C2.83848 0.375995 1.3259 0.84262 0.680783 2.06335C0.0356631 3.28408 0.502288 4.79665 1.72302 5.44178L4.05921 1.02112ZM29.1398 166.703L53.276 150.867L27.4936 137.882L29.1398 166.703ZM1.72302 5.44178C8.85055 9.20846 34.7383 28.3625 42.2071 64.8077L47.1053 63.8039C39.2552 25.498 12.1041 5.27258 4.05921 1.02112L1.72302 5.44178ZM42.2071 64.8077C47.5789 91.0202 44.0371 123.98 36.8832 145.832L41.635 147.387C49.0136 124.85 52.6788 91.001 47.1053 63.8039L42.2071 64.8077Z" fill="#457EFF"/>
</svg>
