<svg width="7" height="7" viewBox="0 0 7 7" fill="none" xmlns="http://www.w3.org/2000/svg">
<g clip-path="url(#clip0_1065_1035)">
<path d="M3.83852 5.85086C3.15318 5.85086 2.4959 5.57861 2.01128 5.09399C1.52667 4.60938 1.25441 3.9521 1.25441 3.26675C1.25441 2.5814 1.52667 1.92412 2.01128 1.4395C2.4959 0.954889 3.15318 0.682635 3.83852 0.682635C4.52387 0.682635 5.18115 0.954889 5.66577 1.4395C6.15038 1.92412 6.42264 2.5814 6.42264 3.26675C6.42264 3.9521 6.15038 4.60938 5.66577 5.09399C5.18115 5.57861 4.52387 5.85086 3.83852 5.85086ZM3.83852 6.22002C4.62178 6.22002 5.37296 5.90887 5.9268 5.35503C6.48065 4.80118 6.7918 4.05 6.7918 3.26675C6.7918 2.48349 6.48065 1.73232 5.9268 1.17847C5.37296 0.624624 4.62178 0.313477 3.83852 0.313477C3.05527 0.313477 2.30409 0.624624 1.75025 1.17847C1.1964 1.73232 0.885254 2.48349 0.885254 3.26675C0.885254 4.05 1.1964 4.80118 1.75025 5.35503C2.30409 5.90887 3.05527 6.22002 3.83852 6.22002V6.22002Z" fill="#1262AF"/>
<path d="M3.17936 2.01288C3.21419 1.99495 3.25328 1.98697 3.29235 1.98982C3.33142 1.99268 3.36894 2.00626 3.40078 2.02906L4.89114 3.0936C4.91874 3.11329 4.94123 3.13929 4.95675 3.16944C4.97228 3.19958 4.98037 3.233 4.98037 3.26691C4.98037 3.30081 4.97228 3.33423 4.95675 3.36437C4.94123 3.39452 4.91874 3.42052 4.89114 3.44021L3.40078 4.50475C3.36895 4.52753 3.33144 4.5411 3.2924 4.54396C3.25335 4.54681 3.21427 4.53884 3.17946 4.52093C3.14465 4.50302 3.11545 4.47586 3.09507 4.44242C3.0747 4.40899 3.06393 4.37059 3.06396 4.33144V2.20237C3.06392 2.16323 3.07467 2.12483 3.09503 2.0914C3.11539 2.05798 3.14457 2.03081 3.17936 2.01288V2.01288Z" fill="#1262AF"/>
</g>
<defs>
<clipPath id="clip0_1065_1035">
<rect width="6.27002" height="6.27002" fill="white" transform="translate(0.703613 0.131836)"/>
</clipPath>
</defs>
</svg>
