<svg width="101" height="101" viewBox="0 0 101 101" fill="none" xmlns="http://www.w3.org/2000/svg">
<path d="M50.4227 91.7058C39.4922 91.7058 29.0093 87.3637 21.2802 79.6346C13.5511 71.9055 9.20897 61.4226 9.20897 50.4921C9.20897 39.5615 13.5511 29.0786 21.2802 21.3495C29.0093 13.6205 39.4922 9.2783 50.4227 9.2783C61.3533 9.2783 71.8362 13.6205 79.5652 21.3495C87.2943 29.0786 91.6365 39.5615 91.6365 50.4921C91.6365 61.4226 87.2943 71.9055 79.5652 79.6346C71.8362 87.3637 61.3533 91.7058 50.4227 91.7058ZM50.4227 97.5935C62.9148 97.5935 74.8952 92.631 83.7285 83.7978C92.5617 74.9646 97.5241 62.9841 97.5241 50.4921C97.5241 38 92.5617 26.0195 83.7285 17.1863C74.8952 8.35308 62.9148 3.39063 50.4227 3.39062C37.9306 3.39063 25.9502 8.35308 17.117 17.1863C8.28375 26.0195 3.32129 38 3.32129 50.4921C3.32129 62.9841 8.28375 74.9646 17.117 83.7978C25.9502 92.631 37.9306 97.5935 50.4227 97.5935V97.5935Z" fill="#457EFF"/>
<path d="M39.9083 30.492C40.4637 30.206 41.0873 30.0787 41.7103 30.1243C42.3334 30.1698 42.9318 30.3863 43.4398 30.75L67.2093 47.7283C67.6495 48.0424 68.0082 48.4571 68.2558 48.9378C68.5034 49.4186 68.6325 49.9515 68.6325 50.4923C68.6325 51.0331 68.5034 51.566 68.2558 52.0468C68.0082 52.5275 67.6495 52.9422 67.2093 53.2564L43.4398 70.2346C42.932 70.598 42.3339 70.8143 41.7111 70.8599C41.0884 70.9054 40.4651 70.7783 39.9099 70.4927C39.3547 70.207 38.889 69.7737 38.564 69.2406C38.239 68.7074 38.0674 68.0949 38.0679 67.4705V33.5141C38.0672 32.8899 38.2387 32.2775 38.5633 31.7444C38.888 31.2112 39.3534 30.7779 39.9083 30.492V30.492Z" fill="#457EFF"/>
</svg>
